<?xml version="1.0" encoding="UTF-8"?>
<svg id="Pneu_Classique" data-name="Pneu Classique" xmlns="http://www.w3.org/2000/svg" viewBox="0 0 2000 2000">
  <defs>
    <style>
      .cls-1 {
        fill: #191919;
      }
    </style>
  </defs>
  <path class="cls-1" d="M606.43,1231.09c-1.79-45.27-24.72-79.04-28.82-84.92-10.54-15.12-33.22-56.15-83.83-69.59-49.77-13.22-95.06,8.8-102.17,11.79-94.71,39.95-95.68,162.79-95.62,171.03.14,17.51.87,51.82,23.58,88.46,3.58,5.78,49.99,78.38,120.5,81.38,90.43,3.85,169.87-108.92,166.35-198.15Z"/>
  <path class="cls-1" d="M1308.99,1125.7c-1.81-45.27-25-79.04-29.15-84.92-10.66-15.12-33.6-56.15-84.79-69.59-50.35-13.22-96.15,8.8-103.34,11.79-95.8,39.95-96.78,162.79-96.71,171.03.14,17.51.88,51.82,23.85,88.46,3.62,5.78,50.56,78.38,121.89,81.38,91.47,3.85,171.83-108.92,168.26-198.15Z"/>
</svg>