<?xml version="1.0" encoding="UTF-8"?>
<svg id="Pneu_Classique" data-name="Pneu Classique" xmlns="http://www.w3.org/2000/svg" viewBox="0 0 2000 2000">
  <defs>
    <style>
      .cls-1 {
        fill: #191919;
      }
    </style>
  </defs>
  <g>
    <path d="M900.84,1269.83c-1.77-45.27-24.43-79.04-28.48-84.92-10.42-15.12-32.84-56.15-82.86-69.59-49.2-13.22-93.96,8.8-100.99,11.79-93.61,39.95-94.58,162.79-94.51,171.03.14,17.51.86,51.82,23.3,88.46,3.54,5.78,49.41,78.38,119.11,81.38,89.38,3.85,167.91-108.92,164.42-198.15Z"/>
    <path d="M1640.07,1128.47c-1.77-45.27-24.45-79.04-28.5-84.92-10.42-15.12-32.86-56.15-82.92-69.59-49.24-13.22-94.03,8.8-101.06,11.79-93.69,39.95-94.65,162.79-94.58,171.03.14,17.51.86,51.82,23.32,88.46,3.54,5.78,49.45,78.38,119.2,81.38,89.45,3.85,168.04-108.92,164.55-198.15Z"/>
  </g>
  <g>
    <path class="cls-1" d="M900.84,1269.83c-1.77-45.27-24.43-79.04-28.48-84.92-10.42-15.12-32.84-56.15-82.86-69.59-49.2-13.22-93.96,8.8-100.99,11.79-93.61,39.95-94.58,162.79-94.51,171.03.14,17.51.86,51.82,23.3,88.46,3.54,5.78,49.41,78.38,119.11,81.38,89.38,3.85,167.91-108.92,164.42-198.15Z"/>
    <path class="cls-1" d="M1640.07,1128.47c-1.77-45.27-24.45-79.04-28.5-84.92-10.42-15.12-32.86-56.15-82.92-69.59-49.24-13.22-94.03,8.8-101.06,11.79-93.69,39.95-94.65,162.79-94.58,171.03.14,17.51.86,51.82,23.32,88.46,3.54,5.78,49.45,78.38,119.2,81.38,89.45,3.85,168.04-108.92,164.55-198.15Z"/>
  </g>
</svg>