<?xml version="1.0" encoding="UTF-8"?>
<svg id="Aileron_GT_Rouge" data-name="Aileron GT Rouge" xmlns="http://www.w3.org/2000/svg" viewBox="0 0 2000 2000">
  <defs>
    <style>
      .cls-1 {
        fill: #da281f;
        stroke-width: 5px;
      }

      .cls-1, .cls-2 {
        stroke: #191919;
        stroke-linejoin: round;
      }

      .cls-2 {
        fill: none;
        stroke-width: 20px;
      }
    </style>
  </defs>
  <path class="cls-2" d="M1607.63,713.28c-9.04,41.61-18.09,83.21-27.13,124.82-11.38-3.49-24.24-6.85-38.48-9.63-14.33-2.8-27.69-4.55-39.75-5.62,13.03-36.71,26.06-73.42,39.09-110.14,8.21-.68,16.97-1.13,26.23-1.23,14.58-.15,27.99.58,40.04,1.8Z"/>
  <path class="cls-1" d="M1288,690.32c65.53,10.07,118.58,15.61,155.68,18.83,35.91,3.12,67.6,5,114.27,12.56,36.71,5.94,66.7,12.81,86.66,17.79,24.8-3.84,49.59-7.67,74.39-11.51-47.27-11.99-87.13-19.38-116.57-24.06-43.95-6.99-77.63-9.99-118.1-13.6-43.75-3.9-80.33-6.06-106.6-7.32-29.91,2.44-59.82,4.88-89.73,7.32Z"/>
  <path class="cls-1" d="M1591.5,750.5c-5.23-17.99,36.61-44.99,60-56,33.94-15.97,81.72-23.06,91-7,1.68,2.92,1.46,6.61,1,14-1.35,21.91-10.55,38.16-13,42-23.82,37.36-131.35,33.32-139,7Z"/>
</svg>