<?xml version="1.0" encoding="UTF-8"?>
<svg id="Aileron_Supra_Bleu" data-name="Aileron Supra Bleu" xmlns="http://www.w3.org/2000/svg" viewBox="0 0 2000 2000">
  <defs>
    <style>
      .cls-1 {
        fill: #2137d8;
      }

      .cls-2 {
        fill: none;
        stroke: #191919;
        stroke-linecap: round;
        stroke-miterlimit: 10;
        stroke-width: 6px;
      }
    </style>
  </defs>
  <path class="cls-1" d="M1591,859c6.99-16.7,11.29-31.21,14-42,6.05-24.14,9.2-37.36,5-54-4.11-16.29-12.93-26.65-15-29-8.14-9.25-16.78-13.79-25-18-9.34-4.79-17.79-7.65-35-12,0,0-42.57-10.77-97-15-3-.23-7.91-.57-8,0-.13.79,9.06,2.88,14,4,13.8,3.12,24.44,4.76,26,5,5.86.91,22.64,3.78,40,10,14.5,5.19,27.33,9.95,39,22,3.19,3.3,8.9,9.3,13,19,5.31,12.56,4.48,24.38,4,31-.4,5.55-1.29,9.9-2,13-5.24,22.73-18.54,53.05-23,63,16.67,1,33.33,2,50,3Z"/>
  <path class="cls-2" d="M1594,860c5-11,31.54-81.35,12-115-18-31-58.91-39.97-73-43-134.79-29-212.86-11.99-246,13-11.1,8.37-29.36,25.51-42,60"/>
  <path class="cls-2" d="M1539,855c5-11,39.54-75.35,20-109-18-31-67.14-43.02-91-47-42-7-67-12-98-8-13.79,1.78-60,28-76,74"/>
</svg>