<?xml version="1.0" encoding="UTF-8"?>
<svg id="Aile" xmlns="http://www.w3.org/2000/svg" viewBox="0 0 2000 2000">
  <defs>
    <style>
      .cls-1 {
        fill: #efefef;
      }

      .cls-2 {
        fill: #191919;
      }
    </style>
  </defs>
  <path class="cls-1" d="M1510.56,815.64c-14.46-49.58,31.08-111.1,129.47-131.83,98.46-20.75,124.09-58.28,136.09-52.13,8.57,4.39,11.63,51.18-87.77,75.99,112.19-22.94,110.73,13.07-1.53,30.14,90.48-12.48,79.08,39-12.51,33.51,70.89,5.29,54.31,46.09-21.15,29.37,67,23.07,23.4,64.18-33.13,24.17,50.6,39.5-12.25,44.33-35.76,14.2,18.84,33.92-18.85,41.51-35.58,5.39,9.27,31.76-20.51,31.57-28.1,5.57l-10.03-34.37Z"/>
  <path class="cls-2" d="M1773.2,631c1.07,0,2.03.22,2.92.67,8.57,4.39,11.63,51.18-87.77,75.99,25.72-5.26,45.48-7.42,59.29-7.42,46.42,0,25.71,24.41-60.81,37.56,9.84-1.36,18.47-1.96,25.93-1.96,57.63,0,44.98,35.88-25.07,35.88-4.25,0-8.7-.13-13.37-.41,58.96,4.4,57.41,33.37,11.8,33.37-9.23,0-20.26-1.18-32.96-4,46.73,16.09,39.66,40.96,11.93,40.96-12.03,0-27.95-4.68-45.05-16.78,28.76,22.45,20.87,33.7,4.39,33.7-12.52,0-30-6.49-40.15-19.5,10.28,18.51,3.72,29.18-7.07,29.18-8.99,0-20.91-7.39-28.51-23.79,4.85,16.62-1,24.49-8.76,24.49-7.07,0-15.73-6.53-19.34-18.92l-10.03-34.37c-14.46-49.58,31.08-111.1,129.47-131.83,91.16-19.21,119.89-52.8,133.17-52.81M1773.2,625v6-6h0c-5.93,0-12.08,3.65-22.29,9.7-19.19,11.38-51.31,30.42-112.12,43.23-29.75,6.27-55.87,16.37-77.64,30.03-20.12,12.62-36.13,28.26-46.28,45.22-12.48,20.83-16.05,43.61-10.06,64.13l10.03,34.37c3.99,13.68,14.31,23.24,25.1,23.24,5.13,0,9.61-2.21,12.63-6.23.91-1.22,1.8-2.75,2.5-4.67,7.59,7.31,15.87,10.2,22.13,10.2,6.77,0,12.47-3.07,15.61-8.42,1.18-2.01,2.45-5.16,2.58-9.56,9.81,5.64,20.66,8.29,29.03,8.29,10.43,0,17.74-3.87,20.06-10.63,1.05-3.05.98-6.35-.2-9.87,7.18,2.35,14.21,3.58,20.79,3.58,15.15,0,26.05-6.65,27.77-16.94,1.1-6.57-1.91-13.58-8.48-19.76-.1-.09-.2-.19-.3-.28.69.01,1.36.02,2.04.02,10.91,0,20.27-1.6,27.07-4.62,10.42-4.63,12.2-11.25,12.33-14.79.22-6.04-3.47-11.35-10.42-15.6,7.77-1.28,14.72-3.13,20.64-5.54,12.52-5.09,19.41-12.28,19.41-20.26,0-3.72-1.64-10.66-12.62-15.34-1.33-.57-2.75-1.08-4.25-1.55,5.42-1.6,10.39-3.27,14.85-5.01,17.14-6.67,25.19-13.58,24.62-21.13-.95-12.61-22.89-12.61-30.1-12.61-1.66,0-3.38.03-5.16.09,8.13-4.29,15.22-8.94,21.25-13.96,17.35-14.45,21.28-28.22,22.08-35.14,1.01-8.8-1.71-16.21-6.94-18.89-1.73-.88-3.63-1.33-5.65-1.33h0Z"/>
</svg>