<?xml version="1.0" encoding="UTF-8"?>
<svg id="Volant_Classique" data-name="Volant Classique" xmlns="http://www.w3.org/2000/svg" viewBox="0 0 2000 2000">
  <defs>
    <style>
      .cls-1 {
        fill: #51361d;
      }

      .cls-2 {
        fill: #6e7882;
      }

      .cls-3 {
        fill: #191919;
      }
    </style>
  </defs>
  <g>
    <path class="cls-2" d="M810.41,862.43c-3.03,3.61-5.79,7.38-8.29,11.28l-1.44-1.02,8.08-11.43,1.65,1.17Z"/>
    <path class="cls-2" d="M871.42,905.55c-1.96,1.29-3.55,2.91-4.7,4.83-1.31,2.17-2.06,4.68-2.33,7.34l-58.17-41.12c2.47-3.91,5.24-7.67,8.29-11.27l56.91,40.22Z"/>
    <path class="cls-2" d="M884.1,914.51l-8.09,11.43-6.7-4.74c-.16-3.1.34-6,1.69-8.24.46-.77,1.03-1.46,1.68-2.08.43-.4.9-.78,1.41-1.12.57-.39,1.19-.73,1.84-1.03l8.17,5.78Z"/>
    <path class="cls-3" d="M886.98,910.43l-4.69-3.31-5.63-3.98-58.82-41.58-4.11-2.91-2.08-1.47-4.08-2.89-2.89,4.09-8.08,11.43-2.89,4.08,4.09,2.89,1.73,1.22,4.1,2.9,60.89,43.04,6.15,4.35,2.46,1.74,4.08,2.88,2.89-4.08,8.08-11.43,2.88-4.09-4.08-2.88ZM876.01,925.94l-6.7-4.74-4.92-3.48-58.17-41.12-4.1-2.89-1.44-1.02,8.08-11.43,1.65,1.17,4.1,2.9,56.91,40.22,4.51,3.18,8.17,5.78-8.09,11.43Z"/>
  </g>
  <g>
    <path class="cls-2" d="M909,921.29c.23.97.34,1.97.34,2.99h0s-1.76,1.22-1.76,1.22l-7.95-11.52,2.55-1.76c1.87,1.28,3.47,2.78,4.68,4.48.34.46.65.95.92,1.44.55,1,.96,2.05,1.22,3.15Z"/>
    <path class="cls-2" d="M975.14,878.9l-61.09,42.14c-.05-.3-.11-.61-.18-.91-1.03-4.33-3.74-8.01-7.38-10.88l61.71-42.57c.9,1.38,1.74,2.72,2.51,4.02,1.58,2.65,3.05,5.39,4.43,8.2Z"/>
    <path class="cls-2" d="M981.71,874.37l-2.41,1.66c-1.34-2.7-2.77-5.33-4.29-7.89-.83-1.39-1.72-2.83-2.69-4.3l1.44-.99,7.95,11.52Z"/>
    <path class="cls-3" d="M985.82,871.54l-7.95-11.53-2.84-4.11-4.11,2.83-1.43.99-4.12,2.84-63.42,43.74-4.71,3.25-.45.31-4.11,2.84,2.84,4.12,7.95,11.52,2.83,4.12,1.48-1.02,2.64-1.82,3.75-2.59,63.1-43.52,4.19-2.89,3.09-2.13,4.11-2.84-2.84-4.11ZM979.3,876.03l-4.16,2.87-61.09,42.14-4.71,3.24h0s-1.76,1.22-1.76,1.22l-7.95-11.52,2.55-1.76,4.31-2.97,61.71-42.57,4.12-2.84,1.44-.99,7.95,11.52-2.41,1.66Z"/>
  </g>
  <path class="cls-2" d="M896.51,941.18v2.27s-.02.01-.03.01c-.76.31-1.53.56-2.31.75-.77.2-1.56.33-2.35.4-.52.05-1.05.08-1.58.08-.36,0-.71-.01-1.06-.04-.36-.02-.72-.05-1.07-.1-.32-.04-.64-.09-.95-.15-.74-.13-1.47-.31-2.2-.54-.83-.26-1.66-.58-2.46-.98h0s.01-1.76.01-1.76l14,.06Z"/>
  <path class="cls-2" d="M888.4,1030.5c2.58,0,5.16-.09,7.74-.27v1l-14-.05v-.86c2.18.13,4.27.18,6.26.18Z"/>
  <g>
    <path class="cls-3" d="M896.53,936.19l-14-.06-5-.02-.02,4.99v1.74s-.03,5-.03,5l-.32,77.04-.02,5.72v.55s-.02,5-.02,5l5,.02,14,.05,5,.03v-1.8s.02-3.21.02-3.21l.02-4.56.32-76.65.02-5.09.02-3.75.02-5-5-.02ZM896.5,944.1l-.02,5.05-.3,74.21-.03,5.72h0s-.01,2.14-.01,2.14l-14-.05v-3.1s.04-5.23.04-5.23l.3-74.97.02-5v-1.75s14.01.05,14.01.05v2.93Z"/>
    <path class="cls-2" d="M896.48,948.76v.4l-.31,74.21v1.84c-2.59.19-5.18.29-7.77.29-1.98,0-4.06-.06-6.23-.19v-2.47s.31-74.56.31-74.56c2.5.92,5.12,1.41,7.76,1.41,2.13,0,4.23-.32,6.24-.93Z"/>
  </g>
  <g>
    <path class="cls-2" d="M909.34,924.28h0c0,2.37-.58,4.82-1.56,7.16-1.7,4.04-4.59,7.74-7.78,10.05-1.13.82-2.31,1.47-3.52,1.97-.76.31-1.53.56-2.31.75-.78.19-1.56.32-2.35.4-.88.08-1.77.1-2.64.04-.36-.02-.72-.05-1.07-.1-.32-.04-.64-.09-.95-.15-.74-.13-1.48-.32-2.2-.54-1.03-.32-2.05-.74-3.03-1.26-.65-.33-1.29-.71-1.91-1.13-1.87-1.25-3.57-2.84-5.02-4.73-1.81-2.37-3.32-5.33-4.33-8.45-.77-2.34-1.25-4.77-1.36-7.09-.16-3.1.34-6,1.69-8.24.46-.77,1.03-1.46,1.68-2.08.43-.4.9-.78,1.41-1.12.57-.39,1.19-.73,1.84-1.03,1.87-.88,4.04-1.4,6.36-1.61.81-.08,1.63-.12,2.47-.12,4.13,0,8.55.9,12.48,2.55,1.23.52,2.41,1.1,3.53,1.77.43.26.86.53,1.27.81.05.03.1.06.14.09,1.87,1.28,3.47,2.78,4.68,4.48.34.46.64.95.92,1.44.55,1,.96,2.05,1.22,3.15.23.97.34,1.97.34,2.99Z"/>
    <path class="cls-3" d="M872.68,910.88c.44-.41.91-.78,1.41-1.12-.51.34-.98.72-1.41,1.12ZM901.95,906.3c-5.23-2.79-11.43-4.3-17.19-4.3-2.94,0-5.67.38-8.1,1.14-1.95.58-3.71,1.39-5.24,2.41l4.51,3.18c1.87-.88,4.04-1.4,6.36-1.61.81-.08,1.63-.12,2.47-.12,4.13,0,8.55.9,12.48,2.55,1.23.52,2.41,1.1,3.53,1.77.43.26.86.53,1.27.81.05.03.1.06.14.09l4.31-2.97c-1.39-1.11-2.92-2.09-4.54-2.95ZM914.05,921.04l-4.71,3.24h0c0,2.37-.58,4.82-1.56,7.16-1.7,4.04-4.59,7.74-7.78,10.05-1.12.82-2.3,1.46-3.5,1.96v.65l-.02,4.66c2.29-.7,4.46-1.78,6.45-3.22,5.38-3.88,10.27-11.02,11.24-18.51.27-1.99.25-4-.12-5.99ZM880.02,941.47c-1.87-1.25-3.57-2.84-5.02-4.73-1.81-2.37-3.32-5.33-4.33-8.45-.77-2.34-1.25-4.77-1.36-7.09l-4.92-3.48c-.22,2.01-.16,4.11.13,6.22.78,5.75,3.24,11.56,6.51,15.84,3.03,3.96,7.05,6.9,11.45,8.5v-.4l.02-5c-.19-.08-.38-.18-.57-.28-.65-.34-1.29-.72-1.91-1.13ZM872.68,910.88c.44-.41.91-.78,1.41-1.12-.51.34-.98.72-1.41,1.12Z"/>
    <path class="cls-2" d="M896.5,943.45v.65l-.02,4.66c-2.01.61-4.11.93-6.24.93-2.64,0-5.26-.49-7.76-1.41v-.4l.02-5c.8.4,1.63.72,2.46.98.73.23,1.46.41,2.2.54.31.06.63.11.95.15.35.05.71.08,1.07.1.35.03.7.04,1.06.04.53,0,1.06-.03,1.58-.08.79-.07,1.58-.2,2.35-.4.78-.19,1.55-.44,2.31-.75.01,0,.01-.01.02-.01Z"/>
    <path class="cls-2" d="M914.05,921.04l-4.71,3.24c0-1.02-.11-2.02-.34-2.99-.26-1.1-.67-2.15-1.22-3.15-.27-.49-.58-.98-.92-1.44-1.21-1.7-2.81-3.2-4.68-4.48l4.31-2.97c3.64,2.87,6.35,6.55,7.38,10.88.07.3.13.61.18.91Z"/>
    <path class="cls-2" d="M875.93,908.73c-.65.3-1.27.64-1.84,1.03-.5.34-.97.71-1.41,1.12-.65.62-1.22,1.31-1.68,2.08-1.35,2.24-1.85,5.14-1.69,8.24l-4.92-3.48c.27-2.66,1.02-5.17,2.33-7.34,1.15-1.92,2.74-3.54,4.7-4.83l4.51,3.18Z"/>
  </g>
  <path class="cls-1" d="M1009.96,927.4c-.95-39.45-21.11-85.62-59.22-108.91-5.11-3.12-10.53-5.85-16.28-8.07-12.29-4.77-25.17-6.99-38.09-6.99-49.38,0-99.29,32.45-118.72,79.46-1.84,4.43-3.41,8.99-4.67,13.67-11.31,41.8,1.77,90.35,35.65,121.24,23.09,21.05,51.8,30.2,79.77,30.2,22.53,0,44.58-5.93,62.84-16.37,28.64-16.37,43.2-41.08,49.29-53.18,4.46-11.14,9.97-29.01,9.43-51.05ZM814.51,865.33c1.07-1.28,2.18-2.54,3.33-3.77,4.63-5,9.81-9.65,15.47-13.84,18.96-14.05,41.35-21.79,63.06-21.79,10.52,0,20.61,1.84,29.96,5.47,18.13,7.02,30.74,19.67,39.04,31.16,1.01,1.4,1.95,2.77,2.83,4.12l4.12-2.84c.97,1.47,1.86,2.91,2.69,4.3,1.52,2.56,2.95,5.19,4.29,7.89l-4.16,2.87c.74,1.51,1.45,3.05,2.13,4.61,6.22,14.17,9.85,29.77,10.2,44.44.34,13.83-2.18,27.71-7.48,41.24-6.67,13-18.99,30.95-39.91,42.9-12.98,7.42-28.33,11.98-43.92,13.12l-.02,3.88h0v1.14c-2.59.18-5.17.27-7.75.27-1.99,0-4.08-.05-6.26-.18v-2.24s.03-2.77.03-2.77c-16.8-.98-38.84-6.33-58.38-24.14-26.77-24.4-38.47-64.08-29.09-98.73,2.01-7.43,5.02-14.67,8.93-21.54.82-1.45,1.68-2.89,2.59-4.3l-4.1-2.89c2.5-3.9,5.26-7.67,8.29-11.28l4.1,2.9Z"/>
  <path class="cls-3" d="M969.49,859.72c-8.74-12.13-22.08-25.52-41.35-32.99-9.94-3.85-20.63-5.8-31.77-5.8-22.77,0-46.23,8.09-66.04,22.77-6.09,4.52-11.65,9.53-16.6,14.95-1.14,1.24-2.25,2.5-3.32,3.78l4.1,2.9c1.07-1.28,2.18-2.54,3.33-3.77,4.63-5,9.81-9.65,15.47-13.84,18.96-14.05,41.35-21.79,63.06-21.79,10.52,0,20.61,1.84,29.96,5.47,18.13,7.02,30.74,19.67,39.04,31.16,1.01,1.4,1.95,2.77,2.83,4.12l4.12-2.84c-.88-1.35-1.82-2.72-2.83-4.12ZM992.47,927.83c-.38-15.6-4.3-32.2-11.01-47.21-.69-1.55-1.41-3.08-2.16-4.59l-4.16,2.87c.74,1.51,1.45,3.05,2.13,4.61,6.22,14.17,9.85,29.77,10.2,44.44.34,13.83-2.18,27.71-7.48,41.24-6.67,13-18.99,30.95-39.91,42.9-12.98,7.42-28.33,11.98-43.92,13.12l-.02,3.88h0v1.14c16.45-1.16,32.69-5.96,46.41-13.8,22.04-12.6,34.97-31.46,41.94-45.07l.1-.22c5.57-14.2,8.22-28.77,7.87-43.31ZM794.7,902.44c2.01-7.43,5.02-14.67,8.93-21.54.82-1.45,1.68-2.89,2.59-4.3l-4.1-2.89c-.9,1.41-1.76,2.84-2.59,4.29-4.23,7.36-7.5,15.13-9.66,23.13-9.85,36.42,2.43,78.1,30.55,103.74,20.7,18.86,44.03,24.46,61.72,25.45v-2.24s.03-2.77.03-2.77c-16.8-.98-38.84-6.33-58.38-24.14-26.77-24.4-38.47-64.08-29.09-98.73ZM969.49,859.72c-8.74-12.13-22.08-25.52-41.35-32.99-9.94-3.85-20.63-5.8-31.77-5.8-22.77,0-46.23,8.09-66.04,22.77-6.09,4.52-11.65,9.53-16.6,14.95-1.14,1.24-2.25,2.5-3.32,3.78l4.1,2.9c1.07-1.28,2.18-2.54,3.33-3.77,4.63-5,9.81-9.65,15.47-13.84,18.96-14.05,41.35-21.79,63.06-21.79,10.52,0,20.61,1.84,29.96,5.47,18.13,7.02,30.74,19.67,39.04,31.16,1.01,1.4,1.95,2.77,2.83,4.12l4.12-2.84c-.88-1.35-1.82-2.72-2.83-4.12ZM992.47,927.83c-.38-15.6-4.3-32.2-11.01-47.21-.69-1.55-1.41-3.08-2.16-4.59l-4.16,2.87c.74,1.51,1.45,3.05,2.13,4.61,6.22,14.17,9.85,29.77,10.2,44.44.34,13.83-2.18,27.71-7.48,41.24-6.67,13-18.99,30.95-39.91,42.9-12.98,7.42-28.33,11.98-43.92,13.12l-.02,3.88h0v1.14c16.45-1.16,32.69-5.96,46.41-13.8,22.04-12.6,34.97-31.46,41.94-45.07l.1-.22c5.57-14.2,8.22-28.77,7.87-43.31ZM794.7,902.44c2.01-7.43,5.02-14.67,8.93-21.54.82-1.45,1.68-2.89,2.59-4.3l-4.1-2.89c-.9,1.41-1.76,2.84-2.59,4.29-4.23,7.36-7.5,15.13-9.66,23.13-9.85,36.42,2.43,78.1,30.55,103.74,20.7,18.86,44.03,24.46,61.72,25.45v-2.24s.03-2.77.03-2.77c-16.8-.98-38.84-6.33-58.38-24.14-26.77-24.4-38.47-64.08-29.09-98.73ZM992.47,927.83c-.38-15.6-4.3-32.2-11.01-47.21-.69-1.55-1.41-3.08-2.16-4.59l-4.16,2.87c.74,1.51,1.45,3.05,2.13,4.61,6.22,14.17,9.85,29.77,10.2,44.44.34,13.83-2.18,27.71-7.48,41.24-6.67,13-18.99,30.95-39.91,42.9-12.98,7.42-28.33,11.98-43.92,13.12l-.02,3.88h0v1.14c16.45-1.16,32.69-5.96,46.41-13.8,22.04-12.6,34.97-31.46,41.94-45.07l.1-.22c5.57-14.2,8.22-28.77,7.87-43.31ZM817.84,861.56c4.63-5,9.81-9.65,15.47-13.84,18.96-14.05,41.35-21.79,63.06-21.79,10.52,0,20.61,1.84,29.96,5.47,18.13,7.02,30.74,19.67,39.04,31.16,1.01,1.4,1.95,2.77,2.83,4.12l4.12-2.84c-.88-1.35-1.82-2.72-2.83-4.12-8.74-12.13-22.08-25.52-41.35-32.99-9.94-3.85-20.63-5.8-31.77-5.8-22.77,0-46.23,8.09-66.04,22.77-6.09,4.52-11.65,9.53-16.6,14.95-1.14,1.24-2.25,2.5-3.32,3.78l4.1,2.9c1.07-1.28,2.18-2.54,3.33-3.77ZM794.7,902.44c2.01-7.43,5.02-14.67,8.93-21.54.82-1.45,1.68-2.89,2.59-4.3l-4.1-2.89c-.9,1.41-1.76,2.84-2.59,4.29-4.23,7.36-7.5,15.13-9.66,23.13-9.85,36.42,2.43,78.1,30.55,103.74,20.7,18.86,44.03,24.46,61.72,25.45v-2.24s.03-2.77.03-2.77c-16.8-.98-38.84-6.33-58.38-24.14-26.77-24.4-38.47-64.08-29.09-98.73ZM984.6,971.14c5.57-14.2,8.22-28.77,7.87-43.31-.38-15.6-4.3-32.2-11.01-47.21-.69-1.55-1.41-3.08-2.16-4.59l-4.16,2.87c.74,1.51,1.45,3.05,2.13,4.61,6.22,14.17,9.85,29.77,10.2,44.44.34,13.83-2.18,27.71-7.48,41.24-6.67,13-18.99,30.95-39.91,42.9-12.98,7.42-28.33,11.98-43.92,13.12l-.02,3.88h0v1.14c16.45-1.16,32.69-5.96,46.41-13.8,22.04-12.6,34.97-31.46,41.94-45.07l.1-.22ZM926.33,831.4c18.13,7.02,30.74,19.67,39.04,31.16,1.01,1.4,1.95,2.77,2.83,4.12l4.12-2.84c-.88-1.35-1.82-2.72-2.83-4.12-8.74-12.13-22.08-25.52-41.35-32.99-9.94-3.85-20.63-5.8-31.77-5.8-22.77,0-46.23,8.09-66.04,22.77-6.09,4.52-11.65,9.53-16.6,14.95-1.14,1.24-2.25,2.5-3.32,3.78l4.1,2.9c1.07-1.28,2.18-2.54,3.33-3.77,4.63-5,9.81-9.65,15.47-13.84,18.96-14.05,41.35-21.79,63.06-21.79,10.52,0,20.61,1.84,29.96,5.47ZM794.7,902.44c2.01-7.43,5.02-14.67,8.93-21.54.82-1.45,1.68-2.89,2.59-4.3l-4.1-2.89c-.9,1.41-1.76,2.84-2.59,4.29-4.23,7.36-7.5,15.13-9.66,23.13-9.85,36.42,2.43,78.1,30.55,103.74,20.7,18.86,44.03,24.46,61.72,25.45v-2.24s.03-2.77.03-2.77c-16.8-.98-38.84-6.33-58.38-24.14-26.77-24.4-38.47-64.08-29.09-98.73ZM1012.46,927.34c-1.05-43.45-25.62-99.31-77.09-119.25-12.25-4.75-25.37-7.16-39-7.16-27.03,0-54.71,9.49-77.95,26.71-23.7,17.57-40.7,41.82-47.86,68.27-5.73,21.2-5.42,44.04.89,66.05,6.45,22.45,18.72,42.39,35.5,57.69,21.82,19.89,50.75,30.85,81.45,30.85,22.48,0,45.24-5.93,64.08-16.7,26.69-15.25,42.07-37.91,50.28-54.23l.09-.19c6.8-16.98,10.04-34.49,9.61-52.04ZM888.4,1045.5c-29.45,0-57.18-10.49-78.09-29.55-32.16-29.32-46.2-77.04-34.92-118.74,1.8-6.66,4.22-13.1,7.2-19.28,20.23-42.16,65.9-72,113.78-72,13.01,0,25.52,2.3,37.19,6.82,3.81,1.48,7.46,3.16,10.96,5.02,41.87,22.32,62.01,71.07,62.94,109.69.41,16.83-2.69,33.64-9.21,49.96-7.91,15.7-22.69,37.43-48.25,52.04-18.1,10.34-39.98,16.04-61.6,16.04ZM969.49,859.72c-8.74-12.13-22.08-25.52-41.35-32.99-9.94-3.85-20.63-5.8-31.77-5.8-22.77,0-46.23,8.09-66.04,22.77-6.09,4.52-11.65,9.53-16.6,14.95-1.14,1.24-2.25,2.5-3.32,3.78l4.1,2.9c1.07-1.28,2.18-2.54,3.33-3.77,4.63-5,9.81-9.65,15.47-13.84,18.96-14.05,41.35-21.79,63.06-21.79,10.52,0,20.61,1.84,29.96,5.47,18.13,7.02,30.74,19.67,39.04,31.16,1.01,1.4,1.95,2.77,2.83,4.12l4.12-2.84c-.88-1.35-1.82-2.72-2.83-4.12ZM992.47,927.83c-.38-15.6-4.3-32.2-11.01-47.21-.69-1.55-1.41-3.08-2.16-4.59l-4.16,2.87c.74,1.51,1.45,3.05,2.13,4.61,6.22,14.17,9.85,29.77,10.2,44.44.34,13.83-2.18,27.71-7.48,41.24-6.67,13-18.99,30.95-39.91,42.9-12.98,7.42-28.33,11.98-43.92,13.12l-.02,3.88h0v1.14c16.45-1.16,32.69-5.96,46.41-13.8,22.04-12.6,34.97-31.46,41.94-45.07l.1-.22c5.57-14.2,8.22-28.77,7.87-43.31ZM794.7,902.44c2.01-7.43,5.02-14.67,8.93-21.54.82-1.45,1.68-2.89,2.59-4.3l-4.1-2.89c-.9,1.41-1.76,2.84-2.59,4.29-4.23,7.36-7.5,15.13-9.66,23.13-9.85,36.42,2.43,78.1,30.55,103.74,20.7,18.86,44.03,24.46,61.72,25.45v-2.24s.03-2.77.03-2.77c-16.8-.98-38.84-6.33-58.38-24.14-26.77-24.4-38.47-64.08-29.09-98.73ZM969.49,859.72c-8.74-12.13-22.08-25.52-41.35-32.99-9.94-3.85-20.63-5.8-31.77-5.8-22.77,0-46.23,8.09-66.04,22.77-6.09,4.52-11.65,9.53-16.6,14.95-1.14,1.24-2.25,2.5-3.32,3.78l4.1,2.9c1.07-1.28,2.18-2.54,3.33-3.77,4.63-5,9.81-9.65,15.47-13.84,18.96-14.05,41.35-21.79,63.06-21.79,10.52,0,20.61,1.84,29.96,5.47,18.13,7.02,30.74,19.67,39.04,31.16,1.01,1.4,1.95,2.77,2.83,4.12l4.12-2.84c-.88-1.35-1.82-2.72-2.83-4.12ZM992.47,927.83c-.38-15.6-4.3-32.2-11.01-47.21-.69-1.55-1.41-3.08-2.16-4.59l-4.16,2.87c.74,1.51,1.45,3.05,2.13,4.61,6.22,14.17,9.85,29.77,10.2,44.44.34,13.83-2.18,27.71-7.48,41.24-6.67,13-18.99,30.95-39.91,42.9-12.98,7.42-28.33,11.98-43.92,13.12l-.02,3.88h0v1.14c16.45-1.16,32.69-5.96,46.41-13.8,22.04-12.6,34.97-31.46,41.94-45.07l.1-.22c5.57-14.2,8.22-28.77,7.87-43.31ZM794.7,902.44c2.01-7.43,5.02-14.67,8.93-21.54.82-1.45,1.68-2.89,2.59-4.3l-4.1-2.89c-.9,1.41-1.76,2.84-2.59,4.29-4.23,7.36-7.5,15.13-9.66,23.13-9.85,36.42,2.43,78.1,30.55,103.74,20.7,18.86,44.03,24.46,61.72,25.45v-2.24s.03-2.77.03-2.77c-16.8-.98-38.84-6.33-58.38-24.14-26.77-24.4-38.47-64.08-29.09-98.73ZM969.49,859.72c-8.74-12.13-22.08-25.52-41.35-32.99-9.94-3.85-20.63-5.8-31.77-5.8-22.77,0-46.23,8.09-66.04,22.77-6.09,4.52-11.65,9.53-16.6,14.95-1.14,1.24-2.25,2.5-3.32,3.78l4.1,2.9c1.07-1.28,2.18-2.54,3.33-3.77,4.63-5,9.81-9.65,15.47-13.84,18.96-14.05,41.35-21.79,63.06-21.79,10.52,0,20.61,1.84,29.96,5.47,18.13,7.02,30.74,19.67,39.04,31.16,1.01,1.4,1.95,2.77,2.83,4.12l4.12-2.84c-.88-1.35-1.82-2.72-2.83-4.12ZM992.47,927.83c-.38-15.6-4.3-32.2-11.01-47.21-.69-1.55-1.41-3.08-2.16-4.59l-4.16,2.87c.74,1.51,1.45,3.05,2.13,4.61,6.22,14.17,9.85,29.77,10.2,44.44.34,13.83-2.18,27.71-7.48,41.24-6.67,13-18.99,30.95-39.91,42.9-12.98,7.42-28.33,11.98-43.92,13.12l-.02,3.88h0v1.14c16.45-1.16,32.69-5.96,46.41-13.8,22.04-12.6,34.97-31.46,41.94-45.07l.1-.22c5.57-14.2,8.22-28.77,7.87-43.31ZM794.7,902.44c2.01-7.43,5.02-14.67,8.93-21.54.82-1.45,1.68-2.89,2.59-4.3l-4.1-2.89c-.9,1.41-1.76,2.84-2.59,4.29-4.23,7.36-7.5,15.13-9.66,23.13-9.85,36.42,2.43,78.1,30.55,103.74,20.7,18.86,44.03,24.46,61.72,25.45v-2.24s.03-2.77.03-2.77c-16.8-.98-38.84-6.33-58.38-24.14-26.77-24.4-38.47-64.08-29.09-98.73Z"/>
  <path class="cls-2" d="M896.14,1029.09h0v1.14c-2.59.18-5.17.27-7.75.27-1.99,0-4.08-.05-6.26-.18v-2.24s.03-2.77.03-2.77c2.17.13,4.25.19,6.23.19,2.59,0,5.18-.1,7.76-.29l-.02,3.88Z"/>
  <path class="cls-2" d="M979.3,876.03l-4.16,2.87c-1.38-2.81-2.85-5.55-4.43-8.2-.77-1.3-1.61-2.64-2.51-4.02l4.12-2.84c.97,1.47,1.86,2.91,2.69,4.3,1.52,2.56,2.95,5.19,4.29,7.89Z"/>
  <path class="cls-2" d="M814.51,865.33c-3.05,3.6-5.82,7.36-8.29,11.27l-4.1-2.89c2.5-3.9,5.26-7.67,8.29-11.28l4.1,2.9Z"/>
</svg>