<?xml version="1.0" encoding="UTF-8"?>
<svg id="Volant_F1" data-name="Volant F1" xmlns="http://www.w3.org/2000/svg" viewBox="0 0 2000 2000">
  <defs>
    <style>
      .cls-1 {
        fill: #404147;
        stroke: #191919;
        stroke-miterlimit: 10;
        stroke-width: 6px;
      }
    </style>
  </defs>
  <path class="cls-1" d="M1011.63,892.7c-4.32-18.5-8.64-21.49-14.56-36.71-.23-.61-.9-2.33-2.53-3.8-1.54-1.39-3.14-1.83-6.33-2.53-8.84-1.94-12.05-1.93-13.29-1.9-1.77.04-3.69.21-5.7,1.27-.96.5-2.89,1.52-3.16,3.16-.29,1.75.96,3.18,1.9,4.43,3.8,5.06,8.5,11.71,9.49,15.19.99,3.47,1.16,7.11,1.27,9.49.18,4.01-.28,3.54,0,5.7.85,6.56,5.19,11.34,6.96,13.29,1.69,1.86,2.47,2.42,3.16,3.8,2.53,5.06,2.53,9.49,1.27,13.92-.25.9-.73,1.79-2.53,2.53-1.8.74-4.2.88-5.06.63-3.78-1.06-9.93-2.76-17.72-5.06-.44-.16-2.01-.66-3.8,0-1.42.52-2.22,1.49-2.53,1.9-2.3-1.46-5.54-3.45-9.49-5.7-2.54-1.44-13.61-7.68-22.78-11.39-6.97-2.82-19.4-6.83-37.4-7.57-.1,0-.19-.01-.28-.01-.1,0-.2,0-.29.01-18,.74-30.42,4.75-37.4,7.57-9.17,3.71-20.25,9.95-22.78,11.39-3.95,2.25-7.19,4.24-9.49,5.7-.31-.41-1.11-1.38-2.53-1.9-1.79-.66-3.35-.16-3.8,0-7.79,2.3-13.94,4-17.72,5.06-.87.25-3.27.11-5.06-.63-1.8-.74-2.28-1.63-2.53-2.53-1.27-4.43-1.27-8.86,1.27-13.92.69-1.38,1.47-1.94,3.16-3.8,1.77-1.96,6.11-6.73,6.96-13.29.28-2.16-.18-1.68,0-5.7.11-2.38.28-6.03,1.27-9.49.99-3.48,5.7-10.13,9.49-15.19.94-1.25,2.19-2.68,1.9-4.43-.28-1.65-2.21-2.66-3.16-3.16-2.01-1.06-3.92-1.22-5.7-1.27-1.24-.03-4.46-.04-13.29,1.9-3.19.7-4.79,1.15-6.33,2.53-1.63,1.47-2.3,3.19-2.53,3.8-5.92,15.21-10.23,18.21-14.56,36.71-2.41,10.31-5.72,24.46-3.8,43.04,1.28,12.4,4.35,21.41,6.96,29.11,2.37,6.97,4.96,12.66,15.19,32.91,2.2,4.35,6.11,11.44,8.86,14.56,8.07,9.15,18.82,11.86,22.15,12.66,6.04,1.44,10.85,1.31,12.66,1.27,12.99-.33,33.19-.27,60.18-.02.31,0,.61,0,.92.01.3,0,.61,0,.92-.01,26.99-.25,47.19-.31,60.18.02,1.81.04,6.61.18,12.66-1.27,3.34-.8,14.08-3.51,22.15-12.66,2.75-3.11,6.66-10.21,8.86-14.56,10.23-20.25,12.82-25.94,15.19-32.91,2.61-7.7,5.68-16.71,6.96-29.11,1.92-18.58-1.39-32.73-3.8-43.04ZM873.6,988.27c-.96,1.16-1.09,2.47-1.27,3.8-.03.25-.37,2.71-.63,3.8-.72,2.9-2.99,4.83-4.43,5.7-3.16,1.9-6.03,2.99-8.23,3.16-8.23.63-17.09,0-30.38-.63-2.01-.09-3.53-.99-5.7-1.9,0,0-16.46-8.86-24.68-27.85-.84-1.94-1.37-4.21-1.27-6.96.06-1.48.44-5.68,3.8-9.49,5.36-6.09,13.92-6.96,15.19-10.13.3-.75.09-1.48,0-1.9,6.96-2.53,13.92-5.06,22.15-6.96,3.3-.76,7.74-.25,12.66,1.9,5.27,2.3,8.47,5.82,10.13,8.23,6.96,10.13,11.39,30.38,13.29,38.61-.16.13-.39.34-.63.63ZM978.72,974.35c-8.23,18.99-24.68,27.85-24.68,27.85-2.16.9-3.69,1.8-5.7,1.9-13.29.63-22.15,1.27-30.38.63-2.2-.17-5.06-1.27-8.23-3.16-1.44-.87-3.72-2.8-4.43-5.7-.27-1.09-.6-3.54-.63-3.8-.18-1.33-.3-2.63-1.27-3.8-.24-.29-.47-.5-.63-.63,1.9-8.23,6.33-28.48,13.29-38.61,1.66-2.41,4.86-5.92,10.13-8.23,4.92-2.15,9.36-2.66,12.66-1.9,8.23,1.9,15.19,4.43,22.15,6.96-.09.42-.3,1.15,0,1.9,1.27,3.16,9.83,4.03,15.19,10.13,3.35,3.81,3.74,8.01,3.8,9.49.1,2.75-.42,5.03-1.27,6.96Z"/>
</svg>