<?xml version="1.0" encoding="UTF-8"?>
<svg id="Volant_Moderne" data-name="Volant Moderne" xmlns="http://www.w3.org/2000/svg" viewBox="0 0 2000 2000">
  <defs>
    <style>
      .cls-1 {
        fill: none;
        stroke: #191919;
        stroke-miterlimit: 10;
        stroke-width: 6px;
      }

      .cls-2 {
        fill: #191919;
      }

      .cls-3 {
        fill: #404147;
      }
    </style>
  </defs>
  <path class="cls-3" d="M796,924c14.67-.33,29.33-.67,44-1,.33-7,.67-14,1-21h-43c-.67,7.33-1.33,14.67-2,22Z"/>
  <path class="cls-3" d="M934,907c2.55,5.24,2.8,11.63,2.31,17.09-1.7-.03-3.39-.06-5.09-.09-.41-7-.81-14-1.22-21h1.44c1.02,1.25,1.87,2.58,2.56,4Z"/>
  <path class="cls-3" d="M942.31,924.21c.51-6.25.12-13.59-2.91-19.83-.23-.47-.47-.93-.73-1.38h43.89c.81,7.33,1.63,14.67,2.44,22-14.23-.26-28.46-.53-42.69-.79Z"/>
  <path class="cls-2" d="M905,954c-11.67-.67-23.33-1.33-35-2,.61,5.62,1.23,11.24,1.84,16.85,10.07,1.32,20.2,2.31,30.55,2.8.87-5.88,1.74-11.77,2.61-17.65Z"/>
  <path class="cls-3" d="M871.84,968.85c1.39,12.72,2.77,25.43,4.16,38.15,7,.33,14,.67,21,1,1.79-12.12,3.59-24.23,5.39-36.35-10.34-.49-20.48-1.47-30.55-2.8Z"/>
  <path class="cls-3" d="M1009.65,911.11c-4.69-58.89-55.39-108.85-119.65-108.11-68,.63-120.89,57.36-118,120,2,43.39,30.27,78.65,67.45,96.11,16.29,7.65,34.29,11.89,52.55,11.89,80,0,118-48,118-111,0-2.98-.12-5.95-.35-8.89ZM800,917c0-49.15,41.19-89,92-89s92,39.85,92,89-28,89-92,89c-50.81,0-92-39.85-92-89Z"/>
  <path class="cls-3" d="M934,936c-.87,2.81-3,13-11,16-19.3,7.24-55.62,5.36-72-4-3-1.71-5.05-4.22-6.51-7.05-1.95-3.78-2.84-8.13-3.49-11.95-1.34-7.84-1.04-17.02,1-22,8.37-20.48,68.9-25.65,88.15-5.48,1.57,1.66,2.88,3.48,3.85,5.48,5.37,11.05.56,27.17,0,29Z"/>
  <path class="cls-2" d="M936.31,924.09c-.55,6.04-2.02,10.95-2.31,11.91-.87,2.81-3,13-11,16-7.96,2.98-18.8,4.42-29.96,4.42-15.89,0-32.41-2.92-42.04-8.42-7-4-8.86-12.31-10-19-1.34-7.84-1.04-17.02,1-22,4.73-11.56,26.07-18.25,47.23-18.25,17.21,0,34.31,4.43,42.21,14.25h7.23c-7.15-12.71-25.46-20.25-49.44-20.25-21.8,0-46.58,6.8-52.78,21.98-2.77,6.76-2.68,17.57-1.36,25.28.96,5.68,2.98,17.51,12.93,23.2,10.09,5.77,26.92,9.21,45.02,9.21,12.42,0,23.81-1.71,32.07-4.8,10.09-3.79,13.21-14.86,14.38-19.02.1-.33.17-.61.24-.83.52-1.7,2.04-7.04,2.58-13.56-2-.04-4-.08-6-.12Z"/>
  <path class="cls-3" d="M942.31,924.21c-2-.04-4-.08-6-.12.49-5.46.24-11.85-2.31-17.09-.69-1.42-1.54-2.75-2.56-4h7.23c.26.45.5.91.73,1.38,3.03,6.24,3.42,13.58,2.91,19.83Z"/>
  <path class="cls-1" d="M773.44,887.33c-1.32,4.72-14.14,53.98,17.63,96.66,25.26,33.92,61.97,41.22,74.77,43.77,9.8,1.95,80.36,15.98,121.58-34.65,31.27-38.4,28.36-92.75,6.08-130.7-27.4-46.67-84.02-68.42-134.35-55.93-3.22.8-68.25,18.14-85.71,80.85Z"/>
  <path class="cls-1" d="M801.81,893.84c-1.01,3.69-10.85,42.14,13.53,75.46,19.38,26.48,47.55,32.18,57.37,34.17,7.52,1.52,61.66,12.47,93.29-27.05,23.99-29.98,21.76-72.41,4.66-102.04-21.02-36.43-64.47-53.42-103.08-43.66-2.47.62-52.37,14.16-65.77,63.12Z"/>
  <path class="cls-1" d="M870,956c2.33,15.67,4.67,31.33,7,47"/>
  <path class="cls-1" d="M905,957c-2.67,16-5.33,32-8,48"/>
  <line class="cls-1" x1="842" y1="901" x2="802" y2="901"/>
  <line class="cls-1" x1="838" y1="925" x2="802" y2="925"/>
  <line class="cls-1" x1="935" y1="901" x2="981" y2="901"/>
  <line class="cls-1" x1="937" y1="925" x2="981" y2="925"/>
  <path class="cls-1" d="M935,901c-12,0-12,7.8-12,13,0,6,0,11,14,11"/>
</svg>