<?xml version="1.0" encoding="UTF-8"?>
<svg id="Calque_2" data-name="Calque 2" xmlns="http://www.w3.org/2000/svg" viewBox="0 0 1643.67 551">
  <defs>
    <style>
      .cls-1 {
        fill: #fff;
      }

      .cls-2 {
        fill: #b8c9c3;
      }

      .cls-3 {
        fill: none;
      }

      .cls-4 {
        fill: #6e7882;
      }

      .cls-5 {
        fill: #191919;
      }
    </style>
  </defs>
  <g id="Calque_1-2" data-name="Calque 1">
    <path class="cls-4" d="M954.3,40.83c-1.1,28.01-.24,60.4-32.19,68.17-5.4,43.23-5.14,88.08-15.26,130.91,11.93-.96,21.78-10.4,22.86-22.72l7.6-98.54,14.8-13.76c4.03-3.74,7.28-8.16,9.65-13.01,2.38-4.85,3.86-10.14,4.34-15.6,1.25-20.26-6.42-30.7-11.78-35.46Z"/>
    <path class="cls-1" d="M885.89,33.8c-1.81.95-4.08,2.42-6.44,4.63-5.36,5.02-11.16,13.86-12.9,29.14-.96,10.93,2.18,21.85,8.8,30.6l12.18,16.12-7.6,98.54c-.52,5.9,1.07,11.49,4.12,16.05,3.02-39.46,7.24-78.27,9.05-117.89-23.18-21.39-22.5-52.32-7.21-77.2Z"/>
    <path class="cls-2" d="M949.39,37.43c-2.95-.26-5.54,1.92-5.8,4.86l-1.79,20.46c-1.18,13.51-13.09,23.51-26.61,22.32h-.05c-13.51-1.19-23.5-13.09-22.32-26.6l1.79-20.47c.13-1.47-.35-2.86-1.23-3.9-.88-1.05-2.16-1.76-3.64-1.89,0,0-1.55.38-3.85,1.59-15.29,24.88-15.96,55.8,7.21,77.2-1.8,39.62-6.03,78.43-9.05,117.89,4.06,6.07,10.74,10.32,18.59,11.01,1.42.12,2.83.12,4.2,0,10.12-42.82,9.85-87.67,15.26-130.91,31.96-7.77,31.09-40.16,32.19-68.17-2.76-2.45-4.91-3.4-4.91-3.4Z"/>
    <path class="cls-5" d="M889.75,32.21c1.48.13,2.76.84,3.64,1.89.88,1.05,1.36,2.43,1.23,3.9l-1.79,20.47c-1.18,13.51,8.81,25.42,22.32,26.6h.05c.73.07,1.45.1,2.17.1,12.6,0,23.32-9.64,24.44-22.42l1.79-20.46c.24-2.78,2.58-4.88,5.33-4.88.16,0,.31,0,.47.02,0,0,18.59,8.16,16.69,38.86-.48,5.46-1.96,10.75-4.34,15.6-2.37,4.85-5.62,9.27-9.65,13.01l-14.8,13.76-7.6,98.54c-1.14,13-12.04,22.8-24.85,22.8-.73,0-1.47-.03-2.21-.1-13.74-1.2-23.91-13.32-22.71-27.06l7.6-98.54-12.18-16.12c-6.63-8.76-9.76-19.67-8.8-30.6,1.73-15.28,7.53-24.12,12.9-29.14,5.36-5.02,10.29-6.22,10.29-6.22M888.98,22.1l-1.6.39c-1.25.3-7.83,2.15-14.75,8.64-6.12,5.73-13.86,16.51-16,35.32v.13s-.03.13-.03.13c-1.18,13.44,2.66,26.76,10.79,37.51l9.89,13.09-7.3,94.71c-.8,9.29,2.06,18.34,8.05,25.48,6.01,7.16,14.44,11.55,23.75,12.36,1.02.09,2.06.13,3.08.13,8.72,0,17.08-3.24,23.54-9.14,6.5-5.93,10.51-14.02,11.27-22.8v-.05s0-.05,0-.05l7.3-94.64,11.94-11.1c4.9-4.55,8.88-9.92,11.83-15.95,2.94-6,4.73-12.43,5.31-19.11v-.13s.02-.13.02-.13c2.3-37.23-21.64-48.18-22.66-48.63l-1.51-.66-1.64-.14c-.45-.04-.9-.06-1.34-.06-8.02,0-14.59,6.02-15.29,14.01l-1.79,20.46c-.65,7.45-7.01,13.29-14.48,13.29-.43,0-.87-.02-1.3-.06h0s-.05,0-.05,0c-7.99-.7-13.92-7.77-13.22-15.76l1.79-20.47c.36-4.09-.9-8.06-3.53-11.2-2.64-3.14-6.34-5.07-10.43-5.42l-1.64-.14h0Z"/>
    <g id="Calque_2-2" data-name="Calque 2">
      <path class="cls-5" d="M454.02,390.45c-1.42-36.28-19.58-63.35-22.83-68.06-8.35-12.12-26.32-45-66.41-55.77-39.43-10.59-75.3,7.05-80.93,9.45-75.03,32.02-75.8,130.46-75.74,137.06.11,14.03.69,41.53,18.68,70.9,2.84,4.63,39.6,62.82,95.46,65.22,71.63,3.09,134.57-87.29,131.77-158.81Z"/>
      <g>
        <path class="cls-5" d="M387.3,428.79c-.84,2.67-1.8,5.27-2.88,7.8-6.72,15.77-17.96,28.1-32.43,30.83-1.1.21-2.2.36-3.29.45-2.7.23-5.39.13-8.01-.26-12.07-1.75-23-9.3-29.64-16.76-3.44-3.86-6.12-8.15-8.13-12.73-1.11-2.5-2-5.09-2.7-7.74-4.29-16.12-1.48-34.53,5.8-49.98,1.15-2.46,2.42-4.85,3.8-7.13,2.9-4.86,6.28-9.28,10-13.08,3.28-3.33,14.08-14.32,27.65-16.65,2.59-.44,5.27-.57,8.03-.26.78.08,1.55.2,2.34.35,17.57,3.46,26.25,22.98,29.6,32.79.87,2.53,1.38,4.42,1.59,5.23.25.91.47,1.84.69,2.78,3.14,14.02,2.08,30.1-2.42,44.37Z"/>
        <path class="cls-2" d="M352.47,343.1c1,0,2.01.05,3.04.17.78.08,1.55.2,2.34.35,17.57,3.46,26.25,22.98,29.6,32.79.87,2.53,1.38,4.42,1.59,5.23.25.91.47,1.84.69,2.78,3.14,14.02,2.08,30.1-2.42,44.37-.84,2.67-1.8,5.27-2.88,7.8-6.72,15.77-17.96,28.1-32.43,30.83-1.1.21-2.2.36-3.29.45-.96.08-1.92.12-2.87.12-1.73,0-3.44-.13-5.13-.38-12.07-1.75-23-9.3-29.64-16.76-3.44-3.86-6.12-8.15-8.13-12.73-1.11-2.5-2-5.09-2.7-7.74-4.29-16.12-1.48-34.53,5.8-49.98,1.15-2.46,2.42-4.85,3.8-7.13,2.9-4.86,6.28-9.28,10-13.08,3.28-3.33,14.08-14.32,27.65-16.65,1.63-.28,3.29-.43,4.99-.43M352.47,327.07h0c-2.53,0-5.12.22-7.68.66-12.41,2.13-24.64,9.27-36.39,21.22-4.61,4.7-8.75,10.1-12.32,16.07-1.63,2.7-3.17,5.59-4.57,8.58-9.33,19.8-11.81,42.01-6.78,60.91.93,3.51,2.12,6.9,3.52,10.07,2.73,6.23,6.38,11.93,10.83,16.94,10.43,11.7,25.13,19.91,39.32,21.96,2.45.36,4.96.54,7.43.54,1.41,0,2.82-.06,4.22-.18,1.62-.13,3.28-.36,4.94-.67,10.13-1.91,19.35-6.92,27.4-14.87,6.82-6.74,12.47-15.3,16.79-25.42,1.25-2.91,2.4-6.04,3.42-9.26,5.49-17.44,6.48-36.16,2.77-52.7v-.05s-.02-.05-.02-.05c-.31-1.34-.57-2.38-.84-3.38-.23-.84-.85-3.14-1.89-6.2-8.29-24.28-23.09-39.67-41.66-43.33h-.02s-.02,0-.02,0c-1.27-.25-2.48-.43-3.69-.55-1.56-.17-3.16-.26-4.74-.26h0Z"/>
      </g>
      <path class="cls-2" d="M346.85,354.91l-2.36,43.2-.28,5.05-.24,4.43-.29,5.31-2.99,54.71v.08c-.14,2.21,1.56,4.1,3.77,4.22.08,0,.15,0,.22,0,2.12,0,3.88-1.65,4-3.79l.02-.26,2.99-54.75.3-5.35.22-4.13.3-5.62,2.35-43.04c-2.74-.32-5.42-.34-8.02-.08Z"/>
      <path class="cls-4" d="M355.5,343.27c-2.76-.3-5.44-.18-8.03.26l-.62,11.38c2.6-.26,5.28-.24,8.02.08l.64-11.64s0-.06,0-.08Z"/>
      <path class="cls-4" d="M309.82,373.27c-1.38,2.28-2.64,4.67-3.8,7.13l3.4,2.44c1.29-2.32,2.73-4.58,4.31-6.76l-3.91-2.81Z"/>
      <path class="cls-2" d="M397.22,435.89l-9.91-7.1-32.11-23.01-2.99-2.14-4.07-2.92-3.65-2.61-30.75-22.04c-1.58,2.18-3.02,4.45-4.31,6.76l31.34,22.46,3.21,2.3,3.85,2.76,3.87,2.77,32.74,23.47,8.13,5.82c.71.51,1.52.75,2.33.75,1.24,0,2.48-.59,3.25-1.67,1.29-1.8.88-4.3-.92-5.59Z"/>
      <path class="cls-2" d="M352.51,398.02l-4.38,2.7-3.93,2.44-3.45,2.13-40.54,25.09-7.39,4.57c-1.88,1.16-2.47,3.63-1.3,5.51.75,1.23,2.07,1.9,3.41,1.9.72,0,1.45-.19,2.11-.6l5.87-3.64,40.76-25.22,4.14-2.56,4.17-2.58,3.21-1.99,31.01-19.19c-.48-2.77-1.23-5.47-2.21-8.05l-31.48,19.48Z"/>
      <path class="cls-4" d="M389.03,381.63c-.22-.8-.73-2.69-1.59-5.23l-3.45,2.13c.99,2.58,1.73,5.28,2.21,8.05l3.52-2.18c-.22-.94-.44-1.87-.69-2.78Z"/>
      <path class="cls-2" d="M357.97,409.82c4.6-3.45,5.48-9.38,4.72-15.41-.92-2.04-2.31-3.86-4.4-5.11-6.72-4.03-15.29,1.08-16.33,1.72-8.7,5.35-9.41,15.48-9.46,16.33-.03.49-.1,1.9.08,3.76,7.1,5.35,17.93,4.92,25.38-1.3Z"/>
      <path class="cls-4" d="M362.7,394.41c.75,6.03-.12,11.96-4.72,15.41-7.46,6.21-18.28,6.64-25.38,1.3.39,3.99,1.94,10.03,7.66,13.43,4.99,2.96,11.49,2.94,16.33,0,7.01-4.26,7.49-12.78,7.74-17.19.15-2.66.46-8.35-1.62-12.94Z"/>
    </g>
    <ellipse class="cls-1" cx="346.58" cy="398.57" rx="6.89" ry="4.24" transform="translate(-168.43 281.36) rotate(-36.17)"/>
    <g>
      <path class="cls-1" d="M24.36,86.81l6.93,121.17c.67,10.7,2.71,16.19,8.43,18.46-6.64-52.98-8.5-106.69-8.6-159.61-6.02,2.95-7.45,8.69-6.76,19.98Z"/>
      <path class="cls-4" d="M68.11,187c3.39-1.27,6.79-2.53,10.18-3.65l-3.52.28,1.26-101.01c.12-9.87-1.28-15.24-5.86-17.74.8,41-2.05,81.09-2.05,122.13Z"/>
      <path class="cls-2" d="M121.08,181.37c-3.05-.77-7-.85-12.09-.47l-30.71,2.45c-3.39,1.12-6.79,2.38-10.18,3.65,0-41.04,2.85-81.13,2.05-122.13-3.22-1.75-8-2.1-14.93-1.58l-11.13.84c-5.72.42-9.94,1.21-12.98,2.7.1,52.92,1.96,106.63,8.6,159.61,3.27,1.29,7.73,1.53,13.83,1.07l56.91-4.2c6.18-.46,10.6-1.31,13.71-3.04,1.09-13.3-.36-26.13-3.09-38.91Z"/>
      <path class="cls-4" d="M130.62,200.22c-.29-11.71-2.53-17.09-9.54-18.85,2.73,12.78,4.18,25.61,3.09,38.91,5.46-3.04,6.85-8.82,6.45-20.06Z"/>
      <path class="cls-4" d="M283.56,202.95l-42.63-122.43c-3.96-11.3-7.62-16.24-15.34-17.76,20.51,51.69,38.39,105.12,53.62,159.47,7.57-2.27,8.46-7.74,4.35-19.27Z"/>
      <path class="cls-2" d="M225.59,62.75c-3.33-.66-7.4-.68-12.59-.3-10.74.77-18.2,1.85-23.56,3.71-19.99,49.91-34.85,102.32-42.99,155.68,2.72.87,6.44,1.1,11.32.85l6.09-.42c21.21-1.47,22.05-4.83,24.99-21.63l2.31-12.81,40.53-1.47,4.62,18.06c4.2,16.59,5.04,20.79,26.25,19.53l6.93-.42c4.01-.16,7.22-.56,9.72-1.31-15.23-54.35-33.11-107.78-53.62-159.47ZM196.83,158.64l11.97-49.56,15.54,49.56h-27.51Z"/>
      <path class="cls-1" d="M174.36,85.55l-32.13,117.81c-2.93,11-2.07,16.46,4.22,18.48,8.15-53.36,23-105.77,42.99-155.68-9.31,3.24-12.29,8.86-15.08,19.39Z"/>
      <path class="cls-1" d="M353.51,65.09c-6.42,2.21-8.51,7.71-8.79,18.99l-2.94,120.12c-.26,10.7,1.14,16.41,6.39,19.65.63-52.66-4.56-107.04,5.34-158.76Z"/>
      <path class="cls-4" d="M426.11,165c-10,14-31-1-48,4,.83,19.05-1.77,38.79-2.12,58.07,5.69-2.03,7.44-7.48,7.58-18.03l.21-36.54,29.82,1.47c15.54.63,19.11-3.15,19.11-18.69,0-9.96-1.6-15.22-6.5-17.98,3.22,10.36,4.41,22.29-.1,27.71Z"/>
      <path class="cls-2" d="M380.11,107c17-10,43,6,58-6,6.61-5.67,4.3-20.25,1.5-31.97-3.12-1.63-7.52-2.36-13.62-2.59l-59.64-2.52c-5.52-.21-9.7.09-12.84,1.17-9.9,51.72-4.71,106.1-5.34,158.76,3.1,1.91,7.54,2.96,13.77,3.66,6.27.76,10.8.72,14.05-.45.35-19.29,2.94-39.02,2.12-58.07,17-5,38,10,48-4,4.51-5.42,3.32-17.34.1-27.71-3.06-1.73-7.4-2.49-13.45-2.81l-13.37-.69c-7.5,1.15-15.1,2.39-18.28-.79-5-6-5-24-1-26Z"/>
      <path class="cls-4" d="M439.6,69.03c2.8,11.71,5.11,26.3-1.5,31.97-15,12-41-4-58,6-4,2-4,20,1,26,3.18,3.18,10.78,1.94,18.28.79l-14.98-.78v-24.78l40.32,2.1c16.8.84,21.21-3.15,21.63-19.95v-2.1c.27-10.71-1.26-16.38-6.76-19.25Z"/>
      <path class="cls-1" d="M464.55,85.55l-32.13,117.81c-2.7,10.13-2.18,15.57,2.83,17.93,15.89-50.91,21.57-105.75,43.24-154.71-8.41,3.3-11.26,8.88-13.94,18.96Z"/>
      <path class="cls-2" d="M515.89,62.77c-3.34-.68-7.45-.7-12.69-.32-11.53.82-19.27,2.01-24.7,4.14-21.66,48.96-27.34,103.81-43.24,154.71,2.78,1.31,6.94,1.69,12.71,1.39l6.09-.42c21.21-1.47,22.05-4.83,24.99-21.63l2.31-12.81,40.53-1.47,4.62,18.06c4.2,16.59,5.04,20.79,26.25,19.53l6.93-.42c5.56-.22,9.6-.9,12.3-2.34-20.5-52.43-32.5-107.92-56.1-158.42ZM487.03,158.64l11.97-49.56,15.54,49.56h-27.51Z"/>
      <path class="cls-4" d="M573.76,202.95l-42.63-122.43c-3.95-11.25-7.59-16.2-15.24-17.74,23.6,50.5,35.6,105.99,56.1,158.42,5.14-2.73,5.36-8.18,1.77-18.24Z"/>
      <path class="cls-4" d="M719.96,171.03c0-22.26-17.64-33.18-43.05-35.49,16.8-11.34,26.46-21.84,26.46-36.12,0-19.13-20.79-30.34-50.09-33.12,18.34,7.94,40.38,15.59,37.83,37.71-2,16-20,23-30,34,18,6,42,9,48,28,5.19,15.58-1.28,28.83-11.52,39.56,13.55-8.57,22.37-20.05,22.37-34.53Z"/>
      <path class="cls-2" d="M709.11,166c-6-19-30-22-48-28,10-11,28-18,30-34,2.55-22.12-19.49-29.76-37.83-37.71-4.8-.45-9.81-.69-15.01-.69-12.81,0-25.83,1.47-38.01,3.78-5.29,1.04-9.28,2.32-12.22,4.14-.79,49.77,1.22,99.53,7.79,149.3,1.97.69,4.38,1.11,7.37,1.33,4.62.42,9.66.63,14.7.63,28.04,0,59.25-6.31,79.69-19.23,10.24-10.73,16.71-23.97,11.52-39.56ZM623.14,100.25c4.41-2.31,9.66-3.36,14.28-3.36,11.55,0,20.16,4.83,20.16,14.28,0,10.92-14.49,19.32-31.71,19.74l-2.73-30.66ZM633.22,190.35l-2.94-27.93c5.04-2.31,12.18-3.57,19.11-3.57,11.34,0,19.53,3.36,19.53,12.18,0,11.76-16.8,18.9-35.7,19.32Z"/>
      <path class="cls-1" d="M588.03,73.53c-5.94,3.68-7.6,9.61-6.89,20.43l6.93,114.87c.46,8.14,2.4,12.12,7.75,14-6.57-49.77-8.58-99.53-7.79-149.3Z"/>
      <path class="cls-1" d="M736,68.93c-6.33,3.24-8.36,9.13-8.07,20.2l3.15,119.49c.29,11.59,2.64,17.23,9.55,18.51-8.15-52.18-6.48-105.18-4.62-158.2Z"/>
      <path class="cls-4" d="M838.11,126c-6,12-18,19-30,26,6,7,10,14,16,22,3,3,6,8,9,11,6.92,7.78,11.6,16.31,17.91,24.3,3.98-4.9,2.35-10.35-4.22-19.16l-26.46-34.86c18.48-12.6,29.19-27.09,29.19-44.73,0-24.95-20.04-38.32-46.7-43.55,21.51,13.7,48.31,32.02,35.28,59Z"/>
      <path class="cls-2" d="M833.11,185c-3-3-6-8-9-11-6-8-10-15-16-22,12-7,24-14,30-26,13.03-26.98-13.77-45.31-35.28-59-9.24-1.81-19.26-2.65-29.53-2.65-8.19,0-16.8.42-24.99,1.47-5.24.61-9.26,1.56-12.3,3.11-1.86,53.02-3.53,106.02,4.62,158.2,2.98.55,6.79.29,11.66-.66l4.2-.84c16.59-3.36,20.37-7.14,18.48-23.94l-2.52-22.89c5.04-1.68,11.55-4.2,17.22-7.35l16.8,39.27c6.72,15.33,12.18,17.43,27.09,9.66l7.14-3.78c4.91-2.53,8.31-4.84,10.31-7.3-6.31-7.99-10.99-16.52-17.91-24.3ZM767.83,142.04l-4.62-38.22c6.09-1.89,15.12-3.99,23.31-3.99,10.5,0,19.74,3.57,19.74,15.75,0,13.23-17.22,23.1-38.43,26.46Z"/>
      <path class="cls-1" d="M999.96,82.21c-19.92,17.7-30.32,45.87-30.32,72.86s9.62,50.85,29.74,64.33c-32.25-38.15-28.03-96.72.58-137.19Z"/>
      <path class="cls-4" d="M1101.11,170c-.71,2.12,6.61,3.25,13.78,4.79l-7.27-4.39c4.62-12.6,7.35-26.25,7.35-39.27,0-29.9-13.72-56.96-46.29-64.75,30.72,23.31,41.53,62.64,32.42,103.63Z"/>
      <path class="cls-2" d="M1084.11,196c7,5,15,12,22,11,10.94-1.68,17.62-13.27,18.88-25.25-1.83-1.69-4.25-3.41-7.29-5.27l-2.81-1.7c-7.17-1.54-14.49-2.66-13.78-4.79,9.11-40.99-1.7-80.31-32.42-103.63-6.09-1.46-12.84-2.24-20.29-2.24-19.74,0-35.95,6.98-48.43,18.08-28.62,40.47-32.83,99.03-.58,137.19,9.77,6.55,22,10.43,36.84,10.43,6.29,0,12.3-.97,18-2.74,12.39-7.4,22.8-18.2,29.89-31.09ZM1055.33,176.7l3.78,3.15c-5.04,3.57-10.71,5.67-16.8,5.67-20.79,0-30.24-15.12-30.24-32.13,0-21.21,15.12-45.36,42-45.36,18.48,0,26.04,12.81,26.04,28.14,0,5.25-1.05,10.71-2.52,15.96l-5.88-3.57c-10.29-6.3-14.28-5.25-20.37,5.25-6.09,10.92-5.46,14.91,3.99,22.89Z"/>
      <path class="cls-4" d="M1124.98,181.75c-1.25,11.97-7.94,23.56-18.88,25.25-7,1-15-6-22-11-7.09,12.88-17.5,23.69-29.89,31.09,12.96-4.04,24.32-12.3,33.66-23.09l4.2,3.36c13.02,10.71,18.69,10.29,29.4-2.73,8.9-10.87,10.16-16.71,3.5-22.87Z"/>
      <path class="cls-4" d="M1262.04,112.22c0-10.29-.42-20.58-1.26-30.24-1.13-11.15-3.88-15.95-11.69-16.91,7.23,55.77,2.77,121.5-35.87,163.72,36.9-12.05,48.82-65.86,48.82-116.58Z"/>
      <path class="cls-1" d="M1142.53,64.2c-7.84,1.36-10.69,6.94-11.75,18.84-.84,9.24-1.47,18.69-1.47,26.88,0,47.72,11.55,90.49,35.7,110.08-23.51-47.75-34.64-103.95-22.48-155.8Z"/>
      <path class="cls-2" d="M1249.09,65.08c-2.34-.29-5.13-.23-8.47.11-15.54,1.26-18.48,5.04-17.01,20.16.84,8.61,1.47,18.06,1.47,27.93,0,35.49-5.88,60.48-24.36,60.48-16.38,0-23.52-26.04-23.52-64.89,0-6.3.42-13.86,1.05-21,1.89-17.43-.84-20.79-18.27-22.68l-6.3-.84c-4.54-.57-8.19-.66-11.14-.15-12.16,51.85-1.03,108.06,22.48,155.8,8.91,7.22,19.53,11.3,31.92,11.3,5.9,0,11.32-.88,16.28-2.5,38.64-42.22,43.1-107.96,35.87-163.72Z"/>
      <path class="cls-4" d="M1370.22,75.05c-.93-10.89-3.26-15.44-10.2-16.38,3.83,9.3,7.9,20.22,1.08,25.33-14,11-38,1-51,12-5,4,1,19,0,29,1.57-1.89,3.54-3.08,5.72-3.86l-2.09-21.3,39.9-4.62c14.28-1.68,17.64-5.67,16.59-20.16Z"/>
      <path class="cls-4" d="M1320.03,155.07l27.72-2.31c13.23-1.26,16.17-4.83,14.91-18.06-.94-10.15-3.16-14.38-9.76-15.45,2.71,9.58,8.47,21.27,2.2,25.75-9,8-30,1-39,9-6,5-1,19,1,29,2.87-2.39,5.98-4.1,9.09-5.55l-3.01.3-3.15-22.68Z"/>
      <path class="cls-1" d="M1271.52,89.54l8.61,111.72c.89,12.02,3.36,17.54,10.74,19.81-10.39-49.23-10.92-100.72-13.47-151.5-5.48,3.25-6.69,8.97-5.87,19.96Z"/>
      <path class="cls-2" d="M1373.76,175.31c-3.34-1.59-8.1-1.81-14.87-1.13l-32.69,3.27c-3.11,1.46-6.21,3.16-9.09,5.55-2-10-7-24-1-29,9-8,30-1,39-9,6.27-4.48.51-16.17-2.2-25.75-2.28-.37-5.07-.36-8.51-.09l-28.56,2.1v-.12c-2.19.78-4.16,1.98-5.73,3.86,1-10-5-25,0-29,13-11,37-1,51-12,6.81-5.11,2.75-16.03-1.08-25.33-2.43-.33-5.42-.22-9.12.21l-60.27,7.14c-5.95.74-10.23,1.78-13.24,3.56,2.55,50.78,3.08,102.27,13.47,151.5,3.06.94,6.96,1.34,11.94,1.4l50.91.91c6.89-1.4,13.14-3.66,17.39-8.38,9.06-9.06,4.98-25.52,2.65-39.69Z"/>
      <path class="cls-4" d="M1381.56,202.74l-.42-9.66c-.63-10.02-2.45-15.41-7.39-17.77,2.33,14.17,6.41,30.63-2.65,39.69-4.25,4.72-10.5,6.99-17.39,8.38l8.11.14c16.8.21,20.37-3.99,19.74-20.79Z"/>
      <path class="cls-4" d="M113.89,421.97l-2.4,11.05-22.68-130.65c-2.98-17.01-7.03-25.47-16.34-28.49,13.41,57.1,25.03,115.07,36.63,172.11,5.13-7.33,4.89-15.73,4.79-24.03Z"/>
      <path class="cls-1" d="M17.11,311c-1.63-9.77-2.57-18.88-2.34-27.87-5.76,5.61-5.93,14.53-2.45,29.4l43.66,182.1c3.65,15.19,7.64,23.93,15.48,29.15-.56-1.2-1.02-2.43-1.36-3.78-17-73-37-136-53-209Z"/>
      <path class="cls-2" d="M188.32,274.29l-7.78-1.02c-27.42-3.72-35.2,3.38-40.95,30.46l-25.69,118.24c.1,8.3.34,16.7-4.79,24.03-11.6-57.04-23.22-115-36.63-172.11-5.51-1.79-12.86-1.67-22.93-.28l-11.51,1.35c-11.47,1.6-18.95,3.95-23.27,8.16-.24,8.99.71,18.1,2.34,27.87,16,73,36,136,53,209,.34,1.35.8,2.58,1.36,3.78,5.97,3.97,14.16,5.9,26.15,7.07h3.05c7.01.68,12.76.87,17.6.34,1.74-1.45,3.09-3.16,3.85-5.19,36.31-79.48,64.89-161.86,86.74-246.17-4.34-2.71-11.05-4.33-20.52-5.54Z"/>
      <path class="cls-4" d="M208.84,279.83c-21.85,84.31-50.43,166.69-86.74,246.17-.76,2.03-2.11,3.74-3.85,5.19,14.3-1.56,20.5-9.38,27.08-29.11l66-192.93c5.43-16.07,5.27-24.47-2.5-29.32Z"/>
      <path class="cls-4" d="M569.11,523c-1.69,4.5-6.22,7.41-11.64,9.46,17.65-.04,22.8-7.53,24.24-30.05l.68-9.14c.87-12.44-.65-18.96-7.1-22.3.66,17.79-.59,36.21-6.18,52.03Z"/>
      <path class="cls-1" d="M471.15,278.72c-9.31,3.69-11.77,11.65-11.3,28.06v3.05c.42,13.29,2.62,20.33,9.34,23.79-3.97-17.54,1.53-36.74,1.96-54.89Z"/>
      <path class="cls-1" d="M463.11,475c4-9,18-8,27-4,0-45,5-89,5-134,0-.67-3.59,0-7.17-.08l-5.06,125.22c-23.02-1.35-28.77,3.72-30.46,26.4l-.34,3.05c-1,11.99-.11,19.71,3.95,24.75-1.08-14.09,1.28-28.05,7.08-41.33Z"/>
      <path class="cls-2" d="M593.97,275.66c-4.9-2.73-12.1-3.47-22.41-3.06l-83.6,3.38c-7.18.31-12.66,1.11-16.8,2.74-.42,18.16-5.92,37.35-1.96,54.89,3.65,1.88,8.62,2.71,15.37,2.9-.52-.13-1.02-.3-1.46-.52.44.22.94.39,1.46.52,1.08.03,2.21.05,3.39.05v.36c3.56.08,7.16-.59,7.16.08,0,45-5,89-5,134-9-4-23-5-27,4-5.81,13.28-8.16,27.25-7.08,41.33,4.19,5.21,11.76,7.56,24.14,8.76l67.02,6.77c3.83.4,7.24.61,10.29.6,5.42-2.05,9.95-4.96,11.64-9.46,5.58-15.82,6.83-34.23,6.18-52.03-3.55-1.84-8.6-2.72-15.58-3.08l.05-.75c-3.88.13-7.77.41-11.65,1.86,2-46-2-94,15-137,1-3,21,2,25-6,9.02-14.43,5.84-32.92,5.86-50.34Z"/>
      <path class="cls-4" d="M593.97,275.66c-.02,17.43,3.16,35.92-5.86,50.34-4,8-24,3-25,6-17,43-13,91-15,137,3.88-1.46,7.77-1.73,11.65-1.86l9.09-130.57c27.08,0,33.51-6.43,34.18-32.49.41-15.82-1.75-24.34-9.06-28.42Z"/>
      <path class="cls-1" d="M627.2,273.87c-10.48,3.24-13.54,12.1-13.77,30.54l-.34,22.68c-.25,19.75,3.48,28.51,16.01,31.02-14-25.04-11.06-57.32-1.9-84.24Z"/>
      <path class="cls-1" d="M686.11,356c-2.82,0-5.63.23-8.45.56l.42-.03-4.06,150.28c-.44,17.27,2.24,26.06,11.3,29.21-4.08-60.24-2.98-119.69.79-180.03Z"/>
      <path class="cls-2" d="M802.93,283.96c-4.53-1.79-10.49-2.73-18.24-3.24l-137.42-8.12c-8.64-.54-15.16-.25-20.07,1.27-9.16,26.92-12.1,59.2,1.9,84.24,4.65.93,10.51,1.01,17.84.46l30.72-2c2.82-.34,5.63-.56,8.45-.56-3.77,60.34-4.87,119.79-.79,180.03,4.97,1.73,11.85,1.77,21.2.57l6.43-.68c7.03-.88,12.64-2.01,17.08-3.69,15.76-59.38-4.37-124.46,1.08-186.24,25-2,56,2,71-14,11.25-10.38,6.77-30.5.83-48.04Z"/>
      <path class="cls-4" d="M802.93,283.96c5.94,17.54,10.42,37.65-.83,48.04-15,16-46,12-71,14-5.45,61.78,14.68,126.85-1.08,186.24,12.67-4.77,15.82-13.93,15.07-34.22l-5.42-145.88,43.32-3.05c25.72-1.69,31.82-8.12,32.49-33.85.71-18.44-2.06-27.13-12.56-31.28Z"/>
      <path class="cls-4" d="M919.11,442c8,8,24,11,35,5,4.63-2.49,7.47-6.12,9.32-10.35-5.73,7.48-13.18,11.61-22.71,11.61-26.4,0-37.91-41.97-37.91-104.59,0-10.15.68-22.34,1.69-33.85,1.86-17.15.93-25.84-6.45-30.71-1.16,54.92-19.67,119.24,21.06,162.88Z"/>
      <path class="cls-2" d="M1021.67,273.62c-4.32-1-9.75-1.04-16.64-.35-25.05,2.03-29.79,8.12-27.42,32.49,1.35,13.88,2.37,29.11,2.37,45.02,0,38.9-4.39,69.96-16.56,85.86-1.85,4.23-4.69,7.86-9.32,10.35-11,6-27,3-35-5-40.73-43.64-22.22-107.96-21.06-162.88-4.71-3.11-12.05-4.66-22.99-5.85l-10.15-1.35c-9.84-1.25-17.1-1.06-22.48.97-11.96,73.36-12.02,154.04,17.27,222.81,17.76,28.11,42.61,45.3,74.94,45.3,11.11,0,21.14-1.91,30.2-5.43,31.41-26.33,47.39-68.57,55.28-109.57,10.2-51.92,15.23-102.98,1.56-152.38Z"/>
      <path class="cls-1" d="M842.42,272.89c-9.24,3.49-12.91,12.47-14.41,29.15-1.35,14.89-2.37,30.12-2.37,43.32,0,59.36,11.09,113.98,34.05,150.33-29.29-68.77-29.23-149.45-17.27-222.81Z"/>
      <path class="cls-4" d="M1037.52,300.35c-1.67-16.47-5.54-24.34-15.85-26.73,13.67,49.4,8.64,100.46-1.56,152.38-7.89,41-23.87,83.24-55.28,109.57,56.38-21.91,74.72-106.58,74.72-186.48,0-16.59-.68-33.17-2.03-48.74Z"/>
      <path class="cls-4" d="M1242.54,474.66l-42.65-56.19c29.78-20.31,47.05-43.66,47.05-72.09,0-37.66-28.32-58.95-67.2-68.43,22.77,10.23,42.39,25.54,49.37,52.04,10,38-22,67-52,84,25,22,43,52,60,82,3.39,6.36,3.18,12.36,1.37,18.15,18.16-10.73,18.58-20.04,4.07-39.49Z"/>
      <path class="cls-4" d="M1108.11,455c6.72,23.51,13.43,54.07-1.18,74.52,18.31-5.16,22.48-12.91,19.85-36.24l-4.06-36.89c3.97-1.32,8.51-2.98,13.18-4.91-9.01,2.06-18.17,4.21-27.8,3.53Z"/>
      <path class="cls-1" d="M1062.7,280c-9.2,5.35-12.17,14.78-11.73,31.86l5.08,192.59c.43,16.98,3.6,26.03,12.52,29.09-1.97-65.84-4.63-131.69-6.46-197.53-.86-18.98-.24-37.22.59-56Z"/>
      <path class="cls-2" d="M1237.11,496c-17-30-35-60-60-82,30-17,62-46,52-84-6.97-26.5-26.6-41.81-49.37-52.04-17.03-4.15-36.07-6.04-55.66-6.04-13.2,0-27.08.68-40.28,2.37-9.2,1.08-16.08,2.79-21.1,5.71-.83,18.78-1.46,37.02-.59,56,1.83,65.84,4.49,131.69,6.46,197.53,5.13,1.76,12.15,1.54,21.67-.32l6.77-1.35c3.7-.75,6.99-1.51,9.93-2.34,14.6-20.44,7.89-51,1.18-74.52,9.63.69,18.79-1.46,27.8-3.53,4.88-2.02,9.9-4.34,14.57-6.94l27.08,63.29c10.83,24.71,19.63,28.09,43.66,15.57l11.51-6.09c2.09-1.07,3.99-2.12,5.75-3.16,1.82-5.79,2.03-11.79-1.37-18.15ZM1115.28,397.15l-7.45-61.6c9.82-3.05,24.37-6.43,37.57-6.43,16.92,0,31.82,5.75,31.82,25.39,0,21.32-27.75,37.23-61.94,42.65Z"/>
      <path class="cls-4" d="M1416.76,289.18c-1.59-18.55-5.67-25.69-18.42-26.61,5.31,14.99,13.93,35.96,3.77,42.43-25,14-58,9-87,16-2,16,5,32,4,48,7.51-.63,14.62-3.6,21.84-6.23l-11.85.87-3.38-34.52,64.31-7.45c23.02-2.71,28.43-9.14,26.74-32.49Z"/>
      <path class="cls-1" d="M1265.98,281.1c-7.84,5.35-9.55,14.53-8.3,31.43l13.88,180.07c1.14,15.42,3.89,24.21,10.96,29-8.73-79.85-18.99-159.72-16.54-240.49Z"/>
      <path class="cls-2" d="M1418.41,449.34c-5-1.23-11.5-1.24-19.93-.4l-50.31,5.03c-5.35,1.11-10.71,2.6-16.07,5.03-1-16-4-32-6-48,22-7,53,4,65-14,6.11-8.73,3.07-23.56-1.79-36.51-3.75-.67-8.4-.69-14.19-.24l-34.18,2.51c-7.21,2.63-14.33,5.6-21.84,6.23,1-16-6-32-4-48,29-7,62-2,87-16,10.16-6.47,1.55-27.45-3.77-42.43-3.53-.26-7.73-.04-12.72.55l-97.14,11.51c-10.38,1.3-17.62,3.15-22.5,6.48-2.45,80.78,7.8,160.65,16.54,240.49,5.5,3.73,13.6,5.04,25.59,5.19l80.19,1.43c11.29-2.58,21.77-6.18,28.8-13.21,14.07-16.89,7.9-43.45,1.31-65.66Z"/>
      <path class="cls-4" d="M1435.04,494.97l-.68-15.57c-1.17-18.64-4.9-27.34-15.95-30.06,6.6,22.21,12.77,48.78-1.31,65.66-7.04,7.04-17.51,10.63-28.8,13.21l14.92.27c27.08.34,32.83-6.43,31.82-33.51Z"/>
      <path class="cls-4" d="M1335.86,418.14l44.68-3.72c21.32-2.03,26.06-7.78,24.03-29.11-1.49-16.12-4.98-22.96-15.26-24.81,4.86,12.94,7.9,27.77,1.79,36.51-12,18-43,7-65,14,2,16,5,32,6,48,5.35-2.43,10.71-3.92,16.07-5.03l-7.23.72-5.08-36.55Z"/>
    </g>
    <g>
      <path class="cls-5" d="M60.52,63.07c12.41,0,15.68,4.67,15.5,19.54l-1.26,101.01,34.23-2.73c1.92-.14,3.69-.22,5.3-.22,12.46,0,15.96,4.67,16.33,19.54.63,17.64-3.15,21.84-20.16,23.1l-56.91,4.2c-1.87.14-3.58.22-5.15.22-12.59,0-16.17-4.81-17.11-19.75l-6.93-121.17c-1.05-17.01,2.73-21.42,19.74-22.68l11.13-.84c1.92-.14,3.69-.22,5.29-.22M60.52,53.07c-1.82,0-3.79.08-6.04.25l-11.13.84c-8.74.65-17.64,2.17-23.44,8.85-5.77,6.65-6.07,15.67-5.53,24.42l6.93,121.13v.03s0,.03,0,.03c.45,7.24,1.58,15.44,6.52,21.29,5.91,7.02,14.57,7.83,20.57,7.83,1.79,0,3.72-.08,5.9-.24l56.9-4.2c8.76-.65,17.67-2.16,23.48-8.79,5.75-6.56,6.26-15.69,5.94-24.59-.37-14.47-3.8-29.24-26.32-29.24-1.82,0-3.8.08-6.05.25l-23.35,1.86,1.12-90.05c.11-8.52-.62-17.24-6.61-23.31-5.63-5.7-13.47-6.36-18.88-6.36h0Z"/>
      <path class="cls-5" d="M219,62.2c12.51,0,16.98,4.19,21.93,18.31l42.63,122.43c5.46,15.33,2.1,19.95-14.07,20.58l-6.93.42c-2.29.14-4.34.21-6.19.21-15.25,0-16.32-4.94-20.06-19.74l-4.62-18.06-40.53,1.47-2.31,12.81c-2.94,16.8-3.78,20.16-24.99,21.63l-6.09.42c-1.24.06-2.4.1-3.5.1-13.18,0-15.92-4.87-12.05-19.42l32.13-117.81c4.41-16.59,9.24-21,38.64-23.1,2.19-.16,4.18-.25,6-.25M196.83,158.64h27.51l-15.54-49.56-11.97,49.56M219,52.2v10-10c-2,0-4.2.09-6.73.28-14.77,1.06-25.51,2.7-33.31,7.64-9.07,5.74-12.12,14.79-14.26,22.84l-32.12,117.78v.03s-.01.03-.01.03c-2.17,8.12-3.65,17.38,1.77,24.43,5.21,6.78,13.87,7.56,19.94,7.56,1.24,0,2.59-.04,4.01-.11h.08s.08-.01.08-.01l6.09-.42c11.93-.83,19.95-2.38,25.61-7.86,5.64-5.45,6.92-12.76,8.54-22l.88-4.86,24.43-.89,2.62,10.25.12.49c3.78,14.96,6.77,26.77,29.63,26.77,2,0,4.22-.07,6.78-.23l6.84-.41c8.52-.34,17.89-1.72,22.97-9.22,5.08-7.52,2.88-16.68.04-24.67l-42.62-122.41c-5.56-15.85-12.47-25.02-31.37-25.02h0ZM209.53,148.64l.52-2.15.67,2.15h-1.19Z"/>
      <path class="cls-5" d="M363.25,63.86c.98,0,2.01.02,3.1.06l59.64,2.52c16.8.63,20.79,5.04,20.37,21.84v2.1c-.39,15.43-4.14,20.06-17.77,20.06-1.21,0-2.49-.04-3.86-.1l-40.32-2.1v24.78l28.35,1.47c15.75.84,19.95,4.62,19.95,20.79,0,14.49-3.1,18.76-16.12,18.76-.94,0-1.94-.02-2.99-.07l-29.82-1.47-.21,36.54c-.18,13.95-3.18,18.99-14.37,18.99-2.12,0-4.52-.18-7.26-.51-16.8-1.89-20.58-6.3-20.16-23.31l2.94-120.12c.39-15.72,4.28-20.22,18.53-20.22M363.25,53.86c-7.02,0-15.85.85-21.87,7.5-5.52,6.09-6.46,14.78-6.66,22.47l-2.94,120.13c-.21,8.63.37,17.53,6.05,24.11,5.71,6.61,14.4,8.42,22.94,9.38,3.22.39,5.97.58,8.42.58,24,0,24.26-20.23,24.37-28.87v-.03s0-.03,0-.03l.15-26.1,19.39.96h.04s.04,0,.04,0c1.22.05,2.33.07,3.4.07,6.67,0,15.04-.86,20.62-7.54,4.84-5.79,5.5-13.62,5.5-21.22s-.82-16.93-6.94-23.15c-5.86-5.96-14.27-7.18-22.48-7.62l-18.88-.98v-4.75l29.8,1.55c1.6.08,3.03.12,4.38.12,6.84,0,15.46-.87,21.39-7.67,5.28-6.06,6.19-14.59,6.38-22.14v-.12s0-.12,0-.12v-1.98c.21-8.63-.44-17.49-6.4-23.91-6.05-6.52-14.92-7.72-23.6-8.05l-59.59-2.52c-1.29-.05-2.42-.07-3.52-.07h0Z"/>
      <path class="cls-5" d="M509.2,62.2c12.51,0,16.98,4.19,21.93,18.31l42.63,122.43c5.46,15.33,2.1,19.95-14.07,20.58l-6.93.42c-2.29.14-4.34.21-6.19.21-15.25,0-16.32-4.94-20.06-19.74l-4.62-18.06-40.53,1.47-2.31,12.81c-2.94,16.8-3.78,20.16-24.99,21.63l-6.09.42c-1.24.06-2.4.1-3.5.1-13.18,0-15.92-4.87-12.05-19.42l32.13-117.81c4.41-16.59,9.24-21,38.64-23.1,2.19-.16,4.18-.25,6-.25M487.03,158.64h27.51l-15.54-49.56-11.97,49.56M509.2,52.2v10-10c-2,0-4.2.09-6.73.28-14.77,1.06-25.51,2.7-33.31,7.64-9.07,5.74-12.12,14.79-14.26,22.84l-32.12,117.78v.03s-.01.03-.01.03c-2.17,8.12-3.65,17.38,1.77,24.43,5.21,6.78,13.87,7.56,19.94,7.56,1.24,0,2.59-.04,4.01-.11h.08s.08-.01.08-.01l6.09-.42c11.93-.83,19.95-2.38,25.61-7.86,5.64-5.45,6.92-12.76,8.54-22l.88-4.86,24.43-.89,2.62,10.25.12.49c3.78,14.96,6.77,26.77,29.63,26.77,2,0,4.22-.07,6.78-.23l6.84-.41c8.52-.34,17.89-1.72,22.97-9.22,5.08-7.52,2.88-16.68.04-24.67l-42.62-122.41c-5.56-15.85-12.47-25.02-31.37-25.02h0ZM499.73,148.64l.52-2.15.67,2.15h-1.19Z"/>
      <path class="cls-5" d="M638.26,65.6c36.96,0,65.1,11.55,65.1,33.81,0,14.28-9.66,24.78-26.46,36.12,25.41,2.31,43.05,13.23,43.05,35.49,0,36.33-55.44,53.76-102.06,53.76-5.04,0-10.08-.21-14.7-.63-11.13-.84-14.49-4.2-15.12-15.33l-6.93-114.87c-1.05-16.17,3.15-21.42,19.11-24.57,12.18-2.31,25.2-3.78,38.01-3.78M625.87,130.91c17.22-.42,31.71-8.82,31.71-19.74,0-9.45-8.61-14.28-20.16-14.28-4.62,0-9.87,1.05-14.28,3.36l2.73,30.66M633.22,190.35c18.9-.42,35.7-7.56,35.7-19.32,0-8.82-8.19-12.18-19.53-12.18-6.93,0-14.07,1.26-19.11,3.57l2.94,27.93M638.26,55.6c-12.62,0-26.04,1.33-39.87,3.96h-.04s-.04.01-.04.01c-7.74,1.53-16.39,4.03-21.88,11.05-5.56,7.11-5.79,16.11-5.28,23.97l6.93,114.83c.32,5.6,1.34,12.74,6.49,17.95,5.09,5.15,12.16,6.31,17.78,6.74,4.81.43,10.18.66,15.53.66,26.27,0,52.75-5.16,72.63-14.14,11.67-5.27,20.94-11.76,27.55-19.29,7.88-8.97,11.88-19.17,11.88-30.33,0-19.54-10.84-33.77-30.42-40.86,8.01-8.14,13.83-18.06,13.83-30.75,0-14.46-8.64-26.62-24.32-34.25-12.86-6.26-30.42-9.57-50.79-9.57h0ZM633.8,107.19c1.2-.2,2.43-.3,3.62-.3,1.04,0,10.16.12,10.16,4.28,0,2.42-4.65,6.48-12.67,8.51l-1.11-12.49h0ZM641.09,169.57c2.6-.47,5.46-.73,8.3-.73,6.17,0,8.89,1.22,9.5,1.74.01.08.03.22.03.44,0,2.37-5.86,6.68-16.79,8.5l-1.05-9.95h0Z"/>
      <path class="cls-5" d="M773.29,64.34c39.9,0,76.23,12.6,76.23,46.2,0,17.64-10.71,32.13-29.19,44.73l26.46,34.86c9.87,13.23,8.61,18.9-6.09,26.46l-7.14,3.78c-5.52,2.88-9.75,4.4-13.22,4.4-5.91,0-9.64-4.41-13.87-14.06l-16.8-39.27c-5.67,3.15-12.18,5.67-17.22,7.35l2.52,22.89c1.89,16.8-1.89,20.58-18.48,23.94l-4.2.84c-3.18.62-5.91.95-8.25.95-9.57,0-12.62-5.47-12.96-18.8l-3.15-119.49c-.42-16.38,4.2-21.42,20.37-23.31,8.19-1.05,16.8-1.47,24.99-1.47M767.83,142.04c21.21-3.36,38.43-13.23,38.43-26.46,0-12.18-9.24-15.75-19.74-15.75-8.19,0-17.22,2.1-23.31,3.99l4.62,38.22M773.29,54.34c-9.37,0-18.19.52-26.21,1.54-7.89.93-16.74,2.79-22.69,9.53-6.06,6.87-6.66,15.97-6.46,23.96l3.15,119.5c.23,9.04,1.67,15.1,4.67,19.64,3.89,5.9,10.05,8.89,18.29,8.89,2.93,0,6.26-.37,10.16-1.13h.02s.02,0,.02,0l4.2-.84c10.03-2.03,17.2-4.49,22.01-10.47,5.55-6.91,5.42-15.8,4.45-24.39l-1.66-15.08c.44-.18.88-.35,1.32-.54l12.71,29.7.02.04.02.04c2.85,6.51,8.79,20.05,23.03,20.05,5.06,0,10.4-1.65,17.84-5.53h.03s.03-.03.03-.03l7.09-3.75c7.46-3.84,15.35-8.95,17.37-17.7,2.03-8.77-2.85-16.85-7.89-23.61l-.02-.03-.03-.03-20.36-26.83c6.56-5.36,11.75-10.93,15.76-16.88,6.22-9.23,9.37-19.27,9.37-29.84,0-35.19-32.24-56.2-86.23-56.2h0ZM774.19,111.29c3.74-.79,8.15-1.46,12.34-1.46,9.74,0,9.74,3.06,9.74,5.75,0,4.67-7.24,10.62-19.83,14.32l-2.25-18.61h0Z"/>
      <path class="cls-5" d="M1048.4,64.13c47.25,0,66.57,31.5,66.57,66.99,0,13.02-2.73,26.67-7.35,39.27l10.08,6.09c14.07,8.61,15.12,14.28,3.78,28.14-5.71,6.94-9.99,10.3-14.71,10.3-4.13,0-8.61-2.57-14.69-7.57l-4.2-3.36c-13.44,15.54-31.08,25.83-51.66,25.83-45.36,0-66.57-36.12-66.57-74.76,0-43.89,27.51-90.93,78.75-90.93M1042.31,185.52c6.09,0,11.76-2.1,16.8-5.67l-3.78-3.15c-9.45-7.98-10.08-11.97-3.99-22.89,3.62-6.25,6.5-9.15,10.41-9.15,2.66,0,5.79,1.35,9.96,3.9l5.88,3.57c1.47-5.25,2.52-10.71,2.52-15.96,0-15.33-7.56-28.14-26.04-28.14-26.88,0-42,24.15-42,45.36,0,17.01,9.45,32.13,30.24,32.13M1048.4,54.13c-13.9,0-26.86,3.08-38.54,9.17-10.74,5.59-20.15,13.58-27.97,23.74-14.13,18.35-22.24,43.15-22.24,68.03,0,22.44,6.55,43.06,18.44,58.08,13.82,17.46,33.92,26.68,58.14,26.68,19.3,0,37.32-7.67,52.6-22.3,5.39,4.08,11.28,7.4,17.95,7.4,9.63,0,16.48-6.71,22.44-13.95,5.97-7.3,11.27-15.27,9.74-24.28-1.49-8.79-8.94-14.41-16.03-18.74h-.02s-.02-.03-.02-.03l-3.24-1.96c3.51-11.72,5.34-23.63,5.34-34.84,0-21.39-6.23-39.85-18.03-53.38-13.47-15.45-33.72-23.61-58.54-23.61h0ZM1040.59,175.47c-16.67-.94-18.52-15.64-18.52-22.08,0-14.68,9.93-35.36,32-35.36,3.97,0,16.04,0,16.04,18.14,0,.1,0,.19,0,.29-2.62-1.07-5.43-1.8-8.36-1.8-10.86,0-16.4,9.54-19.06,14.13l-.04.07-.04.07c-3.27,5.87-6.14,12.24-4.95,19.11.47,2.76,1.53,5.21,2.94,7.42h0Z"/>
      <path class="cls-5" d="M1146.91,63.86c2,0,4.25.17,6.77.49l6.3.84c17.43,1.89,20.16,5.25,18.27,22.68-.63,7.14-1.05,14.7-1.05,21,0,38.85,7.14,64.89,23.52,64.89,18.48,0,24.36-24.99,24.36-60.48,0-9.87-.63-19.32-1.47-27.93-1.47-15.12,1.47-18.9,17.01-20.16,1.9-.19,3.62-.3,5.19-.3,10.36,0,13.7,4.5,14.98,17.1.84,9.66,1.26,19.95,1.26,30.24,0,57.54-15.33,119.07-65.1,119.07-45.99,0-67.62-56.07-67.62-121.38,0-8.19.63-17.64,1.47-26.88,1.25-13.9,4.91-19.18,16.12-19.18M1146.91,53.86c-8.77,0-15.17,2.65-19.57,8.09-3.7,4.58-5.65,10.62-6.51,20.2-1.02,11.17-1.51,20.26-1.51,27.77,0,35.74,6.1,66.74,17.63,89.68,13.72,27.28,34.47,41.71,59.99,41.71s47.56-15.18,60.35-43.89c12.19-27.38,14.75-61.43,14.75-85.18,0-10.74-.44-21.21-1.3-31.11v-.07s-.01-.07-.01-.07c-1.23-12.15-5.18-26.09-24.92-26.09-1.85,0-3.84.11-6.09.34-8.15.67-16.41,2.16-21.64,8.42-5.21,6.23-5.2,14.58-4.42,22.67.96,9.82,1.42,18.63,1.42,26.96,0,17.91-1.57,31.44-4.68,40.21-3.63,10.27-7.87,10.27-9.68,10.27-4.08,0-7.03-6.94-8.43-11.07-3.33-9.88-5.09-25.04-5.09-43.82,0-5.56.36-12.67,1-20.02.94-8.67,1.38-17.69-4.06-24.42-5.42-6.72-14.3-8.22-22.96-9.16l-6.18-.82h-.03s-.03,0-.03,0c-3.01-.38-5.63-.57-8.02-.57h0Z"/>
      <path class="cls-5" d="M1356.88,58.47c9.43,0,12.28,4.18,13.35,16.58,1.05,14.49-2.31,18.48-16.59,20.16l-39.9,4.62,2.1,21.42,28.56-2.1c1.61-.13,3.07-.19,4.41-.19,9.85,0,12.75,3.72,13.86,15.73,1.26,13.23-1.68,16.8-14.91,18.06l-27.72,2.31,3.15,22.68,35.7-3.57c2.36-.24,4.47-.36,6.36-.36,11.61,0,15,4.82,15.9,19.26l.42,9.66c.62,16.41-2.78,20.8-18.59,20.8-.38,0-.76,0-1.15,0l-59.01-1.05c-17.01-.21-21.42-4.2-22.68-21.21l-8.61-111.72c-1.26-17.01,2.31-21.42,19.11-23.52l60.27-7.14c2.24-.26,4.22-.41,5.97-.41M1356.88,48.47c-2.08,0-4.42.16-7.14.48l-60.28,7.14h-.03s-.03,0-.03,0c-8.61,1.08-17.35,3.01-22.85,9.79-5.48,6.74-5.64,15.71-4.99,24.39l8.61,111.75c.64,8.61,2.12,17.44,8.59,23.46,6.4,5.95,15.27,6.87,23.91,6.98l58.99,1.05h.03s.03,0,.03,0c.43,0,.86,0,1.28,0,7.73,0,16.43-.83,22.36-6.98,6.03-6.26,6.56-15.33,6.22-24.19v-.03s0-.03,0-.03l-.42-9.66v-.09s-.01-.09-.01-.09c-.89-14.16-4.65-28.64-25.88-28.64-2.17,0-4.58.14-7.36.41l-26.13,2.61-.37-2.68,17.19-1.43h.06s.06-.01.06-.01c6.95-.66,14.71-2.15,19.65-8.13,4.94-5.98,4.92-13.89,4.26-20.83-1.13-12.24-4.85-24.79-23.82-24.79-1.56,0-3.26.07-5.19.22l-18.78,1.38-.19-1.93,30.14-3.49c7.29-.86,15.43-2.58,20.6-8.84,5.19-6.28,5.34-14.63,4.81-21.98v-.07s-.01-.07-.01-.07c-.66-7.7-2.21-25.72-23.31-25.72h0Z"/>
      <path class="cls-5" d="M168.75,272.35c3.47,0,7.37.32,11.79.92l7.78,1.02c26.4,3.38,31.48,9.82,23.02,34.86l-66,192.93c-7.45,22.35-14.42,29.42-33.22,29.42-3.41,0-7.2-.23-11.46-.65h-3.05c-27.75-2.71-35.2-9.48-41.63-36.22L12.32,312.53c-6.09-26.06-1.02-33.85,25.72-37.57l11.51-1.35c4.91-.67,9.17-1.05,12.89-1.05,16.8,0,22.5,7.65,26.38,29.82l22.68,130.65,28.09-129.3c4.83-22.72,11.09-31.38,29.17-31.38M168.76,262.35v10-10c-12.09,0-20.68,3.35-27.05,10.54-5.35,6.04-8.91,14.64-11.91,28.76l-17.21,79.22-13.92-80.21c-2.41-13.78-5.58-22.15-10.6-28.02-7.74-9.05-18.34-10.09-25.63-10.09-3.97,0-8.6.37-14.15,1.13l-11.41,1.34h-.11s-.11.03-.11.03c-12.62,1.76-25.24,4.74-32,14.6-6.75,9.84-4.99,22.71-2.08,35.15v.03s.01.03.01.03l43.66,182.1c3.35,13.95,7.35,24.77,15.96,32.31,9.22,8.08,22,10.31,34.43,11.53l.48.05h3.05c4.58.44,8.49.65,11.94.65,25.72,0,34.85-12.73,42.69-36.22l65.99-192.89c4-11.83,6.85-24.08.82-33.72-5.75-9.19-16.96-12.36-32.03-14.29l-7.73-1.01c-4.99-.68-9.28-1.01-13.11-1.01h0Z"/>
      <path class="cls-5" d="M576.48,272.49c21.63,0,27.18,6.96,26.55,31.58-.68,26.06-7.11,32.49-34.18,32.49l-9.14,131.33c19.63,1.02,24.03,6.09,22.68,25.39l-.68,9.14c-1.45,22.58-6.61,30.05-24.37,30.05-3.01,0-6.38-.21-10.16-.61l-67.02-6.77c-24.37-2.37-30.12-9.14-28.09-33.51l.34-3.05c1.53-20.48,6.37-26.6,24.23-26.6,1.92,0,3.99.07,6.23.2l5.08-125.57c-22,0-27.42-5.08-28.09-26.74v-3.05c-.68-23.69,4.74-29.79,28.09-30.8l83.6-3.38c1.73-.07,3.37-.1,4.93-.1M576.48,262.49v10-10h0c-1.65,0-3.44.04-5.32.11l-83.61,3.39c-11.27.49-22.7,2.06-30.06,10.16-7.22,7.95-7.95,19.48-7.63,30.77v3.22c.33,10.56,1.67,21.32,9.16,28.43,4.98,4.73,11.53,6.71,18.54,7.51l-4.28,105.94c-23.37,1.15-29.22,14.54-30.82,35.59l-.32,2.87-.02.14v.14c-.98,11.62-.87,23.57,6.44,32.27,7.27,8.66,19.02,10.89,30.63,12.02l66.98,6.77c4.25.44,7.91.66,11.16.66,7.73,0,18.84-1.08,26.16-10.38,4.89-6.21,7.26-14.61,8.18-28.99l.67-9.09c.68-9.73.43-19.7-5.94-26.9-4.18-4.73-9.88-6.99-16.07-8.14l7.84-112.71c9.35-.69,18.18-2.84,24.56-8.96,8.48-8.13,9.95-20.66,10.27-32.98.32-12.33-.49-24.87-8.5-33.09-7.56-7.76-18.96-8.75-28.04-8.75h0Z"/>
      <path class="cls-5" d="M639.97,272.34c2.25,0,4.68.09,7.31.25l137.42,8.12c25.72,1.69,31.82,8.12,30.8,34.52-.68,25.72-6.77,32.15-32.49,33.85l-43.32,3.05,5.42,145.88c1.02,27.42-5.08,34.52-32.15,37.91l-6.43.68c-4.19.54-7.9.83-11.15.83-17.22,0-21.91-8.12-21.34-30.61l4.06-150.28-31.14,2.03c-3.01.23-5.77.35-8.3.35-20.26,0-25.84-7.75-25.54-31.82l.34-22.68c.3-24.45,5.58-32.07,26.54-32.07M639.97,262.34v10-10c-9.46,0-21.28,1.21-28.82,10.61-6.55,8.16-7.58,19.88-7.72,31.33l-.34,22.65c-.16,12.43.83,25.05,9.05,33.38,7.53,7.62,18.11,8.6,26.49,8.6,2.71,0,5.66-.12,9-.37l20.15-1.31-3.77,139.32c-.31,12.31.49,24.82,8.42,32.95,6.93,7.11,16.4,7.93,22.92,7.93,3.56,0,7.58-.29,12.31-.89l6.32-.66h.1s.1-.02.1-.02c12.56-1.57,25.25-4.28,32.99-13.39,7.75-9.12,8.38-22.12,7.91-34.81l-5.06-136.21,33.67-2.37c11.98-.79,24.2-2.66,32.16-10.97,7.91-8.26,9.31-20.51,9.63-32.53.47-12.33-.17-24.92-7.94-33.54-7.71-8.56-20.03-10.48-32.2-11.28h-.03s-.03,0-.03,0l-137.42-8.12c-2.89-.18-5.48-.27-7.89-.27h0Z"/>
      <path class="cls-5" d="M854,271.13c3.23,0,6.85.27,10.9.79l10.15,1.35c28.09,3.05,32.49,8.46,29.45,36.55-1.02,11.51-1.69,23.69-1.69,33.85,0,62.62,11.51,104.59,37.91,104.59,29.79,0,39.26-40.28,39.26-97.48,0-15.91-1.02-31.14-2.37-45.02-2.37-24.37,2.37-30.46,27.42-32.49,3.06-.31,5.84-.48,8.36-.48,16.7,0,22.08,7.26,24.14,27.55,1.35,15.57,2.03,32.15,2.03,48.74,0,92.74-24.71,191.91-104.93,191.91-74.12,0-108.99-90.37-108.99-195.63,0-13.2,1.02-28.43,2.37-43.32,2.01-22.4,7.92-30.91,25.99-30.91M854,261.13c-28.44,0-34.08,19.23-35.95,40.02-1.62,17.83-2.41,32.3-2.41,44.22,0,56.64,9.6,105.67,27.76,141.78,21.01,41.77,52.55,63.85,91.22,63.85,21.41,0,40.4-6.43,56.44-19.1,14.19-11.22,26.05-27.37,35.24-48.01,19.21-43.14,23.25-97.12,23.25-134.8,0-17.14-.7-33.83-2.07-49.61v-.07s-.01-.07-.01-.07c-1.93-18.98-7.39-36.54-34.08-36.54-2.78,0-5.82.17-9.27.52-13.67,1.12-24.12,3.49-30.74,11.4-6.57,7.86-7.04,18.48-5.72,32.02,1.56,16.02,2.32,30.43,2.32,44.05,0,29.57-2.65,52.06-7.89,66.85-6.54,18.49-15.33,20.62-21.37,20.62-7.94,0-14.46-7.4-19.38-22.01-5.58-16.55-8.53-41.65-8.53-72.58,0-9.16.58-20.83,1.65-32.87,1.67-15.5,1.38-26.75-5.22-34.93-6.58-8.15-17.5-10.85-32.98-12.54l-10.03-1.34h-.03s-.03,0-.03,0c-4.59-.58-8.57-.86-12.16-.86h0Z"/>
      <path class="cls-5" d="M1124.08,271.92c64.31,0,122.86,20.31,122.86,74.46,0,28.43-17.26,51.79-47.05,72.09l42.65,56.19c15.91,21.32,13.88,30.46-9.82,42.65l-11.51,6.09c-8.9,4.64-15.71,7.09-21.31,7.09-9.52,0-15.54-7.1-22.36-22.66l-27.08-63.29c-9.14,5.08-19.63,9.14-27.75,11.85l4.06,36.89c3.05,27.08-3.05,33.17-29.78,38.59l-6.77,1.35c-5.12,1-9.53,1.52-13.3,1.52-15.43,0-20.34-8.81-20.89-30.29l-5.08-192.59c-.68-26.4,6.77-34.52,32.83-37.57,13.2-1.69,27.08-2.37,40.28-2.37M1115.28,397.15c34.19-5.42,61.94-21.32,61.94-42.65,0-19.63-14.89-25.39-31.82-25.39-13.2,0-27.75,3.38-37.57,6.43l7.45,61.6M1124.08,261.92c-14.86,0-28.82.82-41.49,2.44-11.57,1.36-24.5,4.01-32.73,13.34-8.36,9.49-9.18,22.72-8.88,34.41l5.08,192.6c.34,13.36,2.35,22.14,6.51,28.45,5.07,7.69,13.27,11.58,24.37,11.58,4.33,0,9.31-.56,15.21-1.71h.02s.02,0,.02,0l6.77-1.35c14.82-3,25.31-6.51,31.9-14.71,7.54-9.39,7.27-22.27,5.86-34.8l-3.19-28.99c3.72-1.4,7.79-3.05,11.93-4.93l22.9,53.53.02.04.02.04c6.52,14.88,14.85,28.65,31.51,28.65,7.11,0,14.86-2.46,25.93-8.23l.03-.02.03-.02,11.45-6.06c10.79-5.55,22.17-12.8,24.87-24.48,2.7-11.66-4.01-22.76-11.66-33.02l-.02-.03-.03-.03-36.45-48.02c12.32-9.39,21.8-19.12,28.82-29.53,9.33-13.85,14.06-28.88,14.06-44.68,0-28.85-14.76-51.82-42.69-66.4-22.62-11.82-53.8-18.06-90.18-18.06h0ZM1118.79,342.87c7.22-1.81,17.18-3.75,26.61-3.75,21.82,0,21.82,10.39,21.82,15.39,0,12.48-17.69,24.73-43.3,30.77l-5.13-42.4h0Z"/>
      <path class="cls-5" d="M1395.25,262.46c15.2,0,19.8,6.74,21.51,26.72,1.69,23.35-3.72,29.79-26.74,32.49l-64.31,7.45,3.38,34.52,46.03-3.38c2.59-.2,4.95-.31,7.11-.31,15.88,0,20.55,5.99,22.34,25.36,2.03,21.32-2.71,27.08-24.03,29.11l-44.68,3.72,5.08,36.55,57.54-5.75c3.8-.38,7.2-.59,10.25-.59,18.71,0,24.17,7.77,25.62,31.05l.68,15.57c.99,26.45-4.48,33.52-29.96,33.52-.61,0-1.23,0-1.86-.01l-95.11-1.69c-27.42-.34-34.52-6.77-36.56-34.19l-13.88-180.07c-2.03-27.42,3.72-34.52,30.8-37.91l97.14-11.51c3.61-.42,6.8-.66,9.63-.66M1395.25,252.46c-3.11,0-6.64.24-10.8.73l-97.15,11.51h-.03s-.03,0-.03,0c-12.62,1.58-25.33,4.31-32.84,13.56-7.48,9.21-7.64,22.27-6.69,35.01l13.88,180.1c.94,12.66,3.03,25.53,11.92,33.8,8.79,8.18,21.76,9.46,34.46,9.62l95.08,1.69h.03s.03,0,.03,0c.67,0,1.33.01,1.98.01,11.17,0,23.67-1.11,31.63-9.38,7.68-7.98,8.88-19.57,8.32-34.52v-.03s0-.03,0-.03l-.68-15.57v-.09s-.01-.09-.01-.09c-.91-14.63-3.46-23.57-8.52-29.88-7.57-9.45-19.08-10.54-27.09-10.54-3.29,0-6.97.21-11.25.64l-47.96,4.8-2.3-16.56,34.15-2.85h.06s.06-.01.06-.01c10.45-.99,21.02-3.01,27.54-10.91,6.52-7.9,6.49-18.65,5.5-29.1-.85-9.25-2.45-18.77-8.26-25.52-6.86-7.97-17-8.89-24.03-8.89-2.35,0-4.93.11-7.89.34l-36.25,2.67-1.47-15.03,54.55-6.32c11.07-1.3,22.25-3.66,29.19-12.07,6.97-8.43,7.18-19.92,6.37-31.08v-.07s-.01-.07-.01-.07c-1.09-12.74-3.42-20.56-7.78-26.15-6.8-8.71-16.78-9.72-23.7-9.72h0Z"/>
    </g>
    <g>
      <g>
        <path class="cls-2" d="M1549.7,455.98c-.87.49-1.77.95-2.71,1.36.94-.42,1.84-.88,2.71-1.36Z"/>
        <path class="cls-5" d="M1549.7,455.98c-.87.49-1.77.95-2.71,1.36.94-.42,1.84-.88,2.71-1.36h0ZM1544.86,447.22c-.71.39-1.35.71-1.96.99l8.08,18.3c1.19-.52,2.38-1.11,3.62-1.81l-9.74-17.47h0Z"/>
      </g>
      <g>
        <path class="cls-2" d="M1605.23,372.16c1.07.7,2.12,1.44,3.15,2.21-1.03-.78-2.08-1.52-3.15-2.21ZM1572.64,324.75c.74.13,1.46.25,2.14.36-.68-.11-1.39-.24-2.14-.36ZM1567.88,359.25c1.94.32,3.9.66,5.86,1.05-1.96-.39-3.91-.74-5.86-1.05ZM1530.07,461.09c.24-.01.47-.02.71-.03.13-.01.26-.02.38-.03-.36.03-.72.05-1.09.06ZM1499.09,400.32c2.1.61,4.23,1.18,6.35,1.72-2.12-.55-4.25-1.12-6.35-1.72ZM1486.67,396.12c1.35.55,2.73,1.06,4.12,1.55-1.39-.49-2.76-1.01-4.12-1.55ZM1471.44,388.16c1.16.81,2.35,1.57,3.57,2.29-1.22-.73-2.41-1.49-3.57-2.29ZM1464.91,382.88c1,.96,2.05,1.88,3.13,2.75-1.08-.88-2.12-1.79-3.13-2.75ZM1461.3,379.05c.67.81,1.38,1.59,2.12,2.35-.73-.76-1.44-1.54-2.12-2.35Z"/>
        <path class="cls-3" d="M1572.64,324.75c.75.12,1.46.25,2.14.36-.68-.11-1.4-.23-2.14-.36M1567.88,359.25c1.95.31,3.9.66,5.86,1.05-1.96-.39-3.92-.73-5.86-1.05M1605.23,372.16c1.07.69,2.12,1.43,3.15,2.21-1.03-.77-2.08-1.51-3.15-2.21M1461.3,379.05c.68.81,1.39,1.59,2.12,2.35-.74-.76-1.45-1.54-2.12-2.35M1464.91,382.88c1.01.96,2.05,1.87,3.13,2.75-1.08-.87-2.13-1.79-3.13-2.75M1471.44,388.16c1.16.8,2.35,1.56,3.57,2.29-1.22-.72-2.41-1.48-3.57-2.29M1486.67,396.12c1.36.54,2.73,1.06,4.12,1.55-1.39-.49-2.77-1-4.12-1.55M1499.09,400.32c2.1.6,4.23,1.17,6.35,1.72-2.12-.54-4.25-1.11-6.35-1.72M1531.16,461.03c-.12.01-.25.02-.38.03-.04,0-.07,0-.11,0,.16,0,.33-.02.49-.03M1530.66,461.06c-.2.01-.4.02-.6.03.2,0,.4-.02.6-.03M1574.21,314.88l-3.31,19.72c.79.14,1.55.27,2.27.38l3.19-19.74c-.29-.05-.58-.1-.88-.15-.42-.07-.84-.14-1.28-.21h0ZM1569.45,349.37l-3.2,19.74c2.25.37,3.95.68,5.54.99l3.9-19.62c-2.09-.42-4.19-.79-6.24-1.12h0ZM1610.65,363.76l-10.9,16.77c.86.56,1.74,1.18,2.64,1.85l12.02-15.98c-1.25-.95-2.52-1.84-3.77-2.64h0ZM1468.95,372.62l-15.36,12.8c.81.98,1.68,1.95,2.66,2.95l14.38-13.9c-.63-.66-1.18-1.26-1.67-1.85h0ZM1471.79,375.63l-13.81,14.46c1.19,1.14,2.46,2.26,3.78,3.32l12.59-15.54c-.92-.75-1.75-1.48-2.56-2.25h0ZM1477.11,379.93l-11.4,16.43c1.33.93,2.75,1.84,4.21,2.7l10.22-17.19c-1.07-.64-2.09-1.29-3.03-1.94h0ZM1490.36,386.83l-7.46,18.55c1.36.56,2.82,1.1,4.57,1.72l6.65-18.86c-1.17-.41-2.4-.88-3.75-1.41h0ZM1501.83,390.7l-5.54,19.22c2.04.59,4.22,1.18,6.67,1.81l4.98-19.37c-2.37-.61-4.31-1.14-6.11-1.66h0Z"/>
      </g>
      <g>
        <path class="cls-4" d="M1588.11,309c-1.83,8.23-7.22,13.11-14.05,15.99.24.04.49.08.72.12,1.92.34,3.59.63,4.93.84.26.04.51.07.74.11.13.02.26.03.38.05.23.03.44.06.64.08.5.06.91.09,1.22.09,10.47,0,12.95-5.88,13.5-24.82.04-1.8.05-3.51.02-5.12,0-.31-.01-.61-.02-.92-.01-.53-.03-1.04-.05-1.55-.05-1.06-.12-2.08-.21-3.06-.03-.37-.07-.73-.11-1.09-.03-.31-.07-.61-.11-.9-.05-.4-.11-.8-.17-1.19-.04-.29-.09-.58-.15-.86-.01-.1-.03-.19-.05-.29-.05-.27-.1-.53-.16-.79-.06-.31-.13-.61-.2-.91-.13-.51-.26-1-.41-1.48-.05-.18-.1-.35-.16-.51-.15-.48-.32-.94-.5-1.38-.1-.24-.2-.48-.3-.71-.02-.06-.04-.11-.07-.16-.21-.46-.43-.9-.67-1.33-.12-.23-.26-.45-.39-.67-.14-.22-.28-.44-.43-.65-.14-.21-.29-.41-.44-.61-.16-.2-.31-.4-.47-.59-.16-.18-.31-.36-.46-.53-.19-.2-.37-.39-.57-.58-.18-.17-.37-.34-.56-.51-.18-.17-.38-.33-.58-.49-.17-.13-.34-.27-.52-.4-.44-.33-.91-.64-1.4-.93-.23-.13-.46-.26-.7-.39-.13-.07-.27-.14-.4-.21,3.71,11.75,4.62,24.05,2.16,36.35Z"/>
        <path class="cls-1" d="M1479.11,295c8.49-9.62,18.57-17.31,29.53-23.45-.61.14-1.21.28-1.81.44-.01.01-.02.01-.03.01-1.29.33-2.56.68-3.82,1.05-.4.12-.8.24-1.2.36-.28.08-.55.17-.82.26-5.79,1.82-11.32,4.1-16.45,6.92-.36.19-.72.39-1.08.61-1.04.58-2.07,1.19-3.07,1.83-.44.28-.88.57-1.32.86-.21.14-.43.28-.64.43-.8.54-1.58,1.1-2.35,1.67l-.72.54c-.36.28-.72.56-1.08.86-1,.78-1.97,1.6-2.91,2.46-.28.24-.55.49-.81.74-.76.7-1.51,1.43-2.23,2.18-.27.28-.54.56-.8.84-.03.02-.05.04-.06.06-.32.34-.64.69-.95,1.04-.65.72-1.28,1.46-1.88,2.22-.28.33-.55.68-.82,1.02-.82,1.07-1.62,2.17-2.38,3.31-.22.32-.43.64-.63.97-.77,1.19-1.5,2.41-2.19,3.67-.13.24-.26.48-.39.72-.14.27-.28.54-.42.81-.37.72-.73,1.45-1.07,2.19-.22.47-.44.95-.64,1.43-.8,1.81-1.52,3.69-2.16,5.65-.16.47-.31.94-.46,1.43-.11.35-.22.71-.32,1.07-.14.47-.28.95-.4,1.44-.06.21-.12.42-.17.63-.11.4-.21.81-.3,1.22-.09.32-.17.65-.24.98-.19.81-.36,1.64-.52,2.47-.1.5-.19,1.01-.28,1.52-.06.32-.11.64-.17.97-.05.3-.09.6-.13.9-.11.65-.2,1.3-.28,1.97-.07.52-.13,1.04-.19,1.57-.18,1.66-.33,3.35-.42,5.09-.02.35-.04.69-.05,1.04-.04.69-.07,1.39-.08,2.09v.02c-.03.93-.04,1.86-.04,2.81,0,.62.01,1.23.02,1.83.01.55.03,1.09.05,1.62.02.41.04.81.07,1.21.02.38.05.76.08,1.14l.03.39c.06.8.14,1.58.23,2.35.01.08.02.15.03.23.06.53.13,1.06.21,1.58l.15.96c.06.39.13.78.2,1.16.16.89.34,1.77.54,2.62.11.51.24,1,.37,1.49.12.5.26.98.4,1.46.13.47.27.93.42,1.38.08.24.15.47.23.7.15.44.3.88.47,1.31.21.57.43,1.14.66,1.69.12.31.25.61.39.92.62,1.41,1.29,2.77,2.03,4.07.16.3.33.6.51.89.13.23.27.45.4.68.14.23.29.46.43.68.5.77,1.01,1.53,1.55,2.26.42.57.85,1.13,1.28,1.68.01.01.02.03.03.04.22.27.44.53.66.79.68.81,1.39,1.59,2.12,2.35.43.45.87.88,1.32,1.32.04.05.09.09.13.13-10.84-29.11-7.71-62.47,14.24-87.85Z"/>
        <path class="cls-2" d="M1592.66,365.71c-.34-.14-.68-.27-1.02-.4-.39-.15-.79-.3-1.19-.45-1.13-.42-2.26-.8-3.4-1.17-.47-.15-.93-.3-1.4-.44-.39-.12-.8-.24-1.19-.35,0,0,0,0-.02,0-.49-.14-.99-.28-1.48-.42,0-.01-.03-.01-.04-.01-1.01-.28-2.03-.55-3.05-.8-.34-.09-.69-.17-1.04-.25-.46-.11-.92-.22-1.38-.32-1.24-.28-2.48-.55-3.72-.79-1.96-.39-3.92-.73-5.86-1.05-1.1-.18-2.21-.35-3.31-.51-.5-.07-1-.14-1.51-.21-.51-.08-1.01-.14-1.52-.21-1.5-.2-2.98-.38-4.44-.56-.49-.06-.96-.12-1.44-.17-.01-.01-.02-.01-.03,0-.77-.09-1.53-.18-2.29-.27-3.12-.35-6.16-.68-9.06-1.02-.8-.1-1.6-.19-2.38-.29-.98-.12-1.95-.25-2.9-.38-.77-.1-1.52-.21-2.26-.33-.4-.06-.8-.12-1.2-.19-1.11-.18-2.19-.37-3.23-.58-.85-.17-1.67-.35-2.47-.54-.31-.07-.61-.15-.9-.23-.68-.17-1.33-.35-1.96-.55-.63-.19-1.24-.39-1.83-.61-.29-.11-.58-.22-.86-.34-1.55-.62-2.92-1.34-4.08-2.19-.15-.11-.3-.22-.44-.33-.13-.1-.26-.21-.39-.32-.22-.19-.43-.38-.63-.58-.18-.17-.35-.35-.51-.54-.35-.39-.66-.8-.93-1.23-.11-.17-.21-.34-.31-.51-.03-.04-.05-.09-.07-.14-.1-.17-.19-.35-.27-.54-.1-.21-.19-.42-.27-.64-.1-.28-.2-.58-.27-.88-.06-.19-.11-.38-.14-.58-.01-.02-.01-.03-.01-.05-.05-.22-.09-.44-.11-.67-.05-.3-.08-.6-.1-.91-.02-.28-.03-.56-.03-.85,0-14.37,14.05-19.26,30.58-19.26.83,0,1.67.01,2.51.04.15,0,.3,0,.45.01.79.02,1.57.06,2.36.1.7.04,1.4.08,2.09.13.24.02.49.03.74.06.69.05,1.37.1,2.05.17,1.6.14,3.19.32,4.74.5.85.11,1.7.21,2.53.33.46.06.91.12,1.36.19.44.06.87.12,1.3.18.16.03.33.06.5.08,2.03.31,3.94.62,5.7.92.49.08.96.16,1.42.24,6.83-2.88,12.22-7.76,14.05-15.99,2.46-12.3,1.55-24.6-2.16-36.35-.07-.03-.13-.07-.2-.1-.04-.03-.08-.05-.13-.07-1.99-.98-4.32-1.73-7.02-2.32-.48-.1-.98-.2-1.49-.3-.5-.09-1.02-.18-1.55-.27-.6-.1-1.2-.19-1.83-.27-.49-.07-1-.13-1.51-.19-8.27-.98-17.09-1.63-25.91-1.63-.84,0-1.67,0-2.51.02-.63,0-1.26.01-1.9.03-.7.01-1.41.03-2.11.06-.51.01-1.01.03-1.52.05-.56.02-1.12.05-1.68.08-.58.02-1.16.05-1.73.09-.59.03-1.17.07-1.75.11-4.4.3-8.78.76-13.09,1.41-.72.11-1.44.22-2.16.34-.71.12-1.43.24-2.14.37-.71.13-1.42.26-2.13.4-1.52.3-3.03.63-4.53.99-.14.03-.28.07-.42.1-10.96,6.14-21.05,13.83-29.53,23.45-21.94,25.37-25.08,58.74-14.24,87.85.01.01.02.02.04.03,1.01.96,2.05,1.87,3.13,2.75.02.01.04.02.05.04.52.41,1.05.82,1.59,1.23.02.02.04.03.05.03.56.42,1.14.83,1.71,1.23,1.16.8,2.35,1.56,3.57,2.29,1.22.73,2.47,1.42,3.75,2.08.63.33,1.27.65,1.92.96.65.32,1.31.62,1.97.92.53.24,1.06.48,1.6.71.31.14.62.27.94.4.49.2.98.4,1.48.6,1.36.54,2.73,1.06,4.12,1.55.05.02.11.04.16.06.86.3,1.72.59,2.59.88.13.04.25.08.38.13,1.02.33,2.04.65,3.07.96.7.21,1.4.42,2.1.62,2.1.6,4.23,1.17,6.35,1.72.44.11.89.22,1.33.34,1.49.36,2.97.72,4.45,1.07.53.12,1.05.25,1.58.37s1.05.24,1.58.36c.56.13,1.13.26,1.69.39,1.54.35,3.07.68,4.58,1.02,1.52.33,3.02.67,4.5,1.01.42.09.84.19,1.26.29.83.18,1.66.37,2.47.56.84.2,1.67.4,2.49.6.81.19,1.61.39,2.41.6.79.2,1.57.4,2.35.61.78.21,1.54.42,2.29.64.75.21,1.48.43,2.19.65.98.3,1.94.61,2.88.93.36.12.72.25,1.08.38.4.14.81.29,1.21.44.37.14.74.28,1.11.43l.06.03c.39.15.77.31,1.15.47,1.19.5,2.32,1.03,3.4,1.59.63.33,1.25.67,1.84,1.02.96.57,1.87,1.17,2.71,1.81.23.16.46.34.67.52.65.52,1.26,1.06,1.82,1.63.15.14.3.29.44.44.32.34.62.69.91,1.05.57.7,1.07,1.43,1.51,2.2.12.2.24.4.34.61.1.18.19.36.28.54.05.1.09.2.13.3.08.17.16.34.23.52.22.53.41,1.07.57,1.63.07.24.14.48.19.73.02.04.03.08.03.12.06.22.11.44.15.67.02.09.04.18.05.27.03.14.05.27.07.41.05.3.09.6.12.91.04.33.07.66.08,1,.01.04.01.08.01.13.02.36.03.72.03,1.09,0,.53-.01,1.05-.04,1.57-.02.49-.06.97-.11,1.44-.01.09-.02.18-.03.27-.04.45-.1.89-.17,1.32-.08.49-.17.98-.27,1.45-.09.46-.2.9-.32,1.34-.04.17-.09.33-.14.49-.09.32-.19.64-.3.96-.13.4-.27.8-.42,1.19-.02.06-.05.12-.07.18-.17.43-.35.85-.55,1.26-.19.42-.4.84-.62,1.25h0c-.22.41-.44.81-.69,1.21-.23.4-.49.79-.75,1.17-.26.38-.53.75-.82,1.12-.28.36-.56.72-.86,1.06-.02.02-.03.04-.04.05-.3.35-.61.68-.94,1.01-.31.34-.65.66-.99.98-.69.65-1.42,1.27-2.18,1.84-.28.22-.58.44-.87.64-.59.42-1.21.82-1.84,1.2-.31.2-.63.38-.96.56-.87.49-1.77.95-2.71,1.36-.46.21-.94.42-1.42.6-.4.17-.81.32-1.23.46-.15.07-.3.12-.45.16-.4.15-.81.29-1.22.41-.04.02-.09.03-.13.04-.49.16-.99.3-1.49.43-.04.02-.08.03-.11.03-.36.1-.72.2-1.09.27-.28.08-.56.14-.85.2-.4.1-.81.18-1.23.26h-.02c-.48.1-.98.19-1.48.27-.24.04-.48.07-.73.1-.29.05-.58.09-.87.12-.32.05-.65.09-.98.12-.26.04-.53.06-.8.09-.5.05-1.01.09-1.53.12-.07.01-.14.01-.2.01-.12.01-.25.02-.38.03-.24.01-.47.02-.71.03-.33.02-.68.04-1.02.04-.58.02-1.16.03-1.75.03-9.88,0-21.09-2.37-32.63-7.56-7.93-1.11-15.62-1.58-22.56,1.4-13.99,5.25-21.86,21.96-23.62,38.78.25.39.51.78.8,1.17.26.37.55.74.85,1.1.15.18.3.36.46.55,2.02,2.36,4.62,4.69,7.81,7.02,16.57,12.11,38.19,19.77,60.55,22.09,32.49-2.19,63.67-15.19,84.15-43.71,25.82-35.75,16.13-83.32-10.44-116.29Z"/>
        <path class="cls-1" d="M1472.11,455c6.95-2.98,14.63-2.51,22.56-1.4-1.34-.6-2.68-1.23-4.02-1.91-1.97-.98-3.8-1.85-5.49-2.6-1.27-.57-2.47-1.07-3.61-1.5-3.41-1.29-6.27-1.97-8.81-1.97-3.81,0-6.93,1.52-10.21,4.82-.39.38-.78.8-1.17,1.24-.2.22-.39.44-.59.67-.39.46-.79.95-1.2,1.46-.61.77-1.23,1.59-1.87,2.48-.64.88-1.29,1.83-1.97,2.83-.45.67-.91,1.36-1.39,2.08-.47.72-.95,1.47-1.45,2.25l-.82,1.63c-4.52,7-6.79,12.96-6.79,18.34,0,.46.02.92.05,1.38,0,.09.01.18.02.27.02.21.04.42.07.62.03.25.07.5.11.75.08.51.19,1.01.32,1.51.06.23.13.46.2.69.07.27.16.55.26.81.16.43.33.86.51,1.29.32.74.7,1.46,1.12,2.18.14.22.27.44.41.66.04.07.09.13.14.2,1.76-16.82,9.63-33.54,23.62-38.78Z"/>
        <path class="cls-4" d="M1633.65,434.73c0-.48-.01-.94-.03-1.41-.01-.47-.02-.94-.04-1.4-.02-.69-.05-1.38-.09-2.06-.03-.71-.07-1.41-.12-2.1-.02-.38-.05-.76-.08-1.14-.08-1.04-.17-2.06-.27-3.07-.05-.48-.1-.95-.15-1.42-.11-.91-.22-1.81-.35-2.7-.13-.94-.27-1.86-.43-2.77-.04-.27-.08-.54-.14-.81-.1-.61-.21-1.22-.33-1.82-.11-.58-.23-1.16-.35-1.73-.12-.52-.23-1.03-.35-1.54-.11-.48-.23-.95-.35-1.42-.02-.1-.05-.2-.08-.31-.13-.5-.26-1-.4-1.5-.15-.55-.31-1.09-.47-1.63-.64-2.16-1.36-4.22-2.15-6.19-.2-.49-.4-.98-.6-1.45-.2-.48-.41-.96-.63-1.42-.16-.36-.32-.72-.49-1.07-.09-.2-.19-.39-.29-.59-.17-.36-.35-.72-.54-1.08-.57-1.11-1.15-2.18-1.77-3.23-.62-1.04-1.26-2.05-1.92-3.02-.26-.39-.53-.77-.8-1.15-.27-.38-.54-.75-.82-1.12-.28-.37-.56-.73-.84-1.09s-.57-.71-.86-1.06c-.54-.65-1.09-1.28-1.64-1.9-.64-.71-1.3-1.39-1.97-2.05-.32-.31-.63-.62-.95-.92s-.64-.6-.96-.89c-.37-.34-.75-.67-1.13-.99-.28-.24-.56-.48-.85-.71-.67-.55-1.34-1.08-2.03-1.6-1.03-.77-2.08-1.51-3.15-2.21-.36-.23-.71-.46-1.07-.69-.36-.22-.73-.45-1.09-.66-.3-.18-.61-.36-.91-.54-.43-.25-.86-.49-1.3-.73-.37-.2-.74-.4-1.12-.6-.37-.19-.75-.39-1.13-.58s-.76-.37-1.14-.56c-.76-.36-1.53-.71-2.3-1.05-.39-.17-.78-.34-1.17-.5-.39-.17-.78-.33-1.17-.48-.05-.02-.11-.04-.16-.06,26.57,32.98,36.26,80.55,10.44,116.29-20.48,28.53-51.66,41.52-84.15,43.71,4.78.5,9.6.77,14.4.77,1.03,0,2.05-.01,3.08-.04.61-.01,1.22-.02,1.83-.05,1.04-.03,2.09-.08,3.13-.14.58-.04,1.17-.07,1.76-.12.68-.04,1.36-.1,2.04-.16.55-.04,1.1-.09,1.65-.15.55-.05,1.11-.11,1.65-.18.59-.06,1.18-.13,1.77-.2,1.48-.19,2.96-.4,4.42-.63.55-.09,1.09-.18,1.63-.28.63-.1,1.25-.21,1.86-.34.52-.09,1.04-.19,1.56-.3.67-.13,1.34-.27,2-.42.56-.12,1.11-.24,1.67-.38.46-.1.92-.21,1.37-.33.72-.17,1.44-.36,2.15-.55.08-.02.16-.04.23-.06.54-.15,1.08-.29,1.62-.45.55-.15,1.1-.31,1.64-.48.28-.08.56-.16.84-.25.12-.04.23-.08.35-.11.01-.01.03-.02.04-.02.21-.06.42-.12.62-.19,1.41-.45,2.81-.92,4.18-1.43.39-.14.78-.28,1.17-.44.67-.24,1.33-.5,1.99-.77.83-.33,1.66-.67,2.48-1.03.82-.34,1.62-.7,2.41-1.07.43-.2.86-.4,1.28-.6,1.09-.52,2.16-1.05,3.22-1.62.42-.22.84-.44,1.25-.67.49-.26.98-.53,1.46-.81.97-.54,1.92-1.1,2.86-1.69.47-.29.94-.58,1.41-.88.93-.6,1.85-1.21,2.75-1.84.46-.32.91-.64,1.35-.96s.87-.63,1.3-.96c.02-.01.05-.03.07-.05.43-.32.85-.65,1.27-.98.43-.33.86-.67,1.29-1.03.43-.35.85-.7,1.27-1.06.39-.33.78-.67,1.17-1.01.1-.09.2-.18.3-.27.34-.3.67-.6,1-.91.86-.78,1.7-1.59,2.52-2.43.35-.34.69-.69,1.02-1.04.39-.4.76-.8,1.14-1.21.48-.52.96-1.06,1.42-1.6.43-.48.84-.97,1.25-1.47.9-1.09,1.78-2.21,2.62-3.36.29-.39.58-.78.85-1.18.3-.41.59-.83.87-1.26.4-.57.78-1.15,1.15-1.73.01-.02.02-.03.03-.05.41-.64.81-1.29,1.2-1.95.33-.55.65-1.1.96-1.66.88-1.54,1.7-3.12,2.47-4.74.27-.57.54-1.14.8-1.72.32-.71.62-1.42.92-2.15.12-.29.24-.58.35-.87.19-.45.36-.9.54-1.36.05-.14.1-.28.16-.43.19-.51.37-1.02.55-1.54.1-.28.2-.56.29-.84.27-.77.52-1.55.75-2.34.19-.61.38-1.23.54-1.85.05-.13.09-.27.12-.41.17-.61.34-1.23.49-1.86.27-1.06.53-2.14.75-3.23.16-.72.31-1.44.44-2.17.16-.85.31-1.71.45-2.58l.03-.18c.13-.81.25-1.63.35-2.46.11-.82.21-1.64.3-2.48.01-.14.03-.28.04-.42.09-.83.16-1.67.23-2.51.05-.73.1-1.46.14-2.2.03-.45.05-.91.07-1.36.03-.63.05-1.27.07-1.92v-.21c.03-.93.04-1.86.04-2.81,0-.76-.01-1.51-.02-2.26Z"/>
        <path class="cls-5" d="M1643.65,434.66c0-.56-.01-1.1-.03-1.65-.01-.49-.03-.97-.05-1.45-.02-.74-.05-1.48-.09-2.2-.03-.75-.08-1.5-.13-2.23-.02-.43-.06-.86-.09-1.29-.08-1.07-.18-2.18-.29-3.28v-.05l-.16-1.44v-.14c-.14-1.02-.25-1.95-.39-2.91-.15-1.08-.3-2.05-.46-2.96-.04-.28-.1-.64-.18-1.05-.11-.64-.22-1.28-.35-1.89-.11-.63-.24-1.26-.37-1.88l-.02-.09-.03-.1-.13-.61c-.08-.32-.15-.63-.22-.95-.12-.5-.24-.99-.36-1.48-.06-.25-.12-.45-.15-.57-.14-.53-.28-1.06-.42-1.58-.17-.6-.34-1.19-.51-1.77-.72-2.43-1.55-4.81-2.47-7.1v-.03s-.02-.03-.02-.03c-.21-.52-.43-1.05-.64-1.55-.27-.63-.52-1.19-.76-1.72-.18-.39-.35-.77-.53-1.15-.11-.23-.22-.46-.34-.69l-.02-.03c-.2-.44-.42-.88-.65-1.3-.7-1.36-1.36-2.57-2.03-3.7-.75-1.26-1.49-2.44-2.24-3.53-.31-.46-.62-.91-.94-1.35-.33-.46-.66-.91-1-1.36-.3-.41-.6-.8-.91-1.19-.35-.45-.7-.88-1.06-1.31-.69-.84-1.36-1.59-1.86-2.16l-.03-.03-.02-.02c-.73-.81-1.51-1.62-2.38-2.48l-.33-.33c-.27-.26-.53-.51-.8-.77-.37-.34-.72-.66-1.06-.98-.43-.39-.89-.79-1.4-1.22-.34-.29-.68-.59-1.03-.87-.78-.63-1.53-1.23-2.28-1.79-.01,0-.01-.02-.02-.02-.31-.24-.63-.46-.94-.69-.61-.44-1.21-.86-1.8-1.26-.03-.02-.05-.04-.07-.05-.3-.2-.59-.4-.88-.59l-.05-.03h-.01l-.04-.03-.48-.31-.58-.38-.09-.05-.09-.05-.22-.14c-.34-.21-.68-.42-1.02-.61l-.43-.26-.39-.23-.06-.04-.06-.03c-.51-.3-1.02-.58-1.54-.87h-.02s-.04-.03-.04-.03c-.39-.21-.79-.43-1.19-.64l-.05-.02-.04-.03-.33-.17c-.3-.15-.6-.3-.9-.45-.22-.12-.44-.22-.67-.33-.15-.08-.31-.16-.47-.23l-.09-.05-.1-.05c-.53-.25-1.07-.5-1.64-.76-.02-.01-.04-.02-.07-.03-3.65-1.46-9.62-3.81-13.93-4.97-.42-.12-1.14-.32-1.96-.57-.02,0-.05-.01-.07-.02-.6-.15-1.17-.31-1.74-.44-.4-.11-.81-.2-1.22-.3-.5-.12-1-.23-1.5-.34-1.56-.36-2.78-.62-3.93-.83-.01-.01-.02-.01-.03-.01-1.8-.36-3.7-.7-6.15-1.11-.02,0-.04-.01-.06-.01-.89-.14-1.79-.28-2.67-.41-2.56-.32-5.11-.64-7.67-.96-2.39-.29-4.76-.6-7.15-.89-.11-.02-.22-.03-.33-.04-2.1-.24-4.16-.46-6.15-.7-.37-.04-.73-.09-1.09-.13-.41-.05-.82-.1-1.22-.15h-.05c-.94-.12-1.86-.24-2.76-.37h-.07c-.66-.09-1.29-.18-1.95-.29l-.12-.02c-.32-.05-.64-.09-.96-.15l-.12-.02c-1.09-.18-2.03-.35-2.85-.51-.73-.15-1.44-.3-2.14-.47h-.05s-.06-.02-.06-.02c-.15-.04-.3-.08-.44-.12l-.12-.03-.12-.03c-.51-.13-.96-.25-1.35-.38l-.07-.02-.07-.02c-.47-.15-.87-.28-1.21-.4-.14-.06-.29-.11-.43-.17l-.11-.05-.12-.04c-1.01-.41-1.58-.76-1.88-.98-.06-.04-.13-.09-.19-.13l-.14-.14-.06-.36v-.07c0-7.65,11.19-9.26,20.58-9.26.82,0,1.52.01,2.15.03h.18s.17,0,.17,0h.21c.68.02,1.36.06,2.05.09h.02c.63.04,1.26.08,1.87.12.11.01.22.02.34.03h.06l.14.02h.24c.59.06,1.17.1,1.75.16h.07s.08.01.08.01c1.48.13,2.98.3,4.4.47l.75.09c.52.07,1.04.13,1.56.21l.14.02c.37.05.74.09,1.11.15l.1.02h.09s1.07.16,1.07.16c.2.03.43.07.69.1,1.82.28,3.62.57,5.36.87.02,0,.03.01.05.01h.05s.05.01.05.01c.36.06.71.12,1.05.18.28.05.56.1.83.14.06.01.11.02.17.03.02,0,.05.01.07.01,1.73.31,3.51.62,4.98.85.18.03.32.05.47.07l.15.02.1.02h.05c.14.03.28.04.42.06h.01l.18.03h.13c.24.05.47.07.69.1.87.1,1.63.15,2.33.15,9.14,0,15.65-3.6,19.34-10.69,3.04-5.85,3.86-13.76,4.16-23.84v-.07c.04-2,.05-3.78.02-5.44,0-.36-.01-.72-.02-1.08-.01-.57-.04-1.13-.06-1.68v-.08c-.06-1.19-.14-2.35-.24-3.46-.03-.43-.08-.85-.12-1.27-.04-.39-.09-.78-.15-1.16-.05-.45-.12-.89-.19-1.33-.05-.39-.11-.77-.19-1.14-.03-.2-.06-.36-.08-.47-.06-.32-.13-.64-.2-.95-.07-.37-.15-.73-.24-1.09l-.02-.11-.03-.11c-.14-.54-.3-1.17-.51-1.84-.07-.25-.16-.54-.27-.87-.21-.66-.45-1.3-.72-1.98l-.02-.03v-.03c-.1-.22-.19-.42-.27-.61-.1-.27-.22-.54-.35-.8-.28-.6-.57-1.16-.87-1.71-.2-.37-.38-.67-.51-.88l-.06-.1-.08-.15-.1-.14c-.16-.26-.37-.59-.63-.96-.26-.38-.49-.69-.66-.92l-.09-.12-.11-.13-.1-.13c-.18-.23-.35-.45-.53-.66l-.09-.1-.08-.1-.15-.16c-.09-.12-.19-.23-.29-.35l-.12-.14-.13-.13c-.32-.34-.61-.64-.93-.94-.24-.23-.48-.44-.71-.65-.43-.39-.81-.7-1.08-.91l-.08-.07-.09-.06-.07-.07c-.19-.14-.39-.29-.58-.44-.7-.52-1.46-1.02-2.25-1.49l-.08-.05-.09-.05c-.28-.15-.55-.3-.83-.46-.24-.13-.47-.25-.69-.36-.19-.11-.39-.2-.58-.29-2.63-1.28-5.62-2.27-9.14-3.04h-.04s-.05-.02-.05-.02c-.52-.11-1.06-.22-1.61-.32l-.07-.02h-.08c-.53-.11-1.08-.2-1.65-.3-.76-.13-1.47-.23-2.16-.32-.55-.08-1.12-.14-1.68-.21-9.51-1.13-18.62-1.7-27.08-1.7-.88,0-1.75,0-2.63.02-.66,0-1.33.01-2.01.03-.73.01-1.47.03-2.2.06-.51.02-1.02.04-1.54.06h-.05c-.56.02-1.15.05-1.73.08-.64.02-1.27.06-1.89.1-.62.03-1.23.07-1.83.11-4.8.33-9.48.83-13.9,1.5-.78.12-1.55.24-2.31.37l-.29.05c-.67.11-1.35.22-2.01.34-.76.14-1.51.28-2.26.43-1.63.32-3.27.68-4.87,1.06-.41.09-.82.19-1.23.29h-.02l-.45.12-.75.18-2.63.68-.05.04c-.5.14-1,.29-1.5.44h-.05s-.6.19-.6.19l-.55.17c-.37.1-.72.22-1.08.34-6.55,2.06-12.65,4.63-18.12,7.63-.49.26-.94.51-1.36.77-1.21.67-2.36,1.36-3.43,2.05-.46.29-.93.6-1.41.92h-.03s-.04.04-.04.04l-.13.09c-.21.14-.43.28-.64.43-.82.55-1.67,1.16-2.62,1.86l-.02.02-.03.02-.72.54-.07.05-.07.06c-.4.31-.81.63-1.21.96-1.12.88-2.22,1.81-3.28,2.77-.33.29-.67.59-1.02.93-.91.84-1.78,1.7-2.59,2.54-.23.24-.46.48-.68.71-.15.15-.29.3-.42.45-.32.34-.64.69-.96,1.05-.77.85-1.5,1.71-2.17,2.56-.25.29-.49.6-.73.91l-.17.21-.05.07-.06.07c-1.01,1.32-1.9,2.56-2.72,3.79-.3.43-.57.84-.82,1.25-.88,1.37-1.72,2.78-2.49,4.19l-.22.4-.19.36-.05.08-.04.07-.23.46-.19.35c-.48.95-.89,1.79-1.26,2.59-.23.49-.49,1.06-.76,1.69-.91,2.07-1.74,4.24-2.46,6.44-.18.54-.35,1.07-.52,1.63-.13.41-.26.83-.38,1.25-.15.51-.31,1.06-.45,1.65-.07.23-.13.46-.19.69-.12.43-.23.87-.33,1.32-.1.39-.2.79-.29,1.2-.19.82-.37,1.69-.57,2.73-.11.55-.21,1.11-.31,1.67-.04.2-.07.41-.11.62l-.06.34v.08s-.03.07-.03.07c-.05.35-.1.7-.15,1.05-.11.69-.22,1.42-.31,2.2-.08.57-.14,1.13-.21,1.71-.22,2.08-.37,3.92-.47,5.66-.02.41-.04.78-.05,1.15-.05.84-.08,1.61-.09,2.34-.03.92-.04,1.88-.04,3.02,0,.68.01,1.34.02,2,.01.63.03,1.23.06,1.83v.11c.02.46.05.91.08,1.36.02.43.06.86.09,1.29l.03.37c.06.83.15,1.73.27,2.74v.08s.03.2.03.2c.08.64.16,1.27.26,1.89l.07.46.08.53c.07.46.16.95.25,1.42.18,1.02.39,2.05.62,3.02.14.65.29,1.23.43,1.74.16.66.32,1.23.47,1.74.17.61.36,1.22.55,1.81l.06.17c.07.21.13.41.2.61.16.46.35,1.02.58,1.62.26.68.5,1.3.74,1.87.15.39.32.79.53,1.25.76,1.74,1.55,3.33,2.4,4.83.23.42.45.8.67,1.17.08.13.15.25.23.38l.07.12.08.14.08.13c.14.23.29.46.43.69l.1.16.03.04.02.04c.72,1.11,1.31,1.96,1.9,2.76.41.55.85,1.13,1.37,1.8.06.08.13.16.19.24l.26.33.07.08c.14.16.27.33.41.48.02.03.05.05.07.08.77.92,1.61,1.85,2.55,2.83l.05.05c.45.48.91.92,1.34,1.34.14.14.26.27.38.37.05.05.1.09.14.13.03.03.06.05.08.07.61.58,1.23,1.14,1.87,1.7l.07.15,1.49,1.16.11.09.03.03.04.03.77.63.09.04c.26.21.52.41.79.61.21.17.42.33.65.48.56.41,1.1.8,1.59,1.14h.01s.02.02.02.02l.03.02c.33.23.65.45.99.67,1,.67,2.05,1.32,3.13,1.97.02.01.03.02.05.03,1.33.8,2.75,1.58,4.22,2.34.71.38,1.44.74,2.17,1.09.77.38,1.53.72,2.19,1.02.58.27,1.15.52,1.73.77.39.18.78.34,1.19.51.47.19.96.39,1.47.59.02,0,.04.01.06.02.39.16.78.31,1.15.46.52.2,1.01.39,1.5.57.23.09.46.17.69.25.35.13.7.26,1.05.38h.04s.05.04.05.04h.02l.2.07c.9.32,1.8.62,2.72.93l.1.03.11.04.25.08c1.14.37,2.21.71,3.27,1.03.76.22,1.5.44,2.23.66.24.07.48.14.73.2.1.03.2.06.3.09.38.11.77.21,1.16.32.05.01.1.03.15.04,1.04.28,2.13.57,3.32.89.3.08.61.16.93.24h.04s.04.02.04.02l.23.06c.3.07.6.15.9.23l.14.04.14.03.86.21c1.22.29,2.43.59,3.64.87h.05s.04.02.04.02c.23.06.46.11.69.16.29.07.59.15.89.21l.77.18.79.18,1.66.38c.91.21,1.78.4,2.64.59.67.15,1.34.3,2,.45h.08c1.48.33,2.94.67,4.38,1h.07s.07.03.07.03c.35.07.69.15,1.04.24l.1.02.1.02c.78.17,1.55.35,2.31.53.79.18,1.6.38,2.4.58h.04s.05.02.05.02c.72.17,1.44.34,2.15.53h.04s.05.02.05.02c.74.19,1.47.38,2.2.58.71.19,1.4.38,2.08.58h.05s.06.03.06.03c.66.18,1.31.38,1.93.57.91.28,1.78.56,2.62.85h.03s.03.02.03.02c.28.09.56.19.84.3h.05s.05.03.05.03c.33.11.67.24,1,.36.17.07.35.14.54.21l.1.05.45.17c.29.11.57.23.85.35.94.4,1.84.82,2.69,1.26.5.26.95.51,1.34.74.67.4,1.26.79,1.75,1.16l.17.14.1.06.08.07.13.11c.37.29.68.57.94.83l.15.15.13.13c.14.15.27.3.41.47l.02.02.02.02c.22.28.41.55.58.85l.05.09.05.08.03.06.11.2v.02s.14.3.14.3l.02.05.02.04c.04.09.08.18.11.27l.16.6.19.94s0,.04.01.06l.02.24c.01.05.01.09.02.13l.03,1.08h0c0,.32-.01.57-.02.8v.09s-.01.08-.01.08c-.01.23-.03.48-.06.79l-.03.26v.09s-.02.09-.02.09c-.02.17-.04.36-.08.6-.06.36-.12.69-.18.98l-.02.08v.08c-.05.16-.09.36-.17.63l-.04.16-.04.11-.04.14c-.03.14-.08.28-.13.42l-.02.08-.03.08c-.08.24-.16.47-.24.67-.02.06-.05.12-.07.19-.08.19-.15.35-.21.47l-.06.13-.06.14c-.09.19-.2.41-.32.64l-.15.28c-.08.15-.15.27-.21.36l-.1.15-.09.16c-.03.06-.12.2-.33.51-.15.21-.29.41-.44.6-.13.17-.27.34-.37.47l-.31.31-.17.24c-.06.06-.12.13-.19.2l-.16.16-.16.17c-.07.08-.29.28-.45.44-.44.41-.89.79-1.33,1.12l-.09.07-.09.07c-.11.08-.24.18-.37.27l-.06.04-.06.04c-.34.25-.75.51-1.21.79l-.12.08-.13.08c-.1.06-.22.12-.33.18l-.04.02h-.02s-.06.05-.06.05c-.64.36-1.23.66-1.8.9l-.08.04-.07.03c-.13.06-.51.24-.78.34l-.2.07-.2.09c-.12.05-.28.11-.48.17l-.32.11h-.02l-.04.02-.17.06-.07.03-.18.07c-.23.08-.4.14-.5.17l-.11.02-.13.05-.64.18-.03.02-.54.15-.6.15-.29.06-.38.11c-.06.01-.12.02-.19.04l-.2.04-.09.02-.97.2c-.3.06-.65.13-1.02.19h-.06c-.09.02-.19.03-.28.04l-.26.03-.25.05c-.07.01-.13.02-.2.02l-.26.03-.25.04c-.12.02-.23.03-.35.04l-.3.03-.22.03h-.1s-.27.04-.27.04c-.32.03-.66.06-1,.08h-.14l-.34.03h-.08l-.15.02h-.21s-.32.02-.32.02h-.19c-.13.02-.28.03-.42.03h-.33c-.47.02-.94.03-1.41.03-10.13,0-21.25-2.9-32.15-8.4h-.02s-.03-.02-.03-.02c-2.18-1.09-4.1-2-5.88-2.79-1.45-.65-2.82-1.22-4.14-1.72-4.71-1.78-8.63-2.61-12.34-2.61-6.42,0-12.07,2.52-17.25,7.72-.49.48-1.01,1.03-1.57,1.66-.22.24-.42.48-.64.72l-.06.07-.04.05-.04.04c-.44.53-.9,1.08-1.36,1.66l-.03.03-.02.03c-.72.92-1.42,1.84-2.13,2.83-.73,1-1.43,2.02-2.14,3.07v.02s-.03.02-.03.02c-.46.68-.92,1.38-1.41,2.11l-.03.04-.02.04c-.45.69-.91,1.4-1.38,2.13l-.12.19-.28.44-.23.47-.59,1.16c-5.52,8.66-8.09,16.08-8.09,23.3,0,.58.02,1.19.06,1.85.01.36.04.65.06.83.03.31.07.61.11.91.04.34.09.68.15,1.01.12.77.29,1.59.51,2.45.08.31.17.61.26.91.15.54.32,1.07.52,1.6.2.53.42,1.08.64,1.62l.03.05.02.06c.46,1.05,1,2.11,1.66,3.25l.1.16.1.17.12.19c.1.16.19.31.29.47.42.66.85,1.29,1.3,1.89.37.53.78,1.05,1.25,1.61l.49.59.03.03.02.03c2.53,2.96,5.65,5.77,9.51,8.6,21.55,15.75,51.02,24.78,80.85,24.78,1.24,0,2.29-.01,3.31-.04.6-.01,1.28-.02,1.99-.06,1.01-.03,2.1-.08,3.32-.15h.11l.54-.04c.42-.02.83-.05,1.24-.08.75-.05,1.46-.11,2.14-.17.61-.05,1.23-.1,1.84-.17.62-.06,1.23-.12,1.8-.2.6-.06,1.2-.13,1.8-.2h.05s.04-.01.04-.01c1.61-.21,3.19-.43,4.71-.67h.03s.03-.01.03-.01c.57-.1,1.14-.19,1.7-.29.75-.12,1.42-.25,2.06-.38.55-.1,1.11-.2,1.66-.32.74-.14,1.47-.3,2.16-.45.54-.12,1.15-.25,1.79-.41.53-.12,1.04-.24,1.53-.37.8-.19,1.57-.39,2.23-.57.14-.04.28-.07.4-.11l.48-.13c.4-.1.79-.21,1.19-.33.61-.17,1.21-.34,1.78-.52.34-.1.69-.2,1.03-.31l2.4-.6.26-.26c1.05-.35,1.99-.68,2.9-1.02.38-.13.83-.29,1.31-.49.66-.24,1.36-.51,2.16-.84,1.02-.4,1.87-.75,2.67-1.1.84-.36,1.74-.75,2.72-1.21.46-.22.91-.42,1.34-.63,1.39-.66,2.53-1.24,3.61-1.82.45-.23.9-.47,1.35-.72.58-.31,1.11-.61,1.62-.9,1.09-.61,2.17-1.25,3.19-1.89.5-.31,1.01-.62,1.51-.94h.02s.02-.03.02-.03c1.15-.74,2.15-1.41,3.06-2.05.5-.34,1.01-.7,1.5-1.06l.17-.12c.36-.27.72-.53,1.08-.8.14-.1.27-.2.4-.3.42-.32.83-.64,1.25-.96.55-.43,1.05-.83,1.51-1.22.47-.38.93-.76,1.4-1.16.4-.34.81-.7,1.22-1.06l.07-.05.09-.08.25-.23c.39-.34.76-.68,1.13-1.03.96-.87,1.9-1.78,2.81-2.7.37-.37.76-.76,1.17-1.2.41-.42.8-.84,1.2-1.28l.05-.05c.57-.61,1.11-1.22,1.62-1.82.57-.64,1.07-1.25,1.45-1.71,1.06-1.28,2.03-2.53,2.94-3.77.3-.4.63-.84.98-1.35.33-.46.66-.94.97-1.42.41-.57.82-1.2,1.3-1.95l.28-.45v-.02c.39-.59.76-1.19,1.11-1.79.4-.66.75-1.28,1.08-1.87.97-1.7,1.91-3.5,2.79-5.36.32-.66.61-1.28.89-1.92.33-.71.66-1.5,1.05-2.44.13-.3.26-.62.38-.95.16-.38.31-.76.46-1.15l.11-.29.06-.13.05-.14.04-.13.04-.1.03-.08c.21-.57.41-1.13.61-1.71.12-.32.23-.64.34-.96.3-.87.58-1.76.84-2.65.18-.56.37-1.19.55-1.86.08-.26.16-.53.23-.8.16-.58.34-1.24.51-1.96.34-1.35.61-2.48.82-3.54.2-.91.36-1.69.5-2.45.17-.9.33-1.83.48-2.76l.02-.16v-.03s.01-.03.01-.03c.17-1,.3-1.91.4-2.77.12-.92.23-1.79.32-2.68l.02-.18v-.07c.02-.1.03-.19.03-.28.1-.9.17-1.77.24-2.61v-.08s.02-.1.02-.1c.05-.76.1-1.51.14-2.28.03-.49.06-.98.08-1.46v-.06c.03-.65.05-1.34.08-2.05v-.37c.03-.9.04-1.85.04-2.96,0-.78-.01-1.56-.02-2.33ZM1633.63,439.8v.21c-.02.65-.04,1.29-.07,1.92-.02.45-.04.91-.07,1.36-.04.74-.09,1.47-.14,2.2-.07.84-.14,1.68-.23,2.51-.01.14-.03.28-.04.42-.09.84-.19,1.66-.3,2.48-.1.83-.22,1.65-.35,2.46l-.03.18c-.14.87-.29,1.73-.45,2.58-.13.73-.28,1.45-.44,2.17-.22,1.09-.48,2.17-.75,3.23-.15.63-.32,1.25-.49,1.86-.03.14-.07.28-.12.41-.16.62-.35,1.24-.54,1.85-.23.79-.48,1.57-.75,2.34-.09.28-.19.56-.29.84-.18.52-.36,1.03-.55,1.54-.06.15-.11.29-.16.43-.18.46-.35.91-.54,1.36-.11.29-.23.58-.35.87-.3.73-.6,1.44-.92,2.15-.26.58-.53,1.15-.8,1.72-.77,1.62-1.59,3.2-2.47,4.74-.31.56-.63,1.11-.96,1.66-.39.66-.79,1.31-1.2,1.95-.01.02-.02.03-.03.05-.37.58-.75,1.16-1.15,1.73-.28.43-.57.85-.87,1.26-.27.4-.56.79-.85,1.18-.84,1.15-1.72,2.27-2.62,3.36-.41.5-.82.99-1.25,1.47-.46.54-.94,1.08-1.42,1.6-.38.41-.75.81-1.14,1.21-.33.35-.67.7-1.02,1.04-.82.84-1.66,1.65-2.52,2.43-.33.31-.66.61-1,.91-.1.09-.2.18-.3.27-.39.34-.78.68-1.17,1.01-.42.36-.84.71-1.27,1.06-.43.36-.86.7-1.29,1.03-.42.33-.84.66-1.27.98-.02.02-.05.04-.07.05-.43.33-.86.64-1.3.96s-.89.64-1.35.96c-.9.63-1.82,1.24-2.75,1.84-.47.3-.94.59-1.41.88-.94.59-1.89,1.15-2.86,1.69-.48.28-.97.55-1.46.81-.41.23-.83.45-1.25.67-1.06.57-2.13,1.1-3.22,1.62-.42.2-.85.4-1.28.6-.79.37-1.59.73-2.41,1.07-.82.36-1.65.7-2.48,1.03-.66.27-1.32.53-1.99.77-.39.16-.78.3-1.17.44-1.37.51-2.77.98-4.18,1.43-.2.07-.41.13-.62.19-.01,0-.03.01-.04.02-.12.03-.23.07-.35.11-.28.09-.56.17-.84.25-.54.17-1.09.33-1.64.48-.54.16-1.08.3-1.62.45-.07.02-.15.04-.23.06-.71.19-1.43.38-2.15.55-.45.12-.91.23-1.37.33-.56.14-1.11.26-1.67.38-.66.15-1.33.29-2,.42-.52.11-1.04.21-1.56.3-.61.13-1.23.24-1.86.34-.54.1-1.08.19-1.63.28-1.46.23-2.94.44-4.42.63-.59.07-1.18.14-1.77.2-.54.07-1.1.13-1.65.18-.55.06-1.1.11-1.65.15-.68.06-1.36.12-2.04.16-.59.05-1.18.08-1.76.12-1.04.06-2.09.11-3.13.14-.61.03-1.22.04-1.83.05-1.03.03-2.05.04-3.08.04-27.28,0-54.84-8.16-74.95-22.86-3.19-2.33-5.79-4.66-7.81-7.02-.16-.19-.31-.37-.46-.55-.3-.36-.59-.73-.85-1.1-.34-.45-.65-.91-.94-1.37-.14-.22-.27-.44-.41-.66-.42-.72-.8-1.44-1.12-2.18-.18-.43-.35-.86-.51-1.29-.1-.26-.19-.54-.26-.81-.07-.23-.14-.46-.2-.69-.13-.5-.24-1-.32-1.51-.04-.25-.08-.5-.11-.75-.03-.2-.05-.41-.07-.62-.01-.09-.02-.18-.02-.27-.03-.46-.05-.92-.05-1.38,0-5.38,2.27-11.34,6.79-18.34l.82-1.63c.5-.78.98-1.53,1.45-2.25.48-.72.94-1.41,1.39-2.08.68-1,1.33-1.95,1.97-2.83.64-.89,1.26-1.71,1.87-2.48.41-.51.81-1,1.2-1.46.2-.23.39-.45.59-.67.39-.44.78-.86,1.17-1.24,3.28-3.3,6.4-4.82,10.21-4.82,2.54,0,5.4.68,8.81,1.97,1.14.43,2.34.93,3.61,1.5,1.69.75,3.52,1.62,5.49,2.6,12.95,6.53,25.63,9.47,36.65,9.47.59,0,1.17-.01,1.75-.03.34,0,.69-.02,1.02-.04.14-.01.27-.01.41-.02.06,0,.13,0,.19-.01h.11c.13-.01.26-.02.38-.03.06,0,.13,0,.2-.01.52-.03,1.03-.07,1.53-.12.27-.03.54-.05.8-.09.33-.03.66-.07.98-.12.29-.03.58-.07.87-.12.25-.03.49-.06.73-.1.5-.08,1-.17,1.48-.27h.02c.42-.08.83-.16,1.23-.26.29-.06.57-.12.85-.2.37-.07.73-.17,1.09-.27.03,0,.07-.01.11-.03.5-.13,1-.27,1.49-.43.04-.01.09-.02.13-.04.41-.12.82-.26,1.22-.41.15-.04.3-.09.45-.16.42-.14.83-.29,1.23-.46.47-.17.93-.38,1.38-.58.01-.01.03-.01.04-.02.94-.41,1.84-.87,2.71-1.36.01-.01.03-.01.04-.02.32-.17.62-.35.92-.54.63-.38,1.25-.78,1.84-1.2.29-.2.59-.42.87-.64.76-.57,1.49-1.19,2.18-1.84.34-.32.68-.64.99-.98.33-.33.64-.66.94-1.01,0-.01.02-.03.04-.05.3-.34.58-.7.86-1.06.29-.37.56-.74.82-1.12.26-.38.52-.77.75-1.17.25-.4.47-.8.69-1.2h0c.22-.42.43-.84.62-1.26.2-.41.38-.83.55-1.26.02-.06.05-.12.07-.18.15-.39.29-.79.42-1.19.11-.32.21-.64.3-.96.05-.16.1-.32.14-.49.12-.44.23-.88.32-1.34.1-.47.19-.96.27-1.45.07-.43.13-.87.17-1.32,0-.09.02-.18.03-.27.05-.47.09-.95.11-1.44.03-.52.04-1.04.04-1.57,0-.37-.01-.73-.03-1.09,0-.05,0-.09-.01-.13-.01-.34-.04-.67-.08-1-.03-.31-.07-.61-.12-.91-.02-.14-.04-.27-.07-.41-.01-.09-.03-.18-.05-.27-.04-.23-.09-.45-.15-.67,0-.04-.01-.08-.03-.12-.05-.25-.12-.49-.19-.73-.16-.56-.35-1.1-.57-1.63-.07-.18-.15-.35-.23-.52-.04-.1-.08-.2-.13-.3-.09-.18-.18-.36-.28-.54-.1-.21-.22-.41-.34-.61-.44-.77-.94-1.5-1.51-2.2-.29-.36-.59-.71-.91-1.05-.14-.15-.29-.3-.44-.44-.56-.57-1.17-1.11-1.82-1.63-.21-.18-.44-.36-.67-.52-.84-.64-1.75-1.24-2.71-1.81-.59-.35-1.21-.69-1.84-1.02-1.08-.56-2.21-1.09-3.4-1.59-.38-.16-.76-.32-1.15-.47l-.06-.03c-.37-.15-.74-.29-1.11-.43-.4-.15-.81-.3-1.21-.44-.36-.13-.72-.26-1.08-.38-.94-.32-1.9-.63-2.88-.93-.71-.22-1.44-.44-2.19-.65-.75-.22-1.51-.43-2.29-.64-.78-.21-1.56-.41-2.35-.61-.8-.21-1.6-.41-2.41-.6-.82-.2-1.65-.4-2.49-.6-.81-.19-1.64-.38-2.47-.56-.42-.1-.84-.2-1.26-.29-1.48-.34-2.98-.68-4.5-1.01-1.51-.34-3.04-.67-4.58-1.02-.56-.13-1.13-.26-1.69-.39-.53-.12-1.05-.24-1.58-.36s-1.05-.25-1.58-.37c-1.48-.35-2.96-.71-4.45-1.07-.43-.12-.88-.23-1.31-.33t-.02-.01c-2.12-.55-4.25-1.12-6.35-1.72t-.02-.01c-.69-.19-1.39-.4-2.08-.61-1.03-.31-2.05-.63-3.07-.96-.13-.05-.25-.09-.38-.13-.87-.29-1.73-.58-2.59-.88-.05-.02-.11-.04-.16-.06-1.39-.49-2.76-1.01-4.12-1.55-.01-.01-.03-.01-.04-.02-.49-.19-.96-.39-1.44-.58-.32-.13-.63-.26-.94-.4-.54-.23-1.07-.47-1.6-.71-.66-.3-1.32-.6-1.97-.92-.65-.31-1.29-.63-1.92-.96-1.27-.65-2.51-1.34-3.72-2.07-.01,0-.02,0-.03,0-1.22-.73-2.41-1.49-3.57-2.29-.01,0-.01-.01-.02-.02-.56-.39-1.14-.79-1.69-1.21-.01,0-.03-.01-.05-.03-.54-.41-1.07-.82-1.59-1.23,0-.01-.01-.01-.02-.02h-.01s-.01-.02-.02-.02c-1.08-.88-2.12-1.79-3.13-2.75l-.02-.02c-.05-.04-.11-.09-.15-.14-.44-.43-.87-.85-1.3-1.29,0-.01-.01-.02-.02-.03-.73-.76-1.44-1.54-2.12-2.35-.01-.01-.02-.02-.02-.03h-.01c-.21-.25-.42-.5-.63-.76-.01-.01-.02-.03-.03-.04-.43-.55-.86-1.11-1.28-1.68-.54-.73-1.05-1.49-1.55-2.26-.14-.22-.29-.45-.43-.68-.13-.23-.27-.45-.4-.68-.18-.29-.35-.59-.51-.89-.74-1.3-1.41-2.66-2.03-4.07-.14-.31-.27-.61-.39-.92-.23-.55-.45-1.12-.66-1.69-.17-.43-.32-.87-.47-1.31-.08-.23-.15-.46-.23-.7-.15-.45-.29-.91-.42-1.38-.14-.48-.28-.96-.4-1.46-.13-.49-.26-.98-.37-1.49-.2-.85-.38-1.73-.54-2.62-.07-.38-.14-.77-.2-1.16l-.15-.96c-.08-.52-.15-1.05-.21-1.58-.01-.08-.02-.15-.03-.23-.09-.77-.17-1.55-.23-2.35l-.03-.39c-.03-.38-.06-.76-.08-1.14-.03-.4-.05-.8-.07-1.21-.02-.53-.04-1.07-.05-1.62-.01-.6-.02-1.21-.02-1.83,0-.95.01-1.88.04-2.81v-.02c.01-.7.04-1.4.08-2.09,0-.35.03-.69.05-1.04.09-1.74.24-3.43.42-5.09.06-.53.12-1.05.19-1.57.08-.67.17-1.32.28-1.97.04-.3.08-.6.13-.9.06-.33.11-.65.17-.97.09-.51.18-1.02.28-1.52.16-.83.33-1.66.52-2.47.07-.33.15-.66.24-.98.09-.41.19-.82.3-1.22.05-.21.11-.42.17-.63.12-.49.26-.97.4-1.44.1-.36.21-.72.32-1.07.15-.49.3-.96.46-1.43.64-1.96,1.36-3.84,2.16-5.65.2-.48.42-.96.64-1.43.34-.74.7-1.47,1.07-2.19.14-.27.28-.54.42-.81.13-.24.26-.48.39-.72.69-1.26,1.42-2.48,2.19-3.67.2-.33.41-.65.63-.97.76-1.14,1.56-2.24,2.38-3.31.27-.34.54-.69.82-1.02.6-.76,1.23-1.5,1.88-2.22.31-.35.63-.7.95-1.04.01-.02.03-.04.06-.06.26-.28.53-.56.8-.84.72-.75,1.47-1.48,2.23-2.18.26-.25.53-.5.81-.74.94-.86,1.91-1.68,2.91-2.46.36-.3.72-.58,1.08-.86l.72-.54c.77-.57,1.55-1.13,2.35-1.67.21-.15.43-.29.64-.43.44-.29.88-.58,1.32-.86,1-.64,2.03-1.25,3.07-1.83.36-.22.72-.42,1.08-.61,5.13-2.82,10.66-5.1,16.45-6.92.27-.09.54-.18.82-.26.4-.12.8-.24,1.2-.36,1.26-.37,2.53-.72,3.82-1.05.01,0,.02,0,.03-.01.74-.19,1.48-.37,2.23-.54,1.5-.36,3.01-.69,4.53-.99.71-.14,1.42-.27,2.13-.4.71-.13,1.43-.25,2.14-.37.72-.12,1.44-.23,2.16-.34,4.31-.65,8.69-1.11,13.09-1.41.58-.04,1.16-.08,1.75-.11.57-.04,1.15-.07,1.73-.09.56-.03,1.12-.06,1.68-.08.51-.02,1.01-.04,1.52-.05.7-.03,1.41-.05,2.11-.06.64-.02,1.27-.03,1.9-.03.84-.02,1.67-.02,2.51-.02,8.82,0,17.64.65,25.91,1.63.51.06,1.02.12,1.51.19.63.08,1.23.17,1.83.27.53.09,1.05.18,1.55.27.51.1,1.01.2,1.49.3,2.7.59,5.03,1.34,7.02,2.32.05.02.09.04.13.07.21.1.4.2.6.31.24.13.47.26.7.39.49.29.96.6,1.4.93.18.13.35.27.52.4.2.16.4.32.58.49.19.17.38.34.56.51.2.19.38.38.57.58.15.17.3.35.46.53.16.19.31.39.47.59.15.2.3.4.44.61.15.21.29.43.43.65.13.22.27.44.39.67.24.43.46.87.67,1.33.03.05.05.1.07.16.1.23.2.47.3.71.18.44.35.9.5,1.38.06.16.11.33.16.51.15.48.28.97.41,1.48.07.3.14.6.2.91.06.26.11.52.16.79.02.1.04.19.05.29.06.28.11.57.15.86.06.39.12.79.17,1.19.04.29.08.59.11.9.04.36.08.72.11,1.09.09.98.16,2,.21,3.06.02.51.04,1.02.05,1.55.01.31.02.61.02.92.03,1.61.02,3.32-.02,5.12-.55,18.94-3.03,24.82-13.5,24.82-.31,0-.72-.03-1.22-.09-.2-.02-.41-.05-.64-.08-.12-.02-.25-.03-.38-.05-.23-.04-.48-.07-.74-.11-1.34-.21-3.01-.5-4.93-.84-.68-.11-1.39-.24-2.14-.36-.02,0-.05-.01-.07-.01-.53-.09-1.07-.18-1.63-.28-.81-.13-1.64-.26-2.5-.4-.49-.07-.99-.15-1.5-.23-.17-.02-.34-.05-.5-.08-.43-.06-.86-.12-1.3-.18-.45-.07-.9-.13-1.36-.19-.83-.12-1.68-.22-2.53-.33-1.55-.18-3.14-.36-4.74-.5-.68-.07-1.36-.12-2.05-.17-.25-.03-.5-.04-.74-.06-.69-.05-1.39-.09-2.09-.13-.79-.04-1.57-.08-2.36-.1-.15-.01-.3-.01-.45-.01-.84-.03-1.68-.04-2.51-.04-16.53,0-30.58,4.89-30.58,19.26,0,.29,0,.57.03.85.02.31.05.61.1.91.02.23.06.45.11.67,0,.02,0,.03.01.05.03.2.08.39.14.58.07.3.17.6.27.88.08.22.17.43.27.64.08.19.17.37.27.54.02.05.04.1.07.14.1.17.2.34.31.51.27.43.58.84.93,1.23.16.19.33.37.51.54.2.2.41.39.63.58.13.11.26.22.39.32.14.11.29.22.44.33,1.16.85,2.53,1.57,4.08,2.19.28.12.57.23.86.34.59.22,1.2.42,1.83.61.63.2,1.28.38,1.96.55.29.08.59.16.9.23.8.19,1.62.37,2.47.54,1.04.21,2.12.4,3.23.58.4.07.8.13,1.2.19.74.12,1.49.23,2.26.33.95.13,1.92.26,2.9.38.78.1,1.58.19,2.38.29,2.9.34,5.94.67,9.06,1.02.76.09,1.52.18,2.29.27t.02-.01s.01,0,.01.01c.48.05.95.11,1.44.17,1.46.18,2.94.36,4.44.56.51.07,1.01.13,1.52.21.51.07,1.01.14,1.51.21,1.09.16,2.19.33,3.28.51h.03c1.94.32,3.9.66,5.86,1.05,1.24.24,2.48.51,3.72.79.46.1.92.21,1.38.32.35.08.7.16,1.04.25,1.02.25,2.04.52,3.05.8.01,0,.03,0,.04.01.49.14.99.28,1.48.42.01,0,.01,0,.02,0,.39.11.8.23,1.19.35.47.14.93.29,1.4.44,1.14.37,2.27.75,3.4,1.17.4.15.8.3,1.19.45.39.15.79.3,1.18.46.39.15.78.31,1.17.48.39.16.78.33,1.17.5.77.34,1.54.69,2.3,1.05.38.19.76.37,1.14.56s.76.39,1.13.58c.38.2.75.4,1.12.6.44.24.87.48,1.3.73.3.18.61.36.91.54.36.21.73.44,1.09.66.35.22.69.45,1.04.67.01,0,.02,0,.03.02,1.07.7,2.12,1.44,3.15,2.21.01.01.02.02.03.02.68.52,1.34,1.04,2,1.58.29.23.57.47.85.71.38.32.76.65,1.13.99.32.29.64.59.96.89s.63.61.95.92c.67.66,1.33,1.34,1.97,2.05.55.62,1.1,1.25,1.64,1.9.29.35.58.7.86,1.06s.56.72.84,1.09c.28.37.55.74.82,1.12.27.38.54.76.8,1.15.66.97,1.3,1.98,1.92,3.02.62,1.05,1.2,2.12,1.77,3.23.19.36.37.72.54,1.08.1.2.2.39.29.59.17.35.33.71.49,1.07.22.46.43.94.63,1.42.2.47.4.96.6,1.45.79,1.97,1.51,4.03,2.15,6.19.16.54.32,1.08.47,1.63.14.5.27,1,.4,1.5.03.11.06.21.08.31.12.47.24.94.35,1.42.12.51.23,1.02.35,1.54.12.57.24,1.15.35,1.73.12.6.23,1.21.33,1.82.06.27.1.54.14.81.16.91.3,1.83.43,2.77.13.89.24,1.79.35,2.7.05.47.1.94.15,1.42.1,1.01.19,2.03.27,3.07.03.38.06.76.08,1.14.05.69.09,1.39.12,2.1.04.68.07,1.37.09,2.06.02.46.03.93.04,1.4.02.47.03.93.03,1.41.01.75.02,1.5.02,2.26,0,.95-.01,1.88-.04,2.81Z"/>
      </g>
    </g>
    <g>
      <path class="cls-1" d="M1478.11,81c1.64-6.55,3.97-13.09,7.5-19.1-8.79,3.36-11.73,9.07-14.49,19.47l-32.81,120.31c-2.97,11.13-2.13,16.71,4.13,18.81,4.73-30.51,14.43-59.77,21.68-91.49,3-17,10-31,14-48Z"/>
      <path class="cls-2" d="M1578.11,212c-9-25-19-49-29-73-10.26-26.13-18.79-53.99-27.19-81.16-3.11-.42-6.81-.39-11.34-.06-11.59.83-19.44,2.01-24.97,4.12-3.53,6-5.86,12.55-7.5,19.1-4,17-11,31-14,48-7.25,31.72-16.95,60.98-21.68,91.49,2.79.94,6.65,1.18,11.74.92l6.22-.43c21.66-1.5,22.52-4.93,25.52-22.09l2.36-13.08,41.39-1.5,4.72,18.44c4.29,16.94,5.15,21.23,26.81,19.95l7.08-.43c4.63-.18,8.23-.68,10.89-1.65.28-2.69-.02-5.55-1.04-8.61ZM1494.06,156l12.22-50.61,15.87,50.61h-28.09Z"/>
      <path class="cls-4" d="M1582.63,201.25l-43.53-125.03c-4.3-12.25-8.24-17.18-17.18-18.39,8.41,27.17,16.93,55.03,27.19,81.16,10,24,20,48,29,73,1.02,3.06,1.32,5.93,1.04,8.61,6.84-2.49,7.49-8.1,3.48-19.36Z"/>
      <path class="cls-5" d="M1516.7,57.52c12.78,0,17.34,4.28,22.4,18.7l43.53,125.03c5.58,15.66,2.15,20.37-14.37,21.02l-7.08.43c-2.34.14-4.44.21-6.32.21-15.57,0-16.66-5.04-20.49-20.16l-4.72-18.44-41.39,1.5-2.36,13.08c-3,17.16-3.86,20.59-25.52,22.09l-6.22.43c-1.26.07-2.46.1-3.57.1-13.46,0-16.26-4.98-12.3-19.83l32.81-120.31c4.5-16.94,9.44-21.45,39.46-23.59,2.23-.16,4.27-.25,6.13-.25M1494.06,156h28.09l-15.87-50.61-12.22,50.61M1516.7,47.52v10-10h0c-2.03,0-4.27.09-6.86.28-15.05,1.08-25.99,2.75-33.92,7.77-9.2,5.82-12.3,15.02-14.47,23.2l-32.8,120.28v.03s-.01.03-.01.03c-2.2,8.25-3.71,17.64,1.77,24.77,5.26,6.85,14.04,7.64,20.19,7.64,1.26,0,2.64-.04,4.09-.11h.08s.08-.01.08-.01l6.22-.43c12.14-.84,20.29-2.41,26.02-7.96,5.71-5.52,7.01-12.95,8.66-22.35l.93-5.13,25.29-.92,2.72,10.64.13.5c2.15,8.48,3.69,14.6,7.99,19.48,5.97,6.78,14.5,7.7,22.06,7.7,2.04,0,4.3-.08,6.91-.23l6.98-.42c8.65-.35,18.16-1.74,23.29-9.32,5.14-7.6,2.89-16.9.01-25l-43.52-125c-5.65-16.1-12.66-25.41-31.84-25.41h0ZM1506.76,146l.77-3.2,1,3.2h-1.77Z"/>
    </g>
    <g>
      <path class="cls-4" d="M1524.37,29.16l-1.72-1.8c2.1,6.4-.08,12.62-4.41,18.12,1.76-.43,3.48-1.7,5.73-3.95l.2-.2c4.79-4.79,4.79-7.19.2-12.18Z"/>
      <path class="cls-1" d="M1505.85,11.09c-4.6-2.49-8.31-.66-13.82,5.7l-.4.4c-5.43,6.29-6.66,10.12-3.12,13.76,1.32-8.98,9.28-15.73,17.33-19.86Z"/>
      <path class="cls-2" d="M1522.65,27.36l-10.46-10.97c-2.39-2.51-4.44-4.26-6.34-5.3-8.05,4.13-16.01,10.88-17.33,19.86,1.41,1.45,3.56,2.87,6.51,4.4l15.57,8.18c3.29,1.75,5.49,2.48,7.64,1.95,4.33-5.51,6.52-11.72,4.41-18.12Z"/>
      <path class="cls-5" d="M1502.07,10c3.01,0,6.08,2.14,10.12,6.39l12.17,12.77c4.59,4.99,4.59,7.39-.2,12.18l-.2.2c-2.83,2.83-4.83,4.12-7.12,4.12-1.74,0-3.66-.75-6.25-2.13l-15.57-8.18c-10.38-5.39-10.98-9.38-3.39-18.16l.4-.4c3.94-4.54,6.95-6.79,10.03-6.79M1502.07,0h0c-7.54,0-13,4.99-17.35,9.96l-.15.15-.26.26-.24.28c-4.41,5.1-8.72,11.33-7.28,18.83,1.45,7.54,8.05,11.84,13.63,14.74l15.5,8.15c3.06,1.63,6.74,3.29,10.92,3.29,6.29,0,10.71-3.56,14.19-7.05l.2-.2c3-3,6.46-7.19,6.54-12.94.08-5.66-3.2-9.96-6.06-13.07l-.06-.06-.06-.06-12.17-12.77c-4.47-4.69-10.04-9.49-17.36-9.49h0Z"/>
    </g>
  </g>
</svg>