<?xml version="1.0" encoding="UTF-8"?>
<svg xmlns="http://www.w3.org/2000/svg" viewBox="0 0 2000 2000">
  <defs>
    <style>
      .cls-1 {
        fill: #191919;
      }

      .cls-2 {
        fill: #951f31;
      }
    </style>
  </defs>
  <g id="Coque_Int._Rouge" data-name="Coque Int. Rouge">
    <path class="cls-2" d="M1195,856c-37.24-2.81-56,24-102,46-35.42,16.94-86,29-134,37-24,4-55.71,9.29-80-1-17.91-7.59-45-25-77-32-36.89-8.07-67.04,4.49-103,24-29.76,16.15-42.03,40.59-40,80,2.95,57.13,82.67,91.1,120,107,137.46,58.56,317.73,39.95,434-60,28.98-24.91,84.92-73.01,74-126-8.13-39.44-51.3-71.93-92-75Z"/>
  </g>
  <g id="Baquet">
    <g>
      <path class="cls-1" d="M1248.26,1166.13c-48.26,0-102.62-14.7-149.13-40.32-43.53-23.98-72.31-53.66-75.11-77.46-1.86-15.81,5.47-47.16,10.1-63.18,9.61-33.3,21.86-49.76,26.48-55.96,10.42-14,19.15-18.81,27.58-23.47,7.94-4.38,15.44-8.52,24.42-20.53,6.09-8.15,8.28-13.53,11.59-21.68,3.05-7.5,6.85-16.83,15.18-31.97,1.08-1.95,2.23-4.21,3.46-6.61,4.99-9.75,11.2-21.89,21.02-32.03,18.02-18.61,49.94-28.45,92.32-28.45,7.15,0,13.12.27,17.07.45l1.9.09c12.45.53,54.73,10.96,72.56,23.52,1.51.99,23.86,15.87,33,34.14,14.44,28.88,32.99,82.82,37.73,139.78,2.67,32.03.6,61.18-6.13,86.63-7.97,30.11-22.52,55.06-43.25,74.13-30.51,28.08-72.27,42.92-120.77,42.92Z"/>
      <path class="cls-1" d="M1256.17,767.46c8.31,0,14.97.37,18.83.54,12.51.54,54,11,71,23,0,0,23,15,32,33,27.12,54.23,76.34,216.61-11,297-32.87,30.25-75.19,42.13-118.74,42.13-104.33,0-215.73-68.15-221.26-115.13-1.77-15.07,5.27-45.62,10-62,9.44-32.71,21.35-48.76,26-55,19.82-26.62,33.03-18.62,52-44,12.06-16.13,9.66-22.52,27-54,5.33-9.68,12.03-25.64,24-38,23.23-24,64.54-27.54,90.17-27.54M1256.17,761.46v6-6h0c-17.59,0-33.52,1.66-47.36,4.93-20.19,4.77-36.04,12.99-47.12,24.44-10.13,10.46-16.72,23.35-21.53,32.75-1.21,2.37-2.36,4.61-3.41,6.53-8.42,15.29-12.26,24.72-15.34,32.29-3.23,7.93-5.36,13.18-11.22,21.01-8.59,11.5-15.82,15.48-23.47,19.7-8.31,4.59-17.73,9.78-28.54,24.31-4.7,6.32-17.19,23.09-26.95,56.92-1.29,4.48-12.55,44.31-10.19,64.37,1.5,12.72,9.77,27.01,23.93,41.33,13.31,13.46,31.54,26.74,52.72,38.41,46.94,25.86,101.82,40.69,150.57,40.69,23.47,0,45.43-3.38,65.28-10.03,21.84-7.32,41.19-18.66,57.52-33.68,21.16-19.47,36-44.9,44.12-75.57,6.82-25.78,8.92-55.27,6.22-87.65-4.78-57.38-23.47-111.75-38.03-140.88-9.39-18.77-32.12-34.04-33.99-35.28-17.96-12.61-59.91-23.42-74.12-24.03-.57-.02-1.2-.05-1.89-.08-3.98-.18-9.99-.46-17.2-.46h0Z"/>
    </g>
  </g>
</svg>