<?xml version="1.0" encoding="UTF-8"?>
<svg id="Jantes_Pleines" data-name="Jantes Pleines" xmlns="http://www.w3.org/2000/svg" viewBox="0 0 2000 2000">
  <defs>
    <style>
      .cls-1 {
        fill: #b8c9c3;
      }

      .cls-2 {
        fill: #6e7882;
      }

      .cls-3 {
        fill: #efefef;
      }

      .cls-4 {
        fill: #191919;
      }
    </style>
  </defs>
  <g>
    <path class="cls-1" d="M820.98,1192.13c-6.99-6.28-32.09-28.8-64.67-25.87-51.85,4.66-76.81,69.61-81.3,81.3-2.63,6.86-33.68,91.26,15.71,138.58,2.25,2.15,34.53,32.09,77.61,24.94,32.9-5.45,51.81-29.17,60.98-40.65,25.39-31.82,27.25-66.67,27.72-78.53.53-13.46,2.57-65.14-36.03-99.78ZM840.22,1291.16c-.38,10.12-1.91,39.83-22.8,66.95-7.54,9.79-23.11,30.01-50.18,34.66-35.45,6.09-62-19.44-63.85-21.27-40.64-40.36-15.1-112.32-12.93-118.16,3.7-9.96,24.23-65.35,66.9-69.32,26.81-2.49,47.45,16.7,53.21,22.05,31.76,29.54,30.09,73.6,29.65,85.07Z"/>
    <path class="cls-1" d="M840.22,1291.16c-.38,10.12-1.91,39.83-22.8,66.95-7.54,9.79-23.11,30.01-50.18,34.66-35.45,6.09-62-19.44-63.85-21.27-40.64-40.36-15.1-112.32-12.93-118.16,3.7-9.96,24.23-65.35,66.9-69.32,26.81-2.49,47.45,16.7,53.21,22.05,31.76,29.54,30.09,73.6,29.65,85.07Z"/>
    <path class="cls-2" d="M840.22,1291.16c-.38,10.12-1.91,39.83-22.8,66.95-7.54,9.79-23.11,30.01-50.18,34.66-9.21,1.58-17.82,1.03-25.55-.69h0c-22.03-4.89-36.93-19.22-38.29-20.57-40.64-40.36-15.1-112.32-12.93-118.16,2.91-7.83,16.24-43.79,42.57-60.71,7.13-4.58,15.23-7.76,24.33-8.61,26.81-2.49,47.45,16.7,53.21,22.05,31.76,29.54,30.09,73.6,29.65,85.07Z"/>
    <path class="cls-4" d="M811.6,1294.2c-.33,9.67-1.69,38.08-20.17,64.03-6.66,9.36-20.43,28.69-44.36,33.14-1.81.34-3.6.57-5.37.72h0c-22.03-4.89-36.93-19.22-38.29-20.57-40.64-40.36-15.1-112.32-12.93-118.16,2.91-7.83,16.24-43.79,42.57-60.71,1.72-.4,3.47-.69,5.28-.88,23.71-2.38,41.96,15.97,47.05,21.09,28.09,28.24,26.61,70.36,26.22,81.34Z"/>
    <path class="cls-1" d="M752.62,1182.7v98.12h8.31v-95.98c-2.71-.93-5.49-1.66-8.31-2.14Z"/>
    <path class="cls-1" d="M761.85,1303h-8.31v91.52c2.75-1.02,5.5-2.12,8.31-3.14v-88.39Z"/>
    <path class="cls-1" d="M791.75,1201.51l-32.2,77.75,7.68,3.18,30.78-74.3c-1.97-2.29-4.06-4.5-6.25-6.63Z"/>
    <rect class="cls-1" x="730.56" y="1304.89" width="8.31" height="95.16" transform="translate(573.5 -178.21) rotate(22.5)"/>
    <rect class="cls-1" x="728.79" y="1190.59" width="8.31" height="95.16" transform="translate(-418.03 374.74) rotate(-22.5)"/>
    <path class="cls-1" d="M793.33,1370.67l-26.17-63.18-7.68,3.18,27.09,65.4c2.43-1.61,4.79-3.22,6.76-5.4Z"/>
    <rect class="cls-1" x="717.19" y="1219.58" width="8.31" height="79.73" transform="translate(-679.29 878.95) rotate(-45)"/>
    <path class="cls-1" d="M770.64,1301.56l-5.88,5.88,44.07,44.07c1.41-2.54,2.75-5.13,3.98-7.77l-42.18-42.18Z"/>
    <path class="cls-1" d="M763.74,1281.65l5.88,5.88,47.45-47.44c-1.08-2.78-2.27-5.51-3.56-8.2l-49.76,49.76Z"/>
    <rect class="cls-1" x="713.05" y="1291.64" width="8.31" height="87.44" transform="translate(1154.31 -116.02) rotate(45)"/>
    <rect class="cls-1" x="706.91" y="1258.16" width="8.31" height="73.97" transform="translate(-584.07 2006.21) rotate(-90)"/>
    <path class="cls-1" d="M771.04,1290.06v8.31h53.92c.25-2.77.41-5.54.49-8.31h-54.4Z"/>
    <rect class="cls-1" x="706.73" y="1240.5" width="8.31" height="73.97" transform="translate(-741.4 1445.39) rotate(-67.5)"/>
    <path class="cls-1" d="M768.23,1295.73l-3.18,7.68,54.56,22.6c.81-2.67,1.54-5.37,2.18-8.1l-53.56-22.19Z"/>
    <rect class="cls-1" x="708.93" y="1277.6" width="8.31" height="73.97" transform="translate(-228.54 2476.46) rotate(-112.5)"/>
    <path class="cls-1" d="M766.54,1286.94l3.18,7.68,55-22.78c-.31-2.85-.71-5.68-1.21-8.5l-56.97,23.6Z"/>
    <path class="cls-2" d="M753.87,1263.33c7.95-.71,14.07,4.78,15.78,6.31,9.41,8.45,8.92,21.05,8.79,24.34-.11,2.89-.57,11.39-6.76,19.16-2.24,2.8-6.85,8.59-14.87,9.92-10.51,1.74-18.38-5.56-18.93-6.08-12.05-11.54-4.47-32.13-3.83-33.8,1.1-2.85,7.18-18.7,19.83-19.83Z"/>
    <path class="cls-1" d="M768.88,1263.33c7.95-.71,14.07,4.78,15.78,6.31,9.41,8.45,8.92,21.05,8.79,24.34-.11,2.89-.57,11.39-6.76,19.16-2.24,2.8-6.85,8.59-14.87,9.92-10.51,1.74-18.38-5.56-18.93-6.08-12.05-11.54-4.47-32.13-3.83-33.8,1.1-2.85,7.18-18.7,19.83-19.83Z"/>
  </g>
  <g>
    <path class="cls-1" d="M1560.98,1050.13c-6.99-6.28-32.09-28.8-64.67-25.87-51.85,4.66-76.81,69.61-81.3,81.3-2.63,6.86-33.68,91.26,15.71,138.58,2.25,2.15,34.53,32.09,77.61,24.94,32.9-5.45,51.81-29.17,60.98-40.65,25.39-31.82,27.25-66.67,27.72-78.53.53-13.46,2.57-65.14-36.03-99.78ZM1580.22,1149.16c-.38,10.12-1.91,39.83-22.8,66.95-7.54,9.79-23.11,30.01-50.18,34.66-35.45,6.09-62-19.44-63.85-21.27-40.64-40.36-15.1-112.32-12.93-118.16,3.7-9.96,24.23-65.35,66.9-69.32,26.81-2.49,47.45,16.7,53.21,22.05,31.76,29.54,30.09,73.6,29.65,85.07Z"/>
    <path class="cls-1" d="M1580.22,1149.16c-.38,10.12-1.91,39.83-22.8,66.95-7.54,9.79-23.11,30.01-50.18,34.66-35.45,6.09-62-19.44-63.85-21.27-40.64-40.36-15.1-112.32-12.93-118.16,3.7-9.96,24.23-65.35,66.9-69.32,26.81-2.49,47.45,16.7,53.21,22.05,31.76,29.54,30.09,73.6,29.65,85.07Z"/>
    <path class="cls-2" d="M1580.22,1149.16c-.38,10.12-1.91,39.83-22.8,66.95-7.54,9.79-23.11,30.01-50.18,34.66-9.21,1.58-17.82,1.03-25.55-.69h0c-22.03-4.89-36.93-19.22-38.29-20.57-40.64-40.36-15.1-112.32-12.93-118.16,2.91-7.83,16.24-43.79,42.57-60.71,7.13-4.58,15.23-7.76,24.33-8.61,26.81-2.49,47.45,16.7,53.21,22.05,31.76,29.54,30.09,73.6,29.65,85.07Z"/>
    <path class="cls-4" d="M1551.6,1152.2c-.33,9.67-1.69,38.08-20.17,64.03-6.66,9.36-20.43,28.69-44.36,33.14-1.81.34-3.6.57-5.37.72h0c-22.03-4.89-36.93-19.22-38.29-20.57-40.64-40.36-15.1-112.32-12.93-118.16,2.91-7.83,16.24-43.79,42.57-60.71,1.72-.4,3.47-.69,5.28-.88,23.71-2.38,41.96,15.97,47.05,21.09,28.09,28.24,26.61,70.36,26.22,81.34Z"/>
    <path class="cls-1" d="M1492.62,1040.7v98.12h8.31v-95.98c-2.71-.93-5.49-1.66-8.31-2.14Z"/>
    <path class="cls-1" d="M1501.85,1161h-8.31v91.52c2.75-1.02,5.5-2.12,8.31-3.14v-88.39Z"/>
    <path class="cls-1" d="M1531.75,1059.51l-32.2,77.75,7.68,3.18,30.78-74.3c-1.97-2.29-4.06-4.5-6.25-6.63Z"/>
    <rect class="cls-1" x="1470.56" y="1162.89" width="8.31" height="95.16" transform="translate(575.48 -472.21) rotate(22.5)"/>
    <rect class="cls-1" x="1468.79" y="1048.59" width="8.31" height="95.16" transform="translate(-307.36 647.11) rotate(-22.5)"/>
    <path class="cls-1" d="M1533.33,1228.67l-26.17-63.18-7.68,3.18,27.09,65.4c2.43-1.61,4.79-3.22,6.76-5.4Z"/>
    <rect class="cls-1" x="1457.19" y="1077.58" width="8.31" height="79.73" transform="translate(-362.14 1360.62) rotate(-45)"/>
    <path class="cls-1" d="M1510.64,1159.56l-5.88,5.88,44.07,44.07c1.41-2.54,2.75-5.13,3.98-7.77l-42.18-42.18Z"/>
    <path class="cls-1" d="M1503.74,1139.65l5.88,5.88,47.45-47.44c-1.08-2.78-2.27-5.51-3.56-8.2l-49.76,49.76Z"/>
    <rect class="cls-1" x="1453.05" y="1149.64" width="8.31" height="87.44" transform="translate(1270.64 -680.87) rotate(45)"/>
    <rect class="cls-1" x="1446.91" y="1116.16" width="8.31" height="73.97" transform="translate(297.93 2604.21) rotate(-90)"/>
    <path class="cls-1" d="M1511.04,1148.06v8.31h53.92c.25-2.77.41-5.54.49-8.31h-54.4Z"/>
    <rect class="cls-1" x="1446.73" y="1098.5" width="8.31" height="73.97" transform="translate(-153.39 2041.4) rotate(-67.5)"/>
    <path class="cls-1" d="M1508.23,1153.73l-3.18,7.68,54.56,22.6c.81-2.67,1.54-5.37,2.18-8.1l-53.56-22.19Z"/>
    <rect class="cls-1" x="1448.93" y="1135.6" width="8.31" height="73.97" transform="translate(925.84 2963.79) rotate(-112.5)"/>
    <path class="cls-1" d="M1506.54,1144.94l3.18,7.68,55-22.78c-.31-2.85-.71-5.68-1.21-8.5l-56.97,23.6Z"/>
    <path class="cls-2" d="M1493.87,1121.33c7.95-.71,14.07,4.78,15.78,6.31,9.41,8.45,8.92,21.05,8.79,24.34-.11,2.89-.57,11.39-6.76,19.16-2.24,2.8-6.85,8.59-14.87,9.92-10.51,1.74-18.38-5.56-18.93-6.08-12.05-11.54-4.47-32.13-3.83-33.8,1.1-2.85,7.18-18.7,19.83-19.83Z"/>
    <path class="cls-1" d="M1508.88,1121.33c7.95-.71,14.07,4.78,15.78,6.31,9.41,8.45,8.92,21.05,8.79,24.34-.11,2.89-.57,11.39-6.76,19.16-2.24,2.8-6.85,8.59-14.87,9.92-10.51,1.74-18.38-5.56-18.93-6.08-12.05-11.54-4.47-32.13-3.83-33.8,1.1-2.85,7.18-18.7,19.83-19.83Z"/>
  </g>
  <path class="cls-3" d="M866.58,1211c-6.84-14.66-16.65-35.09-38.65-52-4.93-3.79-28.63-21.36-57.97-23-58.03-3.25-104.45,43.41-122.96,98-4.75,14.03-27.46,81.46-.72,136,3.91,7.98,34.48,67.97,94.69,74,34.8,3.48,61.32-12.89,72.47-20,65.42-41.71,69.31-125.55,69.57-134,1.08-35.35-9.2-63.5-16.43-79ZM866.58,1289c-.22,7.44-.14,81.3-56.04,118-9.53,6.26-35.97,22.07-65.7,19-51.43-5.3-79.23-45-85.99-67-15.67-50.98-3.91-104.65.16-117,15.81-48.04,65.24-91.86,114.82-89,25.06,1.45,41.2,17.67,45.41,21,18.79,14.88,27.97,31.1,33.82,44,6.17,13.64,14.45,39.89,13.53,71Z"/>
  <path class="cls-3" d="M1606.58,1068c-6.84-14.66-16.65-35.09-38.65-52-4.93-3.79-28.63-21.36-57.97-23-58.03-3.25-104.45,43.41-122.96,98-4.75,14.03-27.46,81.46-.72,136,3.91,7.98,34.48,67.97,94.69,74,34.8,3.48,61.32-12.89,72.47-20,65.42-41.71,69.31-125.55,69.57-134,1.08-35.35-9.2-63.5-16.43-79ZM1606.58,1146c-.22,7.44-.14,81.3-56.04,118-9.53,6.26-35.97,22.07-65.7,19-51.43-5.3-79.23-45-85.99-67-15.67-50.98-3.91-104.65.16-117,15.81-48.04,65.24-91.86,114.82-89,25.06,1.45,41.2,17.67,45.41,21,18.79,14.88,27.97,31.1,33.82,44,6.17,13.64,14.45,39.89,13.53,71Z"/>
</svg>