<?xml version="1.0" encoding="UTF-8"?>
<svg id="Jantes_Classique" data-name="Jantes Classique" xmlns="http://www.w3.org/2000/svg" viewBox="0 0 2000 2000">
  <defs>
    <style>
      .cls-1 {
        fill: #fff;
      }

      .cls-2 {
        fill: #b8c9c3;
      }

      .cls-3 {
        fill: #6e7882;
      }

      .cls-4 {
        fill: #191919;
      }
    </style>
  </defs>
  <path class="cls-2" d="M773.23,1175.02c-22.03-.68-39.04,14.06-51.73,25.05-42.94,37.22-44.37,91.38-44.47,100.2-.19,18.02,5.1,61.38,43.97,82.73,35.5,19.5,71.61,7.98,78.54,4.04,52.58-29.84,54.41-94.1,54.45-97.51.64-53.76-37.74-113.17-80.77-114.51Z"/>
  <path class="cls-2" d="M1508.23,1038.02c-22.03-.68-39.04,14.06-51.73,25.05-42.94,37.22-44.37,91.38-44.47,100.2-.19,18.02,5.1,61.38,43.97,82.73,35.5,19.5,71.61,7.98,78.54,4.04,52.58-29.84,54.41-94.1,54.45-97.51.64-53.76-37.74-113.17-80.77-114.51Z"/>
  <g>
    <path class="cls-2" d="M783,1331c22.99-14.63,33.83-37.99,37.63-62.65-.47-3.05-1.1-6.05-1.88-8.96-1.27-4.7-11-40.73-37.74-46-22.03-4.34-41.06,15.03-46,20.05-24.97,25.4-36.57,74.1-14.3,105.05,18.36,8.92,43.65,5.15,62.29-7.5Z"/>
    <path class="cls-3" d="M783,1331c-18.64,12.65-43.93,16.42-62.29,7.5,1.15,1.59,2.35,3.15,3.68,4.64,10.49,11.79,29.84,23.77,49.54,20.05,33.65-6.35,52.81-55.57,46.7-94.84-3.8,24.66-14.64,48.02-37.63,62.65Z"/>
    <path class="cls-4" d="M774.53,1212.77c2.12,0,4.28.2,6.48.63,26.75,5.27,36.47,41.3,37.74,46,10.88,40.31-8.55,96.95-44.82,103.8-2.49.47-4.98.69-7.44.69-17.01,0-32.94-10.44-42.1-20.74-27.14-30.5-15.64-82.98,10.62-109.69,4.44-4.52,20.32-20.68,39.52-20.68M774.53,1207.77c-14.13,0-28.63,7.46-43.09,22.18-13.85,14.09-23.84,35.12-26.72,56.25-3.23,23.69,2.43,45.09,15.93,60.27,9.64,10.84,26.75,22.42,45.83,22.42,2.82,0,5.64-.26,8.37-.78,14.14-2.67,26.65-12.1,36.17-27.27,14.59-23.25,19.63-56.5,12.55-82.74-2.94-10.88-6.96-19.05-9.82-23.99-8.39-14.49-19.08-23.11-31.79-25.61-2.44-.48-4.94-.72-7.44-.72h0Z"/>
  </g>
  <g>
    <path class="cls-2" d="M1497,1204c17-4,33-14,42-30,6.86-13.29,12.98-26.96,17.5-40.98-.48-4.8-1.31-9.49-2.52-13.98-1.27-4.7-11-40.73-37.74-46-22.03-4.34-41.06,15.03-46,20.05-26.25,26.71-37.76,79.19-10.62,109.69.46.51.94,1.03,1.43,1.54,11.78,1.89,23.87,1.69,35.95-.32Z"/>
    <path class="cls-3" d="M1539,1174c-9,16-25,26-42,30-12.09,2.01-24.17,2.21-35.95.32,10.76,11.26,29.27,22.06,48.11,18.51,32.23-6.08,51.16-51.49,47.34-89.82-4.52,14.03-10.64,27.69-17.5,40.98Z"/>
    <path class="cls-4" d="M1459.62,1202.78c-27.14-30.5-15.64-82.98,10.62-109.69,4.44-4.52,20.32-20.68,39.52-20.68,2.12,0,4.28.2,6.48.63,26.75,5.27,36.47,41.3,37.74,46,1.21,4.49,2.05,9.18,2.52,13.98,1.21-3.75,2.3-7.52,3.26-11.32-.29-1.34-.61-2.66-.96-3.97-2.94-10.88-6.96-19.05-9.82-23.99-8.39-14.49-19.08-23.11-31.79-25.61-2.44-.48-4.94-.72-7.44-.72-14.13,0-28.63,7.46-43.09,22.18-13.85,14.09-23.84,35.12-26.72,56.25-3,21.97,1.67,41.97,13.14,56.87,2.63.65,5.29,1.18,7.95,1.61-.49-.51-.97-1.03-1.43-1.54Z"/>
    <path class="cls-4" d="M1556.5,1133.02c3.82,38.32-15.12,83.74-47.34,89.82-2.49.47-4.98.69-7.44.69-16.16,0-31.34-9.43-40.67-19.2-2.67-.43-5.32-.96-7.95-1.61.89,1.16,1.82,2.3,2.79,3.4,9.64,10.84,26.75,22.42,45.83,22.42,2.82,0,5.64-.26,8.37-.78,14.14-2.67,26.65-12.1,36.17-27.27,13.86-22.1,19.1-53.22,13.51-78.77-.96,3.8-2.05,7.57-3.26,11.32Z"/>
  </g>
  <path class="cls-1" d="M740.9,1247.6c-4.38,5.44-11.94,17.2-11.79,30.67.03,2.9.18,17.42,8.26,21.23,9.56,4.52,24.06-8.9,30.67-17.69,1.66-2.22,16.78-22.34,8.26-36.56-2.97-4.96-8.88-9.3-15.33-9.44-8.52-.18-14.34,4.7-20.05,11.79Z"/>
  <path class="cls-1" d="M1478.49,1104.88c-4.38,5.44-11.94,17.2-11.79,30.67.03,2.9.18,17.42,8.26,21.23,9.56,4.52,24.06-8.9,30.67-17.69,1.66-2.22,16.78-22.34,8.26-36.56-2.97-4.96-8.88-9.3-15.33-9.44-8.52-.18-14.34,4.7-20.05,11.79Z"/>
</svg>