<?xml version="1.0" encoding="UTF-8"?>
<svg id="Jantes_F1" data-name="Jantes F1" xmlns="http://www.w3.org/2000/svg" viewBox="0 0 2000 2000">
  <defs>
    <style>
      .cls-1 {
        fill: #b8c9c3;
      }

      .cls-2 {
        fill: #6e7882;
      }

      .cls-3 {
        fill: #191919;
      }
    </style>
  </defs>
  <g>
    <path class="cls-3" d="M817.6,1317.67c-1.05,3.33-2.24,6.58-3.59,9.73-8.39,19.68-22.41,35.06-40.47,38.47-1.37.26-2.74.45-4.11.56-3.37.29-6.72.16-9.99-.32-15.06-2.18-28.7-11.61-36.99-20.91-4.29-4.82-7.64-10.17-10.14-15.88-1.38-3.12-2.49-6.35-3.37-9.66-5.35-20.11-1.85-43.08,7.24-62.37,1.44-3.07,3.02-6.05,4.74-8.9,3.62-6.06,7.83-11.58,12.48-16.32,4.09-4.16,17.57-17.87,34.5-20.78,3.23-.55,6.58-.71,10.02-.33.97.1,1.94.25,2.92.44,21.92,4.32,32.75,28.67,36.93,40.91,1.08,3.16,1.72,5.52,1.99,6.52.31,1.14.59,2.3.86,3.47,3.92,17.5,2.59,37.56-3.02,55.37Z"/>
    <path class="cls-1" d="M774.13,1210.75c1.25,0,2.51.07,3.79.21.97.1,1.94.25,2.92.44,21.92,4.32,32.75,28.67,36.93,40.91,1.08,3.16,1.72,5.52,1.99,6.52.31,1.14.59,2.3.86,3.47,3.92,17.5,2.59,37.56-3.02,55.37-1.05,3.33-2.24,6.58-3.59,9.73-8.39,19.68-22.41,35.06-40.47,38.47-1.37.26-2.74.45-4.11.56-1.2.1-2.4.15-3.59.15-2.16,0-4.3-.16-6.4-.47-15.06-2.18-28.7-11.61-36.99-20.91-4.29-4.82-7.64-10.17-10.14-15.88-1.38-3.12-2.49-6.35-3.37-9.66-5.35-20.11-1.85-43.08,7.24-62.37,1.44-3.07,3.02-6.05,4.74-8.9,3.62-6.06,7.83-11.58,12.48-16.32,4.09-4.16,17.57-17.87,34.5-20.78,2.03-.35,4.11-.54,6.23-.54M774.13,1190.75h0c-3.16,0-6.39.28-9.59.82-15.48,2.66-30.75,11.57-45.4,26.47-5.75,5.86-10.91,12.6-15.37,20.05-2.03,3.37-3.95,6.97-5.7,10.7-11.64,24.71-14.73,52.42-8.46,76,1.16,4.38,2.64,8.61,4.39,12.56,3.41,7.78,7.96,14.89,13.51,21.13,13.02,14.6,31.35,24.84,49.06,27.41,3.06.45,6.19.68,9.27.68,1.76,0,3.52-.08,5.26-.22,2.02-.16,4.09-.45,6.17-.84,12.64-2.39,24.15-8.63,34.19-18.56,8.52-8.42,15.56-19.09,20.95-31.72,1.56-3.63,3-7.53,4.27-11.56,6.86-21.77,8.09-45.12,3.46-65.76v-.06s-.03-.06-.03-.06c-.38-1.67-.71-2.97-1.05-4.22-.28-1.05-1.06-3.92-2.36-7.74-10.35-30.29-28.81-49.5-51.99-54.06h-.03s-.03-.01-.03-.01c-1.59-.31-3.1-.53-4.6-.69-1.95-.21-3.94-.32-5.92-.32h0Z"/>
  </g>
  <path class="cls-1" d="M767.12,1225.49l-2.94,53.9-.35,6.3-.3,5.53-.36,6.63-3.73,68.26v.1c-.17,2.76,1.95,5.11,4.7,5.26.1.01.19.01.28.01,2.64,0,4.84-2.06,4.99-4.73l.02-.32,3.73-68.31.37-6.68.28-5.15.38-7.01,2.94-53.7c-3.42-.4-6.76-.42-10-.09Z"/>
  <path class="cls-2" d="M777.92,1210.96c-3.44-.38-6.79-.22-10.02.33l-.78,14.2c3.24-.32,6.58-.31,10,.09l.79-14.52s.01-.07,0-.1Z"/>
  <path class="cls-2" d="M720.92,1248.39c-1.72,2.85-3.3,5.83-4.74,8.9l4.24,3.04c1.61-2.89,3.41-5.72,5.38-8.44l-4.88-3.5Z"/>
  <path class="cls-1" d="M829.97,1326.53l-12.37-8.86-40.06-28.71-3.73-2.67-5.08-3.64-4.55-3.26-38.38-27.5c-1.97,2.72-3.77,5.55-5.38,8.44l39.11,28.02,4,2.87,4.8,3.44,4.83,3.46,40.85,29.28,10.14,7.26c.88.64,1.9.94,2.91.94,1.55,0,3.09-.73,4.06-2.09,1.61-2.24,1.1-5.37-1.15-6.98Z"/>
  <path class="cls-1" d="M774.19,1279.28l-5.46,3.37-4.9,3.04-4.3,2.66-50.59,31.31-9.22,5.7c-2.35,1.45-3.08,4.53-1.62,6.88.94,1.53,2.58,2.37,4.25,2.37.9,0,1.81-.24,2.63-.75l7.33-4.54,50.86-31.47,5.16-3.19,5.2-3.22,4.01-2.48,38.69-23.94c-.6-3.46-1.53-6.83-2.76-10.04l-39.28,24.31Z"/>
  <path class="cls-2" d="M819.76,1258.83c-.27-1-.91-3.36-1.99-6.52l-4.3,2.66c1.23,3.22,2.16,6.58,2.76,10.04l4.39-2.72c-.27-1.17-.55-2.33-.86-3.47Z"/>
  <g>
    <path class="cls-3" d="M1506.48,1237.84c-2.55,0-5.18-.19-7.82-.57-15.5-2.25-31.58-11.29-43.03-24.17-4.86-5.48-8.84-11.69-11.82-18.49-1.55-3.5-2.86-7.25-3.89-11.11-5.61-21.1-2.85-46.11,7.57-68.61,1.53-3.32,3.27-6.63,5.16-9.82,4.14-7.02,8.94-13.33,14.26-18.75,13.17-13.39,26.6-21.34,39.94-23.63,2.66-.45,5.33-.68,7.93-.68,1.63,0,3.28.09,4.89.27,1.16.12,2.4.31,3.73.56,26.48,5.22,39.3,32.18,44.59,47.78,1.15,3.39,1.83,5.93,2.09,6.89.38,1.42.73,2.82,1.02,4.16,4.11,18.65,2.9,40.64-3.33,60.35-1.16,3.65-2.48,7.23-3.93,10.63-10.42,24.39-27.84,40.55-47.79,44.32-1.68.32-3.42.55-5.17.69-1.38.12-2.89.19-4.39.19Z"/>
    <path class="cls-1" d="M1514.78,1072c1.25,0,2.51.07,3.79.21.97.1,1.94.25,2.92.44,22.07,4.35,32.9,29.01,37.02,41.17,1.03,3.04,1.64,5.3,1.9,6.27.33,1.23.64,2.48.92,3.74,3.85,17.46,2.5,37.43-3.1,55.17-1.05,3.32-2.25,6.57-3.59,9.7-8.4,19.66-22.41,35.02-40.45,38.43-1.37.26-2.74.44-4.11.55-1.2.11-2.4.16-3.6.16-2.15,0-4.29-.17-6.4-.47-15.06-2.19-28.7-11.61-36.98-20.92-4.28-4.82-7.63-10.16-10.13-15.86-1.38-3.12-2.5-6.35-3.38-9.66-5.3-19.92-1.91-42.65,6.98-61.84,1.42-3.08,2.99-6.06,4.69-8.93,3.69-6.26,8-11.96,12.79-16.83,4.09-4.16,17.57-17.88,34.5-20.79,2.03-.35,4.11-.54,6.23-.54M1514.78,1052c-3.16,0-6.39.28-9.59.82-15.47,2.66-30.74,11.57-45.4,26.48-5.9,6-11.2,12.96-15.77,20.7-2.04,3.45-3.94,7.06-5.62,10.71-11.38,24.55-14.35,52.03-8.14,75.36,1.16,4.35,2.64,8.58,4.41,12.58,3.4,7.74,7.93,14.83,13.48,21.07,12.99,14.6,31.32,24.85,49.06,27.43,3.14.45,6.25.68,9.28.68,1.77,0,3.55-.08,5.28-.23,2.08-.17,4.15-.45,6.15-.83,12.63-2.39,24.13-8.63,34.17-18.54,8.51-8.4,15.56-19.06,20.95-31.68,1.58-3.68,3.01-7.57,4.27-11.53,6.84-21.66,8.1-44.92,3.56-65.51-.34-1.51-.71-3.05-1.13-4.61-.28-1.04-1.02-3.8-2.28-7.51-10.33-30.48-28.83-49.79-52.09-54.37h-.03s-.03-.01-.03-.01c-1.59-.31-3.1-.54-4.61-.69-1.95-.21-3.93-.32-5.9-.32h0Z"/>
  </g>
  <path class="cls-1" d="M1507.79,1086.35l-2.99,54.72-.33,6.05-.31,5.75-.35,6.4-3.73,68.1v.09c-.16,2.76,1.96,5.12,4.71,5.27h.28c2.64,0,4.84-2.06,4.99-4.72l.02-.33,3.71-67.97.38-6.82.27-4.98.39-7.18,2.94-53.78c-3.24-.63-6.57-.85-9.98-.6Z"/>
  <path class="cls-2" d="M1518.57,1072.21c-3.44-.38-6.79-.22-10.02.33l-.76,13.81c3.4-.24,6.74-.03,9.98.6l.8-14.64s.01-.07,0-.1Z"/>
  <path class="cls-2" d="M1461.26,1110.16c-1.7,2.87-3.27,5.85-4.69,8.93l5.28,3.75c.87-3.39,2.15-6.59,3.77-9.58l-4.37-3.1Z"/>
  <path class="cls-1" d="M1570.6,1187.78l-12.37-8.78-40.16-28.52-3.63-2.57-5.23-3.71-4.41-3.13-39.17-27.81c-1.62,2.99-2.9,6.19-3.77,9.58l38.12,27.05,4.19,2.98,4.66,3.31,4.97,3.53,40.85,28.99,10.18,7.23c.87.62,1.88.92,2.89.92,1.56,0,3.1-.73,4.08-2.1,1.6-2.25,1.07-5.38-1.19-6.97Z"/>
  <path class="cls-1" d="M1514.83,1140.73l-5.62,3.47-4.74,2.92-4.5,2.77-50.38,31.04-9.22,5.68c-2.35,1.44-3.08,4.52-1.63,6.87.95,1.54,2.58,2.38,4.26,2.38.9,0,1.8-.24,2.62-.74l7.35-4.53,50.84-31.32,5.01-3.09,5.35-3.29,3.9-2.41,37.92-23.36c-.72-3.35-1.79-6.64-3.15-9.81l-38.01,23.42Z"/>
  <path class="cls-2" d="M1560.41,1120.09c-.26-.97-.87-3.23-1.9-6.27l-5.67,3.49c1.36,3.17,2.43,6.46,3.15,9.81l5.34-3.29c-.28-1.26-.59-2.51-.92-3.74Z"/>
  <path class="cls-1" d="M781,1294c5.74-4.31,6.84-11.7,5.89-19.23-1.15-2.54-2.88-4.82-5.49-6.37-8.39-5.02-19.08,1.35-20.38,2.15-10.85,6.68-11.74,19.32-11.8,20.38-.03.61-.13,2.37.1,4.69,8.86,6.67,22.37,6.14,31.67-1.62Z"/>
  <path class="cls-2" d="M786.89,1274.77c.94,7.53-.15,14.92-5.89,19.23-9.3,7.75-22.81,8.29-31.67,1.62.48,4.98,2.42,12.52,9.55,16.76,6.22,3.7,14.34,3.67,20.38,0,8.75-5.31,9.35-15.95,9.65-21.45.19-3.32.58-10.41-2.02-16.15Z"/>
  <path class="cls-1" d="M1521,1155c5.74-4.31,6.84-11.7,5.89-19.23-1.15-2.54-2.88-4.82-5.49-6.37-8.39-5.02-19.08,1.35-20.38,2.15-10.85,6.68-11.74,19.32-11.8,20.38-.03.61-.13,2.37.1,4.69,8.86,6.67,22.37,6.14,31.67-1.62Z"/>
  <path class="cls-2" d="M1526.89,1135.77c.94,7.53-.15,14.92-5.89,19.23-9.3,7.75-22.81,8.29-31.67,1.62.48,4.98,2.42,12.52,9.55,16.76,6.22,3.7,14.34,3.67,20.38,0,8.75-5.31,9.35-15.95,9.65-21.45.19-3.32.58-10.41-2.02-16.15Z"/>
</svg>