<?xml version="1.0" encoding="UTF-8"?>
<svg xmlns="http://www.w3.org/2000/svg" viewBox="0 0 2000 2000">
  <defs>
    <style>
      .cls-1 {
        fill: #fff;
      }

      .cls-2 {
        fill: #00442f;
      }

      .cls-3 {
        fill: #b8c9c3;
      }

      .cls-4 {
        fill: #6e7882;
      }

      .cls-5 {
        fill: #191919;
      }

      .cls-6 {
        fill: #007239;
      }
    </style>
  </defs>
  <g id="Coque_Verte" data-name="Coque Verte">
    <path class="cls-6" d="M1675,1089c-24.99,45.05-68.6,66.35-96,78-10.31,4.38-22.2,8.99-35.58,13.77-36.75,13.16-84.79,27.7-142.52,42.93-45.19,11.92-96.32,24.27-152.62,36.69-23.59,5.2-48.1,10.42-73.46,15.62-1.69.35-3.38.69-5.08,1.04-5.28,1.08-10.61,2.16-15.96,3.24-7.81,1.57-15.69,3.13-23.65,4.7-11.86,2.34-23.89,4.67-36.09,6.99-10.56,2.01-21.24,4.02-32.04,6.02-.9.19-1.8.37-2.7.55-3.15.65-6.28,1.28-9.41,1.91-4.78.97-9.53,1.92-14.26,2.86-10.52,2.08-20.93,4.1-31.24,6.05-5.36,1.02-10.68,2.03-15.98,3.01-4.06.75-8.1,1.5-12.12,2.23-3.83.71-7.64,1.4-11.44,2.08-6.21,1.11-12.38,2.2-18.51,3.28-1.68.29-3.35.58-5.02.87-127.1,22.03-236.42,34.59-323.32,42.16-15.51,1.35-238.33,18.16-312-49-14.9-13.58-58.57-53.39-59-110-.06-7.54-.35-45.68,26-76,7.05-8.12,16.2-15.88,37-27,45.96-24.56,87.42-32.68,94-34,0,0,129-39,284-131,15.58-9.25,42.11-15.99,81.14-18.26,0,.02,0,.02.03,0,12.34-.71,25.94-.98,40.83-.74,17.4.28,33.61,1.07,49.02,2.45h.03c23.5,2.09,45.14,5.5,66.31,10.47,20.84,4.87,41.2,11.24,62.41,19.3,4.04,1.52,8.12,3.12,12.23,4.78,11.82,4.76,24.71,10.58,38.49,16.67,4.2,1.86,8.48,3.75,12.84,5.64,5.07,2.19,10.24,4.39,15.51,6.56,35.34,14.56,74.93,27.77,116.16,29.13,91,3,146-43,178-94,17.7-28.21,35.6-65.6,14-98-32.22-48.34-100.45-49.03-100-51,1.03-4.51,350.56,28.37,369,146,1.32,8.39.68,15.5,0,20,7.92,5.46,39.68,28.68,48,71,7.6,38.66-9.17,68.88-17,83Z"/>
    <path class="cls-2" d="M1520.45,1113.02c1.77-.3,3.55-.73,5.32-1.46-1.78.49-3.55.98-5.32,1.46Z"/>
    <path class="cls-2" d="M1402.52,1144.3c30.17-6.94,59.97-14.07,89.26-23.48-30.88,8.34-60.63,16.15-89.26,23.48Z"/>
    <path class="cls-2" d="M1135.57,1206.24c14.23-2.69,28.45-5.45,42.68-8.97-14.76,3.17-28.99,6.16-42.68,8.97Z"/>
    <path class="cls-2" d="M1030.25,1226.58c8.62-1.15,17.22-2.46,25.52-4.67-8.84,1.65-17.34,3.2-25.52,4.67Z"/>
    <path class="cls-2" d="M1694,997c-3.5,17.34-15.33,36.03-35,57-22.15,23.62-62.09,37.62-74,41-20.16,5.72-39.9,11.24-59.23,16.56-1.77.73-3.55,1.16-5.32,1.46-9.66,2.65-19.22,5.25-28.67,7.8-29.29,9.41-59.09,16.54-89.26,23.48-84.77,21.69-159.65,39.08-224.28,52.97-14.23,3.53-28.45,6.29-42.68,8.97-14.49,2.98-28.38,5.77-41.66,8.37-1.97.45-3.94.91-5.91,1.39,1.97-.48,3.94-.94,5.91-1.39-13.33,2.61-26.04,5.04-38.14,7.3-8.3,2.21-16.89,3.52-25.52,4.67-31.09,5.58-57.37,9.88-78.74,13.16,12.13-1.62,24.62-3.36,36.49-5.74-11.87,2.37-24.36,4.12-36.49,5.74-45.32,6.95-68.51,9.26-68.51,9.26-154.7,15.42-282.14,27.19-369,35-7.13,8.04-16.03,16.7-27,25-29.4,22.24-58,40-81,48,32,7,77.66,11,132,11,110,0,194.19-10.22,342-33,122.55-18.89,334-64,501-103,89.06-20.8,73.7-22.78,229-78,2.32-.82,9.88-5.51,19-11,26.62-16.02,60.66-52.97,65-92,1.1-9.93,7.72-32.07,0-54Z"/>
  </g>
  <g id="Aero_Chrome" data-name="Aero Chrome">
    <path class="cls-4" d="M502,1285c-20,18-34,40-61,45-50.42,8.27-99.47-5.34-145.46-24.42,4.71,4.18,8.75,7.31,11.46,9.42,51.82,40.24,150.55,66.3,209,10,12.45-11.99,22.38-27.07,29.18-43.7-14.88.12-31.47-6.21-43.18,3.7Z"/>
    <path class="cls-3" d="M546,1181c-18.55-43.76-58.41-62.54-82.78-72.2-60.18-5.03-128.77-18.25-174.22,27.2-26,27-38,64-37,102,.04.68.1,1.36.16,2.05,9.29,31.43,29.35,53.11,43.38,65.54,45.99,19.08,95.04,32.68,145.46,24.42,27-5,41-27,61-45,11.72-9.91,28.31-3.58,43.18-3.7,12.79-31.28,14.48-68.08.82-100.3Z"/>
    <path class="cls-1" d="M289,1136c45.45-45.45,114.04-32.23,174.22-27.2-2.6-1.03-5.02-1.96-7.22-2.8-52.09-19.93-143.73-29.25-187,27-25.3,32.89-22.66,73.36-21,87,.86,7.08,2.3,13.75,4.16,20.05-.06-.68-.12-1.36-.16-2.05-1-38,11-75,37-102Z"/>
  </g>
  <g id="Aero_Ombre" data-name="Aero Ombre">
    <path class="cls-5" d="M388,1133c51.55,0,111.37,23.89,108,88-3,57-27,93-108,87-55.82-4.13-113.13-59.27-106-110,9-64,47-65,106-65Z"/>
  </g>
  <g id="Aile_Ombre_Verte" data-name="Aile Ombre Verte">
    <path class="cls-2" d="M1646,936c-13.36-6.69-30.02-15.15-46-21-54.09-19.79-104-25.47-143-26,19.05-2.71,40.89-4.45,65-4,48.31.9,90.87,10.26,121,20,.79,4.01,2.48,9.36,3,14,.65,5.74-.06,12.1,0,17Z"/>
  </g>
  <g id="Contour">
    <path class="cls-5" d="M1278.59,768.47c37.02,0,348.05,35.62,365.41,146.4,1.32,8.39.67,15.64,0,20.13,7.92,5.46,39.68,28.68,48,71,7.6,38.67-9.16,68.75-16.99,82.87-24.99,45.05-68.6,66.35-96,78-83.26,35.4-269.16,85.11-517,131-179.25,36.77-330.69,55.13-444,65-5.42.47-36.2,2.84-77.1,2.84-76.03,0-187-8.17-234.9-51.84-14.9-13.58-58.57-53.39-59-110-.06-7.54-.35-45.68,26-76,7.05-8.12,16.2-15.88,37-27,45.96-24.56,87.52-32.25,94-34,80.99-21.87,109.79-26.54,284-131,23.73-14.23,54.05-19.14,106.19-19.13,5.06,0,10.33.05,15.81.13,75.02,1.21,128,12,190,37,47.73,19.24,113.01,55.69,183,58,2.83.09,5.61.14,8.37.14,86.02,0,138.62-44.72,169.63-94.14,17.7-28.21,35.6-65.6,14-98-32.22-48.34-100.45-49.03-100-51,.06-.26,1.3-.4,3.59-.4M1278.59,762.47c-2.9,0-8.28,0-9.44,5.07-.38,1.65-.04,3.4.92,4.79,1.7,2.49,3.73,2.79,9.75,3.68,16.12,2.39,65.18,9.66,90.19,47.19,19.77,29.67,2.86,64.47-14.09,91.48-26.14,41.66-75.91,91.33-164.55,91.33-2.69,0-5.44-.05-8.17-.14-54.39-1.79-106.91-25.11-149.12-43.84-11.26-5-21.9-9.72-31.84-13.73-63.83-25.74-117.7-36.23-192.15-37.43-5.57-.09-10.92-.14-15.91-.14-54.64,0-85.28,5.6-109.27,19.99-164.77,98.8-197.96,107.69-270.67,127.18-3.82,1.02-7.75,2.08-11.8,3.17-.67.18-1.94.47-3.55.84-12.5,2.88-50.53,11.65-91.72,33.66-21.79,11.64-31.23,19.76-38.7,28.36-17.95,20.66-27.71,49.06-27.47,79.98.45,59.23,45.99,100.75,60.96,114.39,48.42,44.14,156.66,53.4,238.94,53.4,44.32,0,76.28-2.74,77.62-2.86,146.87-12.8,296.46-34.7,444.62-65.09,117.36-21.73,228.2-45.77,320.57-69.51,86.3-22.19,154.64-43.58,197.64-61.86,13.8-5.87,31.95-14.25,50.03-27.11,21.03-14.96,37.47-32.96,48.87-53.5l.05-.1c8.3-14.97,25.59-46.11,17.58-86.84-7.6-38.69-33.79-62.53-47.49-72.65.62-6.18.47-12.3-.47-18.26-4.28-27.3-25.17-52.14-62.1-73.85-29.37-17.26-68.93-32.66-117.6-45.75-83.19-22.38-170.79-31.86-191.64-31.86h0Z"/>
  </g>
</svg>