<?xml version="1.0" encoding="UTF-8"?>
<svg id="Aile_Back" data-name="Aile Back" xmlns="http://www.w3.org/2000/svg" viewBox="0 0 2000 2000">
  <defs>
    <style>
      .cls-1 {
        fill: #c7c8d8;
      }

      .cls-2 {
        fill: #191919;
      }
    </style>
  </defs>
  <path class="cls-1" d="M1328.46,818.93c-6.55,0-12.48-8.6-14.76-21.4l-6.12-34.37c-4.57-25.64.54-54.33,14.01-78.71,14.68-26.58,38.48-46.64,66.99-56.49,37.08-12.8,56.71-31.87,68.44-43.26,6.45-6.26,10-9.71,13.83-9.71,1.36,0,2.64.48,3.71,1.37,3.13,2.62,4.27,10.52,2.84,19.66-1.54,9.83-7.92,31.46-34.3,49.31,4.48-.73,8.55-1.11,12.15-1.11,14.38,0,17.24,5.81,17.67,9.27,1.09,8.86-11.07,18.95-31.18,26.95,12.71,2.18,17.43,9.76,17.43,16.4,0,10.38-10.94,21.06-29.78,24.04,8.42,4.74,12.05,11.51,11.67,17.74-.49,7.98-7.9,16.02-23.37,16.02-2.01,0-4.1-.14-6.25-.42,9.13,9.12,10.99,18.83,9.23,25.54-1.92,7.3-7.98,11.83-15.82,11.83-4.72,0-9.78-1.64-14.91-4.76,2.48,6.24,2.8,11.53.85,15.53-1.9,3.9-5.83,6.14-10.76,6.14h0c-5.37,0-12.34-2.81-18.46-8.8.46,6.1-.52,11.1-2.93,14.47-1.85,2.59-4.49,4.01-7.43,4.01h0c-4.88,0-9.68-3.72-13.72-10.28-.53,3.45-1.6,6.2-3.19,8.1-1.56,1.86-3.63,2.88-5.83,2.88Z"/>
  <path class="cls-2" d="M1470.85,578c.65,0,1.24.22,1.78.67,5.23,4.39,7.1,51.18-53.58,75.99,15.7-5.26,27.76-7.42,36.19-7.42,28.34,0,15.69,24.41-37.12,37.56,6-1.36,11.28-1.96,15.83-1.96,35.18,0,27.45,35.88-15.3,35.88-2.59,0-5.31-.13-8.16-.41,35.99,4.4,35.05,33.37,7.2,33.37-5.63,0-12.36-1.18-20.12-4,28.52,16.09,24.21,40.96,7.28,40.96-7.34,0-17.06-4.68-27.5-16.78,17.55,22.45,12.74,33.7,2.68,33.7-7.64,0-18.31-6.49-24.51-19.5,6.28,18.51,2.27,29.18-4.32,29.18-5.48,0-12.76-7.39-17.4-23.79,2.96,16.62-.61,24.49-5.34,24.49-4.31,0-9.6-6.53-11.81-18.92l-6.12-34.37c-8.83-49.58,18.97-111.1,79.02-131.83,55.64-19.21,73.18-52.8,81.29-52.81M1470.85,572h0c-5.05,0-9.14,3.97-15.91,10.56-11.55,11.22-30.88,29.99-67.33,42.58-15.18,5.24-28.94,13.15-40.9,23.51-11.15,9.66-20.48,21.22-27.74,34.36-13.8,24.97-19.02,54.38-14.34,80.69l6.12,34.37c2.58,14.5,9.54,23.87,17.71,23.87,3.11,0,6-1.4,8.13-3.96.8-.96,1.5-2.07,2.08-3.33,3.8,4.27,8.07,6.58,12.53,6.58,3.93,0,7.44-1.87,9.87-5.26,1.85-2.58,2.98-5.92,3.39-9.87,5.32,3.7,10.87,5.44,15.57,5.44,6.13,0,11.03-2.85,13.46-7.83,1.28-2.63,2.06-6.25,1.24-11.13,3.45,1.35,6.85,2.04,10.12,2.04,9.13,0,16.48-5.52,18.72-14.07,1.62-6.17.59-14.56-5.32-22.89,7.03-.09,13.15-1.83,17.72-5.05,4.87-3.43,7.74-8.33,8.07-13.79.34-5.57-1.99-11.5-7.38-16.39,4.97-1.37,9.43-3.34,13.25-5.89,7.78-5.18,12.24-12.36,12.24-19.7,0-6.54-3.76-13.12-11.85-16.87,17.02-8.08,26.69-17.78,25.58-26.85-.44-3.58-3.33-11.91-20.64-11.91-.58,0-1.17,0-1.77.03,20.12-17,25.48-35.7,26.89-44.77,1.28-8.19.93-18.39-3.88-22.42-1.62-1.36-3.57-2.08-5.64-2.08h0Z"/>
</svg>