<?xml version="1.0" encoding="UTF-8"?>
<svg id="Aileron_Back_Jaune" data-name="Aileron Back Jaune" xmlns="http://www.w3.org/2000/svg" viewBox="0 0 2000 2000">
  <defs>
    <style>
      .cls-1 {
        fill: #d89a00;
        stroke-width: 5px;
      }

      .cls-1, .cls-2 {
        stroke: #191919;
        stroke-linejoin: round;
      }

      .cls-2 {
        fill: none;
        stroke-width: 20px;
      }
    </style>
  </defs>
  <path class="cls-1" d="M1257.5,711.5c-5.23-17.99,36.61-44.99,60-56,33.94-15.97,81.72-23.06,91-7,1.68,2.92,1.46,6.61,1,14-1.35,21.91-10.55,38.16-13,42-23.82,37.36-131.35,33.32-139,7Z"/>
  <path class="cls-2" d="M1417,707.5c-12.97,42.33-25.94,84.67-38.91,127-8.19-6.01-17.54-12.17-28.02-18-10.55-5.87-20.51-10.43-29.57-14,15.31-36.33,30.61-72.67,45.92-109,6.38.94,13.14,2.23,20.23,4,11.17,2.78,21.31,6.28,30.35,10Z"/>
</svg>