<?xml version="1.0" encoding="UTF-8"?>
<svg id="Livrée_Course" data-name="Livrée Course" xmlns="http://www.w3.org/2000/svg" viewBox="0 0 2000 2000">
  <defs>
    <style>
      .cls-1 {
        fill: #fffbd7;
      }
    </style>
  </defs>
  <path class="cls-1" d="M1349,794c4.63-1.12,40.92,1.94,60,3,18,1,102,14,119,19-32-11-102-29-121-33-20.86-4.39-121.64-16.27-136-14,7.28.31,35.22,6.49,44,10,10,4,27.68,12.79,34,15Z"/>
  <g id="Calque_14" data-name="Calque 14">
    <path class="cls-1" d="M986.89,995.35c-32.62,5.62-49.57,40.81-53.97,49.93-23.37,48.53-13.78,123.28,38.66,149.35,20.27,10.08,52.9,15.85,78.38.86,46.91-27.6,46.28-111.9,11.6-159.19-4.05-5.52-35.04-47.78-74.66-40.96Z"/>
    <path d="M963.89,1124.61c.84-2.29,3.02-3.44,6.54-3.44,2.45,0,4.64.77,6.55,2.32,1.91,1.55,3.84,3.28,5.79,5.2.84.85,1.71,1.71,2.61,2.56.9.86,1.66,1.5,2.3,1.92,3.23,1.92,6.37,3.04,9.44,3.36,3.06.32,6.41.48,10.03.48,3.3,0,6.43-.45,9.36-1.36,2.93-.91,5.42-2.21,7.47-3.92,2.05-1.71,3.58-3.81,4.58-6.32,1.01-2.5,1.25-5.3.73-8.4l-.34-1.44c-.76-3.2-2.29-5.81-4.58-7.84-2.3-2.03-5.33-3.79-9.09-5.28h-1.12c-.53,0-1.02-.02-1.46-.08-.44-.05-.93-.08-1.46-.08h-4.16c-2.77,0-5.5.32-8.17.96-2.68.64-5.25,1.39-7.71,2.24-2.68.85-5.35,1.63-8.01,2.32-2.66.7-5.43,1.04-8.31,1.04h-2.24c-.85,0-1.61-.02-2.26-.08-.65-.05-1.31-.34-1.97-.88-2.07-1.06-3.53-2.19-4.4-3.36-.87-1.17-1.49-2.56-1.87-4.16l-.38-1.6c-.13-.53-.2-1.06-.22-1.6-.85-4.48-1.53-8.8-2.03-12.96-.51-4.16-1.01-8.43-1.52-12.8-.21-2.67-.46-5.33-.78-8-.31-2.67-.68-5.33-1.1-8,.12-1.28.39-2.29.8-3.04.41-.75.92-1.38,1.54-1.92l1.1-1.44c7.66-2.35,15.04-4.37,22.16-6.08,7.12-1.71,14.78-2.56,22.99-2.56h.48c2.34,0,5.35.08,9.02.24,3.66.16,7.33.67,11,1.52,3.67.85,6.95,2.21,9.85,4.08,2.9,1.87,4.75,4.51,5.56,7.92l.19.8c.22,1.81.06,3.28-.48,4.4-.53,1.12-1.29,1.98-2.27,2.56-.98.59-2.14.99-3.48,1.2-1.34.21-2.75.32-4.24.32-2.99,0-5.88-.16-8.67-.48-2.8-.32-5.61-.58-8.43-.8-2.85-.32-5.61-.61-8.29-.88-2.68-.26-5.3-.4-7.85-.4-1.39,0-3.01.11-4.88.32-1.87.21-3.71.56-5.51,1.04-1.81.48-3.39,1.12-4.74,1.92-1.36.8-2.27,1.79-2.74,2.96.07.75.15,1.65.25,2.72.09,1.07.17,2.19.24,3.36.14,1.49.29,3.01.44,4.56.15,1.55.28,2.53.38,2.96h35.52c4.8,0,9.12,1.01,12.96,3.04,3.84,2.03,7.2,4.61,10.08,7.76,2.88,3.15,5.26,6.64,7.13,10.48,1.87,3.84,3.24,7.58,4.1,11.2l.46,1.92c1.25,6.19,1.12,11.92-.4,17.2-1.52,5.28-4.09,9.84-7.71,13.68-3.62,3.84-8.16,6.85-13.62,9.04-5.46,2.19-11.49,3.28-18.1,3.28-4.48,0-9.2-.32-14.15-.96-4.95-.64-9.66-1.84-14.13-3.6-4.47-1.76-8.39-4.24-11.77-7.44-3.37-3.2-5.67-7.36-6.88-12.48l-.42-1.76c-.63-2.67-.53-5.15.32-7.44Z"/>
  </g>
  <path class="cls-1" d="M463,1113c16.68-4.57,88.28-20.73,118.6-35,44.61-20.99,80.11-46.52,135.03-86,29.28-21.05,45.59-33.99,75.72-50,22.88-12.16,42.54-20.14,55.65-25-10.34-.83-25.83-1.81-44.7-2-34.12-.35-51.6-.39-72.08,6-14.14,4.41-23.82,9.83-41.97,20-23.5,13.17-39.39,25.14-47.44,31-35.95,26.18-69.01,42.29-93.06,54-41.92,20.42-94.88,37-124.99,44-28.57,6.64-43.93,8.05-83.76,28,21-3,50-5,76,0,19.29,3.71,30.72,7.39,47,15Z"/>
</svg>