<?xml version="1.0" encoding="UTF-8"?>
<svg id="Livrée_Neko" data-name="Livrée Neko" xmlns="http://www.w3.org/2000/svg" viewBox="0 0 2000 2000">
  <defs>
    <style>
      .cls-1 {
        fill: #ffd7ab;
      }

      .cls-2 {
        fill: none;
        stroke: #191919;
        stroke-linecap: round;
        stroke-miterlimit: 10;
        stroke-width: 15px;
      }

      .cls-3 {
        fill: #996a3f;
      }

      .cls-4 {
        fill: #c7c8d8;
      }

      .cls-5 {
        fill: #efefef;
      }

      .cls-6 {
        fill: #d3a576;
      }

      .cls-7 {
        fill: #191919;
      }

      .cls-8 {
        fill: #c6c6c6;
      }
    </style>
  </defs>
  <path class="cls-6" d="M1113,1212c-35.87,6.79-70.8,10.76-105.69,17.37,8.56,4.67,21.51,9.06,49.51,12.61,40.36,5.1,77.25,9.35,119.26-5.8,24.36-8.79,34.03-18.18,37.27-21.53,8.67-9,13.91-19.02,17.12-28.12-38.64,9.44-76.94,18.57-117.47,25.47Z"/>
  <path class="cls-1" d="M1230.47,1186.53c3.72-10.53,4.74-19.83,5.24-24.89.8-8.17,3.6-36.51-14.08-61.28-3.15-4.41-6.24-8.34-9.45-11.82.8-4.82,1.52-10,2.11-15.51,2.76-25.78,4.36-40.73-2.48-44.72-10.57-6.17-35.71,16.95-48.04,31.47-1.71,2.01-3.3,4.01-4.79,5.98-4.36-.7-8.56-1.35-12.6-1.95-3.69-.55-7.26-1.04-10.72-1.51-3.39-.44-6.67-.86-9.84-1.22-1.63-.2-3.22-.38-4.79-.55-7.86-.84-15.06-1.45-21.76-1.82-1.25-.08-2.49-.13-3.7-.18-7.72-.35-14.77-.39-21.4-.14-.17,0-.35.01-.53.02-9.56.37-18.25,1.32-26.78,2.73-2.18-3.13-4.65-6.37-7.43-9.65-12.33-14.51-37.47-37.63-48.03-31.47-6.85,4-5.25,18.95-2.49,44.73.66,6.22,1.51,12.02,2.44,17.35-7.72,5.81-14.04,12.48-17.35,19.09-14.08,28.15-15.74,63.95-3.31,88.61,3.1,6.15,12.09,23.47,31.47,36.44,1.58,1.05,3.25,2.1,5.15,3.13,34.9-6.61,69.83-10.59,105.69-17.37,40.53-6.9,78.84-16.03,117.47-25.47Z"/>
  <path class="cls-7" d="M995.52,1019c11.98,0,32.98,19.63,43.91,32.49,2.78,3.28,5.25,6.52,7.43,9.65,8.53-1.41,17.22-2.36,26.78-2.73.18,0,.36-.02.53-.02,2.82-.11,5.71-.16,8.7-.16,4.04,0,8.26.1,12.7.3,1.21.05,2.45.1,3.7.18,6.7.37,13.9.98,21.76,1.82,1.57.17,3.16.35,4.79.55,3.17.36,6.45.78,9.84,1.22,3.46.47,7.03.96,10.72,1.51,4.04.6,8.24,1.25,12.6,1.95,1.49-1.97,3.08-3.97,4.79-5.98,10.93-12.87,31.92-32.49,43.91-32.49,1.54,0,2.93.32,4.13,1.02,6.84,3.99,5.24,18.94,2.48,44.72-.59,5.51-1.31,10.69-2.11,15.51,3.21,3.48,6.3,7.41,9.45,11.82,17.68,24.77,14.88,53.11,14.08,61.28-.93,9.44-3.65,33.6-22.36,53.01-3.24,3.35-12.91,12.74-37.27,21.53-21.82,7.87-42.27,10.51-62.53,10.51-18.74,0-37.34-2.25-56.73-4.71-34.19-4.33-45.95-9.91-54.66-15.74-19.38-12.97-28.37-30.29-31.47-36.44-12.43-24.66-10.77-60.46,3.31-88.61,3.31-6.61,9.63-13.28,17.35-19.09-.93-5.33-1.78-11.13-2.44-17.35-2.76-25.78-4.36-40.73,2.49-44.73,1.2-.7,2.59-1.02,4.12-1.02M995.52,1013c-2.65,0-5.05.62-7.14,1.84-6.74,3.94-7.72,12.38-7.82,19.29-.12,7.83.99,18.17,2.39,31.26.5,4.67,1.13,9.43,1.9,14.19-5.72,4.67-12.35,11.23-16.21,18.93-15.1,30.19-16.43,67.96-3.3,94,8.23,16.33,19.5,29.36,33.49,38.73,10.76,7.2,24.09,12.51,57.24,16.71,21.31,2.69,39.07,4.75,57.48,4.75,23.5,0,44.02-3.45,64.57-10.86,17.63-6.36,30.94-14.1,39.55-23,20.54-21.31,23.16-47.87,24.02-56.59.41-4.19,1.36-13.94-.13-25.8-1.88-14.91-6.94-28.22-15.03-39.56-2.78-3.9-5.41-7.26-7.96-10.2.66-4.27,1.23-8.63,1.7-13,1.4-13.09,2.51-23.43,2.39-31.26-.1-6.91-1.08-15.35-7.82-19.28-2.09-1.22-4.5-1.84-7.15-1.84-18.88,0-47.28,33.2-48.48,34.61-.94,1.1-1.86,2.22-2.78,3.38-3.14-.49-6.21-.96-9.15-1.4-3.79-.57-7.41-1.06-10.79-1.52-3.25-.42-6.66-.86-9.94-1.23-1.49-.18-3.07-.36-4.85-.56-8.15-.87-15.36-1.47-22.05-1.84-1.25-.08-2.47-.13-3.65-.18h-.16c-4.46-.21-8.82-.31-12.95-.31-3,0-5.97.05-8.84.16-.22,0-.44.01-.67.03-8.02.31-15.83,1.04-23.78,2.22-1.77-2.39-3.63-4.74-5.57-7.03-1.21-1.42-29.63-34.61-48.49-34.61h0Z"/>
  <line class="cls-2" x1="1063.03" y1="1130.74" x2="1029.33" y2="1114.97"/>
  <line class="cls-2" x1="1028.3" y1="1145.14" x2="1062.72" y2="1131.03"/>
  <line class="cls-2" x1="1161.27" y1="1138.03" x2="1196.29" y2="1125.49"/>
  <line class="cls-2" x1="1194.5" y1="1155.62" x2="1161.54" y2="1138.35"/>
  <path class="cls-4" d="M1113,1212c-8.72,1.65-17.38,3.13-26,4.52,5.97,4.22,13.17,6.83,21.01,7.17h0c14.07.6,26.71-6.27,34.13-17.08-9.61,1.91-19.3,3.72-29.13,5.39Z"/>
  <path class="cls-5" d="M1142.13,1206.61c4.03-5.87,6.52-12.91,6.84-20.55l.06-1.36-78.61-3.34-.06,1.36c-.59,13.86,6.08,26.35,16.62,33.81,8.62-1.4,17.28-2.87,26-4.52,9.83-1.67,19.53-3.48,29.13-5.39Z"/>
  <path class="cls-7" d="M1070.43,1181.36l78.61,3.34-.06,1.36c-.9,21.14-18.32,37.67-39.27,37.67-.56,0-1.13-.01-1.7-.04h0c-21.71-.92-38.56-19.27-37.63-40.97l.06-1.36M1064.69,1175.11l-.25,5.99-.06,1.36c-.51,12.1,3.71,23.67,11.91,32.59,8.19,8.92,19.37,14.11,31.47,14.63.65.03,1.31.04,1.95.04,24.35,0,44.23-19.07,45.27-43.41l.06-1.36.26-6-6-.25-78.61-3.34-5.99-.25h0Z"/>
  <path class="cls-3" d="M1121.03,1060.53c-.12,4.03-.58,8.89-1.14,14.77-.69,7.11-2.58,26.64-6.08,26.72-2.81.06-2.15-12.51-10.32-33.4-1.57-4.02-3.05-7.25-4.22-9.91,6.7.37,13.91.98,21.76,1.82Z"/>
  <path class="cls-3" d="M1146.38,1063.81c-.21,3.32-.57,7.13-.99,11.49-.69,7.11-2.57,26.64-6.07,26.72-2.81.06-2.14-12.51-10.33-33.4-1.13-2.9-2.21-5.37-3.17-7.54,3.17.36,6.45.78,9.85,1.23,3.45.46,7.02.96,10.72,1.51Z"/>
  <path class="cls-3" d="M1095.57,1058.53c-.02,4.39-.53,9.89-1.19,16.77-.69,7.11-2.58,26.64-6.07,26.72-2.81.06-2.15-12.51-10.33-33.4-1.63-4.17-3.15-7.49-4.34-10.2.17,0,.36-.02.53-.02,6.63-.24,13.68-.21,21.4.14Z"/>
  <path class="cls-7" d="M1096,1149c2.02-3.42,8.46-3.19,14-3,5.13.18,14.08.49,16,5,2.42,5.67-9,18-16,18s-17.08-14.78-14-20Z"/>
  <g id="Calque_60" data-name="Calque 60">
    <g>
      <g>
        <path class="cls-7" d="M706.77,1011.04l-57.41-11.92c-.79-.16-2.27.18-3.3.77l-82.03,47.12c-1.32.76-1.74,1.57-.93,1.81l6.74,1.99c.83.24,2.58-.19,3.9-.96l4.29-2.52,41.51,11.93-3.4,2.18c-1.31.84-1.62,1.74-.7,2.01l7.92,2.33c.94.28,2.77-.19,4.07-1.05l79.18-52.18c.99-.66,1.06-1.34.16-1.53ZM607.6,1042.56l-14.64-3.97,21.15-12.4,14.55,3.63-21.05,12.75ZM641.7,1021.91l-14.48-3.42,17.98-10.55,14.37,3.14-17.87,10.82ZM634.29,1049.8l-16.41-4.45,20.98-13,16.27,4.06-20.84,13.39ZM668.02,1028.12l-16.17-3.82,17.78-11.01,16.02,3.51-17.63,11.33Z"/>
        <polygon class="cls-5" points="685.65 1016.79 668.02 1028.12 651.85 1024.3 669.63 1013.29 685.65 1016.79"/>
        <polygon class="cls-5" points="659.57 1011.09 641.7 1021.91 627.22 1018.49 645.2 1007.94 659.57 1011.09"/>
        <polygon class="cls-5" points="655.12 1036.41 634.29 1049.8 617.88 1045.35 638.86 1032.35 655.12 1036.41"/>
        <polygon class="cls-5" points="628.65 1029.81 607.6 1042.56 592.96 1038.59 614.1 1026.18 628.65 1029.81"/>
      </g>
      <g>
        <g>
          <path class="cls-8" d="M734.66,977.62c-.1-.02-.2-.02-.32-.03.15,0,.27.02.39.05-.03,0-.05-.01-.08-.02ZM707.19,973.06c-.09-.02-.19-.02-.3-.03.14,0,.26.02.37.04-.02,0-.05-.01-.07-.02Z"/>
          <path class="cls-5" d="M749.19,988.17l-10.63-1.85,2.55-1.66c2.33-.58,4.54-1.43,6.41-2.46,2.02-1.1,3.3-2.36,3.51-3.44.22-1.08-.65-1.9-2.36-2.26l-8.8-1.86c-1.64-.35-3.96-.23-6.43.31-2.47.54-4.91,1.49-6.69,2.59l-8.47,5.24-8.32-1.45,2.53-1.54c2.36-.56,4.61-1.37,6.56-2.38,2.06-1.06,3.41-2.26,3.72-3.3.32-1.03-.44-1.81-2.04-2.15l-8.26-1.76c-1.54-.33-3.77-.21-6.19.31-2.41.52-4.84,1.43-6.67,2.49l-8.64,5.02-1.92-.33c.68-.21,1.37-.45,2.04-.7,4.42-1.7,6.86-4.02,5.71-5.39l-3.02-3.5c-.34-.39-1-.68-1.9-.82-2.08-.34-5.28.08-8.37,1.08-3.34,1.08-6.93,2.17-10.7,3.27.78-1.94,1.22-3.81,1.35-5.68.03-.74-.68-1.26-1.99-1.47-1.22-.2-2.92-.12-4.8.21l-8.69,1.56c-2.53.46-5.18,1.34-7.26,2.41-2.13,1.09-3.44,2.26-3.6,3.21-.41,2.26-1.37,4.52-2.95,6.88-6.55,1.45-12.97,2.73-18.68,3.7-2.76.47-5.82,1.49-8.21,2.74-2.4,1.25-3.94,2.63-4.1,3.69-.17,1.2-.66,2.54-1.01,3.03-.78,1.08-.56,1.93.63,2.4l.05.02c1.23.45,3.35.44,5.78,0,3.54-.65,7.27-1.37,11.1-2.15-1.12.78-2.32,1.59-3.61,2.44-14.85,4.87-33.41,9.52-45.27,11.31-3.04.47-6.56,1.61-9.45,3.08-2.96,1.5-4.91,3.17-5.2,4.44-.15.58-1.24,2.21-2.8,3.95-1.21,1.32-1.24,2.42-.07,3.05,1.17.59,3.48.63,6.26.1,5.28-1,11.37-2.35,17.89-3.94-15.24,8.01-23.34,11.64-26.07,12.7-.96-.19-2.61-.63-3.68-.92-1.73-.47-3.55-1.08-5.43-1.83-.13-.06-.28-.1-.44-.15-1.96-.53-5.56-.09-9.43,1.16-4.28,1.38-8.2,3.48-10.22,5.48-1.07,1.04-3.17,2.5-5.38,3.72-5,2.77-6.96,5.69-4.49,6.76,1.26.56,2.67.99,4.04,1.4,7.48,2.27,14.44,3.72,28.69-.3.19-.05.37-.11.59-.17,4.41-1.34,9.46-3.24,15.27-5.76l-12.28,6.99c-5.59,3.18-7.46,6.64-4.06,7.67l6.75,2.05c2.74.83,7.98-.14,12.83-2.23l32.42,9.6c-2.41,2.57-2.34,4.84.45,5.69l7.94,2.4c3.99,1.21,11.78-.82,17.26-4.48l78.95-52.68c4.13-2.76,4.34-5.6.56-6.37l-4.75-.96,9.66-6.27,10.81,2.09c3.81.74,10.08-.79,13.9-3.38l7.32-4.96c3.66-2.48,3.53-5.01-.21-5.66ZM557.16,1041.05l-.12.04c-9.7,2.72-14.86,2.14-22.63-.16-1.29-.38-2.62-.77-3.77-1.27-.71-.3-.17-1.12,1.25-1.92,3.42-1.91,6.47-4.06,8.17-5.77.57-.58,1.69-1.18,2.92-1.58,1.22-.39,2.34-.51,2.85-.29,1.97.81,3.9,1.48,5.73,1.99,5.02,1.39,5.79,1.54,9.04.62,6.41-1.89,25.24-11.31,47.88-23.88l1.33-.74c-13.27,3.8-26.71,7.09-36.97,9.04-.79.15-1.44.14-1.77-.02-.33-.17-.34-.48,0-.86,1.47-1.66,3.05-3.82,3.3-4.93.07-.36.62-.84,1.46-1.27.83-.43,1.85-.76,2.73-.89,13.77-2.08,35.07-7.52,51.52-13.12,5.14-3.32,9.16-6.25,12.33-8.94-7.44,1.65-14.55,3.1-21.13,4.29-.69.13-1.29.13-1.65,0-.34-.14-.41-.38-.2-.68.63-.9,1.1-2.54,1.23-3.68.04-.3.47-.69,1.16-1.05.68-.36,1.56-.65,2.35-.79,7.71-1.32,16.45-3.12,25.29-5.19,2.68-3.4,4.19-6.57,4.69-9.71.04-.27.41-.6,1.02-.92.6-.31,1.36-.56,2.09-.7l8.75-1.58c1.16-.21,1.98-.05,1.95.37-.25,2.79-1.25,5.62-3.08,8.65,7.01-1.9,13.88-3.93,19.9-5.89,1.32-.43,2.62-.46,2.94-.07l2.94,3.55c.31.4-.39,1.06-1.64,1.54h0c-1.5.57-3.14.83-4.53.73-.61.19-1.22.38-1.83.57-1,.31-2.02.62-3.07.94h0c-.79.24-1.59.48-2.41.72h0c-.87.26-1.74.51-2.63.77-.89.25-1.8.51-2.72.77-.95.27-1.91.53-2.88.8-1.38.38-2.8.76-4.23,1.14-1.75.46-3.55.93-5.37,1.4-9.3,9.48-24.9,18.93-41.08,28.11-28.79,16.33-48.76,26.15-61.06,29.85ZM706.77,1011.04c.9.19.83.87-.16,1.53l-79.18,52.18c-1.3.86-3.13,1.33-4.07,1.05l-7.92-2.33c-.92-.27-.61-1.17.7-2.01l3.4-2.18-41.51-11.93-4.29,2.52c-1.32.78-3.07,1.21-3.9.96l-6.74-1.99c-.81-.24-.39-1.05.93-1.81l82.03-47.12c1.03-.59,2.5-.94,3.3-.77l57.41,11.92ZM736.82,997.81c-.91.61-2.38.97-3.28.8l-15.84-2.99-15.28,9.8c-.98.63-2.49.99-3.37.82l-7.5-1.53c-.86-.18-.76-.82.23-1.44l15.4-9.64-18.09-3.41-15.57,9.35c-1,.6-2.48.95-3.3.78l-6.93-1.41c-.81-.17-.65-.78.35-1.37l15.66-9.2-13.99-2.64c-.77-.15-.63-.7.33-1.25l7.72-4.38c.37-.21.82-.39,1.27-.51.44-.13.9-.2,1.28-.22h0c.19-.01.36,0,.52.03l13.9,2.49,13.87-8.14c.44-.26,1.01-.47,1.59-.6.27-.06.54-.1.78-.11.12,0,.23,0,.34,0,.11,0,.21.01.3.03.03,0,.05.01.07.02l8.28,1.81c.38.08.55.27.47.52-.08.25-.4.53-.89.78-.84.43-2.44,1.08-4.68,1.2l-10.4,6.25,17.95,3.21,13.6-8.51c.43-.27,1.01-.49,1.6-.62.28-.06.55-.1.8-.12.13,0,.24,0,.35,0,.12,0,.22.01.32.03.03,0,.05.01.08.02l8.83,1.91c.41.09.6.29.55.55-.06.26-.36.56-.85.82-1,.54-2.55,1.14-4.64,1.27l-10.19,6.54,15.71,2.81c.89.16.91.77.03,1.36l-7.36,4.92Z"/>
        </g>
        <path class="cls-8" d="M734.66,977.62c-.1-.02-.2-.02-.32-.03.15,0,.27.02.39.05-.03,0-.05-.01-.08-.02ZM707.19,973.06c-.09-.02-.19-.02-.3-.03.14,0,.26.02.37.04-.02,0-.05-.01-.07-.02Z"/>
      </g>
      <g>
        <g>
          <path class="cls-8" d="M571.91,1016.98c-.06,0-.11-.01-.16-.03-.02,0-.04,0-.06,0h-.02s0,0,0,0h.02s.09.03.15.03c.02,0,.03,0,.05,0h0s0,0,.02,0h-.01ZM572.08,1016.99h.02c.08,0,.16,0,.24,0-.09,0-.18,0-.26,0Z"/>
          <path class="cls-8" d="M572.08,1016.99h.02c.08,0,.16,0,.24,0-.09,0-.18,0-.26,0ZM571.75,1016.95s-.04,0-.06,0c0,0,0,0,0,0,.04.01.09.02.15.02.02,0,.03,0,.05,0h0s0,0,0,0c-.06,0-.11-.01-.16-.03Z"/>
        </g>
        <g>
          <path class="cls-8" d="M572.08,1016.99h.02c.08,0,.16,0,.24,0-.09,0-.18,0-.26,0ZM571.91,1016.98c-.06,0-.11-.01-.16-.03-.02,0-.04,0-.06,0h-.02s0,0,0,0h.02s.09.03.15.03c.02,0,.03,0,.05,0h0s0,0,.02,0h-.01Z"/>
          <path class="cls-7" d="M744.17,992.89l-7.36,4.92c-.91.61-2.38.97-3.28.8l-15.84-2.99-15.28,9.8c-.98.63-2.49.99-3.37.82l-7.5-1.53c-.86-.18-.76-.82.23-1.44l15.4-9.64-18.09-3.41-15.57,9.35c-1,.6-2.48.95-3.3.78l-6.93-1.41c-.81-.17-.65-.78.35-1.37l15.66-9.2-13.99-2.64c-.77-.15-.63-.7.33-1.25l7.72-4.38c.37-.21.82-.39,1.27-.51.44-.13.9-.2,1.28-.22h0c.19-.01.36,0,.52.03l13.9,2.49,13.87-8.14c.44-.26,1.01-.47,1.59-.6.27-.06.54-.1.78-.11.12,0,.23,0,.34,0,.14,0,.26.02.37.04l8.28,1.81c.38.08.55.27.47.52-.08.25-.4.53-.89.78-.84.43-2.44,1.08-4.68,1.2l-10.4,6.25,17.95,3.21,13.6-8.51c.43-.27,1.01-.49,1.6-.62.28-.06.55-.1.8-.12.12,0,.24,0,.35,0,.15,0,.27.02.39.05l8.83,1.91c.41.09.6.29.55.55-.06.26-.36.56-.85.82-1,.54-2.55,1.14-4.64,1.27l-10.19,6.54,15.71,2.81c.89.16.91.77.03,1.36Z"/>
          <g>
            <path class="cls-7" d="M572.34,1017c-.08,0-.17,0-.24,0h-.02c.08,0,.17,0,.26,0Z"/>
            <path class="cls-7" d="M571.92,1016.98h.02s-.03,0-.04,0h-.05c-.06,0-.1-.02-.15-.03h-.02s-.02,0-.01-.01h.03s.03.01.06.01c.05.01.1.02.16.03h.01Z"/>
            <path class="cls-7" d="M571.97,1016.99s-.01,0-.02,0h0s0,0,.01,0Z"/>
            <path class="cls-7" d="M572.08,1016.99h.02c.08,0,.16,0,.24,0-.09,0-.18,0-.26,0ZM571.96,1016.98h0s.02,0,.02,0h-.01ZM571.91,1016.98c-.06,0-.11-.01-.16-.03-.03,0-.04,0-.06,0h-.03s0,0,.01,0h.02s.09.03.15.03h.05s.02.01.04,0h-.02s0,0-.01,0Z"/>
            <path class="cls-7" d="M572.08,1016.99h.02c.08,0,.16,0,.24,0-.09,0-.18,0-.26,0ZM571.96,1016.99h0s-.01,0-.01,0h0Z"/>
            <path class="cls-7" d="M690.65,973.71l-2.94-3.55c-.33-.39-1.62-.36-2.94.07-6.02,1.96-12.89,3.99-19.9,5.89,1.84-3.03,2.83-5.86,3.08-8.65.03-.42-.79-.57-1.95-.37l-8.75,1.58c-.72.13-1.48.39-2.09.7-.6.31-.98.65-1.02.92-.49,3.13-2.01,6.31-4.69,9.71-8.83,2.07-17.58,3.87-25.29,5.19-.79.14-1.68.43-2.35.79-.68.36-1.12.76-1.16,1.05-.13,1.14-.6,2.78-1.23,3.68-.21.3-.14.55.2.68.36.12.96.12,1.65,0,6.58-1.19,13.69-2.64,21.13-4.29-3.16,2.69-7.18,5.62-12.33,8.94-16.45,5.6-37.76,11.04-51.52,13.12-.88.13-1.9.47-2.73.89-.84.43-1.39.91-1.46,1.27-.25,1.11-1.83,3.27-3.3,4.93-.34.38-.34.69,0,.86.34.17.98.18,1.77.02,10.26-1.94,23.7-5.23,36.97-9.04l-1.33.74c-22.64,12.57-41.47,21.99-47.88,23.88-3.25.91-4.02.77-9.04-.62-1.84-.51-3.76-1.18-5.73-1.99-.51-.22-1.63-.1-2.85.29-1.23.4-2.35,1-2.92,1.58-1.7,1.7-4.75,3.86-8.17,5.77-1.42.8-1.95,1.62-1.25,1.92,1.15.49,2.48.89,3.77,1.27,7.77,2.3,12.93,2.88,22.63.16l.12-.04c12.3-3.71,32.26-13.52,61.06-29.85,16.18-9.18,31.78-18.63,41.08-28.11,1.83-.47,3.62-.94,5.37-1.4,1.44-.38,2.85-.76,4.23-1.14.98-.27,1.94-.53,2.88-.8.92-.26,1.82-.51,2.72-.77.89-.25,1.76-.51,2.63-.76h0c.82-.24,1.62-.48,2.41-.72h0c1.05-.32,2.07-.63,3.07-.94.62-.19,1.23-.38,1.83-.57,1.4.11,3.04-.15,4.53-.72h0c1.26-.48,1.96-1.15,1.64-1.54ZM571.9,1016.98h0s-.04,0-.05,0c-.06,0-.1-.01-.15-.02h-.02s-.01,0,0-.01h.02s.03.01.06.01c.05.01.1.02.16.03h.01s-.01,0-.02,0ZM571.96,1016.99h0s0,0,.01,0c0,0-.01,0-.02,0ZM572.1,1017h-.02c.08,0,.17,0,.26,0-.08,0-.17,0-.24,0Z"/>
          </g>
        </g>
      </g>
    </g>
  </g>
</svg>