<?xml version="1.0" encoding="UTF-8"?>
<svg id="Livrée_Feu_Alt" data-name="Livrée Feu Alt" xmlns="http://www.w3.org/2000/svg" viewBox="0 0 2000 2000">
  <defs>
    <style>
      .cls-1 {
        fill: #ff8500;
      }

      .cls-2 {
        fill: #ffda00;
      }

      .cls-3 {
        fill: #ffb600;
      }

      .cls-4 {
        fill: #d86100;
      }
    </style>
  </defs>
  <path class="cls-4" d="M889,1249c-79,15-152,26-230,31-1,0-3,3-5,3-41-1-82-1-123-1-17,0-42,9-47,27-4-5-1,5-6,0,1,6-5,11-11,9,1,1,2,3,2,3-13,12-28,20-45,21-20.74.83-41.45,1.45-62.15,1.91,95.16,31.4,243.6,20.18,256.15,19.09,110.37-9.61,256.93-27.28,430.12-62.18,4.61-.93,9.23-1.87,13.88-2.82,39.21-7.26,76.87-14.61,112.82-21.99-10.03-6.98-23.06-13.54-37.82-15.01-30.64-3.05-44.65,13.1-72,3-3.87-1.43-24.44-9.02-26-23-.69-6.25,2.61-12.07,6.98-16.9-46.54,9.33-92.39,12.64-139.98,22.9-5,1-11,1-17,2Z"/>
  <path class="cls-1" d="M1166,1033c-47.29-4.92-56.9,13.73-112,11-47.03-2.33-66-15-66-23,0-9,10.42-12.27,30.5-18.5,14.5-4.5,24.89-11.01,32.83-26.19.23-.43.45-.87.67-1.31-9.8-4.03-54-24-64-26-.08.08-.15.15-.23.22-9.06,8.88-25.88,14.81-38.77,17.78-13,3-36,4-47,4-9,0-21-5-23-11-1.41-4.24,4-12.72,8-16,11-9,21.19-11.92,38.36-14.08-21.17-4.97-42.81-8.38-66.31-10.47h-.03c-4.17-.37-8.4-.7-12.7-.99-11.58-.78-23.63-1.26-36.32-1.46-14.89-.24-28.49.03-40.83.74-.02.02-.03.02-.03,0-39.03,2.27-65.56,9.01-81.14,18.26-155,92-284,131-284,131-6.58,1.32-48.04,9.44-94,34-20.8,11.12-29.95,18.88-37,27-26.35,30.32-26.06,68.46-26,76,.43,56.61,44.1,96.42,59,110,14.03,12.79,33.47,22.53,55.85,29.91,20.7-.46,41.42-1.08,62.15-1.91,17-1,32-9,45-21,0,0-1-2-2-3,6,2,12-3,11-9,5,5,2-5,6,0,5-18,30-27,47-27,41,0,82,0,123,1,2,0,4-3,5-3,78-5,151-16,230-31,6-1,12-1,17-2,47.59-10.26,93.44-13.57,139.98-22.9,6.47-7.14,15.29-12.12,17.02-13.1,22.29-12.57,44.56-8.51,58-8,25.15.95,61.19-8.98,108-58-37.98,24.76-67.6,27.95-88,26-41.3-3.95-50.71-29.54-87-26-35.01,3.42-42.75,28.84-80,27-3.72-.18-36.87-2.18-43-20-4.64-13.49,7.88-31.23,20-41,34.75-27.99,70.08,6.46,138-8,47.82-10.18,49.55-31.36,97-35,45.35-3.48,74.27,6.2,78,9,4,3-41.26-38.1-98-44Z"/>
  <path class="cls-2" d="M1043,1073c-.94-.19-2.06-.37-3.3-.54,2.79.49,4.07.7,3.3.54Z"/>
  <path class="cls-2" d="M469,1321s-1-2-2-3c6,2,12-3,11-9,5,5,2-5,6,0,5-18,30-27,47-27,41,0,82,0,123,1,2,0,4-3,5-3,78-5,151-16,230-31,6-1,12-1,17-2,28.5-6.15,56.37-9.8,84.14-13.74,7.32-18.16,25.33-31.83,20.86-28.26-4.65,3.72-30.32,14.08-64,12-5.03-.31-43.92-3.32-64-34-22.01-33.62,4.1-92.56,71-108,24.25-5.6,68.47-4.94,85.7-2.54-15.24-2.69-75.48-14-90.7-22.46-19.97-11.1-15-32-2-40,7.33-4.51,32-20,41-29,3.39-3.39-65.37,24.37-105,22-24.17-1.45-43.41-2.86-52-16-9.21-14.09-15.19-31.07-10-44,3.17-7.89,13.68-22.46,25-27-11.58-.78-21.31-.8-34-1-14.89-.24-17.66-.71-30,0-.02.02-19,1.02-19,1-39.03,2.27-59.42,10.75-75,20-155,92-284,131-284,131-6.58,1.32-48.04,9.44-94,34-20.8,11.12-29.95,18.88-37,27-26.35,30.32-26.06,68.46-26,76,.43,56.61,44.1,96.42,59,110,14.03,12.79,33.47,22.53,55.85,29.91,20.7-.46,41.42-1.08,62.15-1.91,17-1,32-9,45-21Z"/>
  <path class="cls-3" d="M999,1281c-9.04-10.17-14.3-26.25-11-41,.51-2.3,1.25-4.55,2.14-6.74-27.77,3.94-55.64,7.59-84.14,13.74-5,1-11,1-17,2-79,15-152,26-230,31-1,0-3,3-5,3-41-1-82-1-123-1-17,0-42,9-47,27-4-5-1,5-6,0,1,6-5,11-11,9,1,1,2,3,2,3-13,12-28,20-45,21-20.74.83-41.45,1.45-62.15,1.91,95.16,31.4,243.6,20.18,256.15,19.09,110.37-9.61,256.93-27.28,430.12-62.18-3.52-1.07-6.92-2.01-10.12-2.82-15.12-3.81-28.51-5.2-39-17Z"/>
</svg>